%TF.GenerationSoftware,KiCad,Pcbnew,8.0.2*%
%TF.CreationDate,2024-05-25T17:16:43+02:00*%
%TF.ProjectId,micropet_v3,6d696372-6f70-4657-945f-76332e6b6963,rev?*%
%TF.SameCoordinates,Original*%
%TF.FileFunction,Paste,Top*%
%TF.FilePolarity,Positive*%
%FSLAX46Y46*%
G04 Gerber Fmt 4.6, Leading zero omitted, Abs format (unit mm)*
G04 Created by KiCad (PCBNEW 8.0.2) date 2024-05-25 17:16:43*
%MOMM*%
%LPD*%
G01*
G04 APERTURE LIST*
G04 Aperture macros list*
%AMRoundRect*
0 Rectangle with rounded corners*
0 $1 Rounding radius*
0 $2 $3 $4 $5 $6 $7 $8 $9 X,Y pos of 4 corners*
0 Add a 4 corners polygon primitive as box body*
4,1,4,$2,$3,$4,$5,$6,$7,$8,$9,$2,$3,0*
0 Add four circle primitives for the rounded corners*
1,1,$1+$1,$2,$3*
1,1,$1+$1,$4,$5*
1,1,$1+$1,$6,$7*
1,1,$1+$1,$8,$9*
0 Add four rect primitives between the rounded corners*
20,1,$1+$1,$2,$3,$4,$5,0*
20,1,$1+$1,$4,$5,$6,$7,0*
20,1,$1+$1,$6,$7,$8,$9,0*
20,1,$1+$1,$8,$9,$2,$3,0*%
G04 Aperture macros list end*
%ADD10R,0.635000X1.270000*%
%ADD11R,0.660400X2.032000*%
%ADD12R,1.100000X1.000000*%
%ADD13R,1.000000X1.100000*%
%ADD14R,0.250000X1.000000*%
%ADD15R,2.032000X0.660400*%
%ADD16R,0.600000X2.200000*%
%ADD17R,0.900000X0.800000*%
%ADD18R,2.200000X0.600000*%
%ADD19R,1.300000X1.500000*%
%ADD20R,1.910000X0.610000*%
%ADD21R,2.410000X3.100000*%
%ADD22R,0.254000X1.143000*%
%ADD23R,1.143000X0.254000*%
%ADD24RoundRect,0.358140X0.835660X4.721860X-0.835660X4.721860X-0.835660X-4.721860X0.835660X-4.721860X0*%
%ADD25R,1.500000X2.000000*%
%ADD26R,3.800000X2.000000*%
%ADD27R,0.270000X1.500000*%
%ADD28R,1.500000X0.270000*%
%ADD29RoundRect,0.358140X4.721860X-0.835660X4.721860X0.835660X-4.721860X0.835660X-4.721860X-0.835660X0*%
%ADD30RoundRect,0.150000X-0.512500X-0.150000X0.512500X-0.150000X0.512500X0.150000X-0.512500X0.150000X0*%
G04 APERTURE END LIST*
D10*
%TO.C,JS1*%
X130810000Y-132080000D03*
X132080000Y-132080000D03*
X133350000Y-132080000D03*
X133350000Y-129540000D03*
X132080000Y-129540000D03*
X130810000Y-129540000D03*
%TD*%
D11*
%TO.C,IC4*%
X240559106Y-83877150D03*
X241829106Y-83877150D03*
X243099106Y-83877150D03*
X244369106Y-83877150D03*
X245639106Y-83877150D03*
X246909106Y-83877150D03*
X248179106Y-83877150D03*
X248179106Y-77730350D03*
X246909106Y-77730350D03*
X245639106Y-77730350D03*
X244369106Y-77730350D03*
X243099106Y-77730350D03*
X241829106Y-77730350D03*
X240559106Y-77730350D03*
%TD*%
D12*
%TO.C,C12*%
X87176875Y-96361250D03*
X88876875Y-96361250D03*
%TD*%
%TO.C,C29*%
X78604375Y-116998750D03*
X80304375Y-116998750D03*
%TD*%
D13*
%TO.C,C23*%
X250929656Y-54059631D03*
X250929656Y-52359631D03*
%TD*%
%TO.C,C8*%
X86360000Y-129110000D03*
X86360000Y-130810000D03*
%TD*%
D14*
%TO.C,U$13*%
X79010000Y-102713100D03*
X79510000Y-102713100D03*
X80010000Y-102713100D03*
X80510000Y-102713100D03*
X81010000Y-102713100D03*
X81010000Y-98486900D03*
X80510000Y-98486900D03*
X80010000Y-98486900D03*
X79510000Y-98486900D03*
X79010000Y-98486900D03*
%TD*%
D12*
%TO.C,C70*%
X141632519Y-123257232D03*
X139932519Y-123257232D03*
%TD*%
%TO.C,C42*%
X140032000Y-78740000D03*
X141732000Y-78740000D03*
%TD*%
D13*
%TO.C,C33*%
X106045000Y-71550000D03*
X106045000Y-69850000D03*
%TD*%
D12*
%TO.C,C7*%
X160651606Y-127000000D03*
X162351606Y-127000000D03*
%TD*%
D15*
%TO.C,IC7*%
X151130000Y-109220000D03*
X151130000Y-107950000D03*
X151130000Y-106680000D03*
X151130000Y-105410000D03*
X151130000Y-104140000D03*
X151130000Y-102870000D03*
X151130000Y-101600000D03*
X151130000Y-100330000D03*
X144983200Y-100330000D03*
X144983200Y-101600000D03*
X144983200Y-102870000D03*
X144983200Y-104140000D03*
X144983200Y-105410000D03*
X144983200Y-106680000D03*
X144983200Y-107950000D03*
X144983200Y-109220000D03*
%TD*%
D11*
%TO.C,IC2*%
X167851606Y-84642325D03*
X169121606Y-84642325D03*
X170391606Y-84642325D03*
X171661606Y-84642325D03*
X172931606Y-84642325D03*
X174201606Y-84642325D03*
X175471606Y-84642325D03*
X176741606Y-84642325D03*
X178011606Y-84642325D03*
X179281606Y-84642325D03*
X179281606Y-74583925D03*
X178011606Y-74583925D03*
X176741606Y-74583925D03*
X175471606Y-74583925D03*
X174201606Y-74583925D03*
X172931606Y-74583925D03*
X171661606Y-74583925D03*
X170391606Y-74583925D03*
X169121606Y-74583925D03*
X167851606Y-74583925D03*
%TD*%
%TO.C,IC3*%
X237939731Y-73796525D03*
X239209731Y-73796525D03*
X240479731Y-73796525D03*
X241749731Y-73796525D03*
X243019731Y-73796525D03*
X244289731Y-73796525D03*
X245559731Y-73796525D03*
X245559731Y-67649725D03*
X244289731Y-67649725D03*
X243019731Y-67649725D03*
X241749731Y-67649725D03*
X240479731Y-67649725D03*
X239209731Y-67649725D03*
X237939731Y-67649725D03*
%TD*%
D16*
%TO.C,SN1*%
X94615000Y-64890000D03*
X95885000Y-64890000D03*
X97155000Y-64890000D03*
X98425000Y-64890000D03*
X98425000Y-59690000D03*
X97155000Y-59690000D03*
X95885000Y-59690000D03*
X94615000Y-59690000D03*
%TD*%
D12*
%TO.C,C39*%
X112709106Y-60960000D03*
X114409106Y-60960000D03*
%TD*%
D13*
%TO.C,C22*%
X227224106Y-122260625D03*
X227224106Y-123960625D03*
%TD*%
D12*
%TO.C,C9*%
X136564000Y-59531250D03*
X138264000Y-59531250D03*
%TD*%
%TO.C,C17*%
X207800356Y-85328125D03*
X209500356Y-85328125D03*
%TD*%
D15*
%TO.C,IC6*%
X147218400Y-121285000D03*
X147218400Y-120015000D03*
X147218400Y-118745000D03*
X147218400Y-117475000D03*
X147218400Y-116205000D03*
X147218400Y-114935000D03*
X147218400Y-113665000D03*
X141071600Y-113665000D03*
X141071600Y-114935000D03*
X141071600Y-116205000D03*
X141071600Y-117475000D03*
X141071600Y-118745000D03*
X141071600Y-120015000D03*
X141071600Y-121285000D03*
%TD*%
D13*
%TO.C,C15*%
X181345356Y-80463125D03*
X181345356Y-78763125D03*
%TD*%
%TO.C,C19*%
X171820356Y-111227500D03*
X171820356Y-112927500D03*
%TD*%
D17*
%TO.C,Q1*%
X255272330Y-54089992D03*
X255272330Y-52189992D03*
X253272330Y-53139992D03*
%TD*%
D13*
%TO.C,C3*%
X104140000Y-129755000D03*
X104140000Y-128055000D03*
%TD*%
D15*
%TO.C,IC16*%
X152984200Y-95885000D03*
X152984200Y-94615000D03*
X152984200Y-93345000D03*
X152984200Y-92075000D03*
X152984200Y-90805000D03*
X152984200Y-89535000D03*
X152984200Y-88265000D03*
X152984200Y-86995000D03*
X152984200Y-85725000D03*
X152984200Y-84455000D03*
X152984200Y-83185000D03*
X152984200Y-81915000D03*
X142925800Y-81915000D03*
X142925800Y-83185000D03*
X142925800Y-84455000D03*
X142925800Y-85725000D03*
X142925800Y-86995000D03*
X142925800Y-88265000D03*
X142925800Y-89535000D03*
X142925800Y-90805000D03*
X142925800Y-92075000D03*
X142925800Y-93345000D03*
X142925800Y-94615000D03*
X142925800Y-95885000D03*
%TD*%
D13*
%TO.C,C18*%
X237860356Y-79748750D03*
X237860356Y-78048750D03*
%TD*%
D18*
%TO.C,IC13*%
X97856000Y-123190000D03*
X97856000Y-121920000D03*
X97856000Y-120650000D03*
X97856000Y-119380000D03*
X97856000Y-118110000D03*
X97856000Y-116840000D03*
X97856000Y-115570000D03*
X97856000Y-114300000D03*
X97856000Y-113030000D03*
X97856000Y-111760000D03*
X97856000Y-110490000D03*
X97856000Y-109220000D03*
X97856000Y-107950000D03*
X97856000Y-106680000D03*
X97856000Y-105410000D03*
X97856000Y-104140000D03*
X85024000Y-104140000D03*
X85024000Y-105410000D03*
X85024000Y-106680000D03*
X85024000Y-107950000D03*
X85024000Y-109220000D03*
X85024000Y-110490000D03*
X85024000Y-111760000D03*
X85024000Y-113030000D03*
X85024000Y-114300000D03*
X85024000Y-115570000D03*
X85024000Y-116840000D03*
X85024000Y-118110000D03*
X85024000Y-119380000D03*
X85024000Y-120650000D03*
X85024000Y-121920000D03*
X85024000Y-123190000D03*
%TD*%
D13*
%TO.C,C43*%
X133588125Y-110433750D03*
X133588125Y-112133750D03*
%TD*%
D19*
%TO.C,C65*%
X145410000Y-133350000D03*
X143510000Y-133350000D03*
%TD*%
D12*
%TO.C,C31*%
X222564106Y-115570000D03*
X224264106Y-115570000D03*
%TD*%
%TO.C,C30*%
X80304375Y-120015000D03*
X78604375Y-120015000D03*
%TD*%
D20*
%TO.C,U$16*%
X145655000Y-129540000D03*
X145655000Y-128270000D03*
X145655000Y-127000000D03*
X145655000Y-125730000D03*
X140095000Y-125730000D03*
X140095000Y-127000000D03*
X140095000Y-128270000D03*
X140095000Y-129540000D03*
D21*
X142875000Y-127635000D03*
%TD*%
D12*
%TO.C,C35*%
X240774106Y-61595000D03*
X239074106Y-61595000D03*
%TD*%
D13*
%TO.C,C10*%
X130810000Y-110433750D03*
X130810000Y-112133750D03*
%TD*%
D19*
%TO.C,C66*%
X137795000Y-133350000D03*
X139695000Y-133350000D03*
%TD*%
D22*
%TO.C,IC8*%
X128001606Y-67000000D03*
X128501606Y-67000000D03*
X129001606Y-67000000D03*
X129501606Y-67000000D03*
X130001606Y-67000000D03*
X130501606Y-67000000D03*
X131001606Y-67000000D03*
X131501606Y-67000000D03*
D23*
X133251606Y-65250000D03*
X133251606Y-64750000D03*
X133251606Y-64250000D03*
X133251606Y-63750000D03*
X133251606Y-63250000D03*
X133251606Y-62750000D03*
X133251606Y-62250000D03*
X133251606Y-61750000D03*
D22*
X131501606Y-60000000D03*
X131001606Y-60000000D03*
X130501606Y-60000000D03*
X130001606Y-60000000D03*
X129501606Y-60000000D03*
X129001606Y-60000000D03*
X128501606Y-60000000D03*
X128001606Y-60000000D03*
D23*
X126251606Y-61750000D03*
X126251606Y-62250000D03*
X126251606Y-62750000D03*
X126251606Y-63250000D03*
X126251606Y-63750000D03*
X126251606Y-64250000D03*
X126251606Y-64750000D03*
X126251606Y-65250000D03*
%TD*%
D24*
%TO.C,CN4*%
X237904806Y-44767500D03*
X233942406Y-44767500D03*
X229980006Y-44767500D03*
X226017606Y-44767500D03*
X222055206Y-44767500D03*
X218092806Y-44767500D03*
X214130406Y-44767500D03*
X210168006Y-44767500D03*
X206205606Y-44767500D03*
X202243206Y-44767500D03*
X198280806Y-44767500D03*
X194318406Y-44767500D03*
%TD*%
D12*
%TO.C,C4*%
X127746531Y-122062078D03*
X129446531Y-122062078D03*
%TD*%
D25*
%TO.C,U1*%
X158510000Y-129565000D03*
X156210000Y-129565000D03*
X153910000Y-129565000D03*
D26*
X156210000Y-135865000D03*
%TD*%
D12*
%TO.C,C44*%
X127737500Y-124142500D03*
X129437500Y-124142500D03*
%TD*%
%TO.C,C20*%
X225104106Y-89693750D03*
X226804106Y-89693750D03*
%TD*%
%TO.C,C34*%
X203150356Y-114776250D03*
X201450356Y-114776250D03*
%TD*%
%TO.C,C40*%
X112709106Y-57308750D03*
X114409106Y-57308750D03*
%TD*%
D27*
%TO.C,U$2*%
X125590000Y-97438125D03*
X125090000Y-97438125D03*
X124590000Y-97438125D03*
X124090000Y-97438125D03*
X123590000Y-97438125D03*
X123090000Y-97438125D03*
X122590000Y-97438125D03*
X122090000Y-97438125D03*
X121590000Y-97438125D03*
X121090000Y-97438125D03*
X120590000Y-97438125D03*
X120090000Y-97438125D03*
X119590000Y-97438125D03*
X119090000Y-97438125D03*
X118590000Y-97438125D03*
X118090000Y-97438125D03*
X117590000Y-97438125D03*
X117090000Y-97438125D03*
X116590000Y-97438125D03*
X116090000Y-97438125D03*
X115590000Y-97438125D03*
X115090000Y-97438125D03*
X114590000Y-97438125D03*
X114090000Y-97438125D03*
X113590000Y-97438125D03*
X113090000Y-97438125D03*
X112590000Y-97438125D03*
X112090000Y-97438125D03*
X111590000Y-97438125D03*
X111090000Y-97438125D03*
X110590000Y-97438125D03*
X110090000Y-97438125D03*
X109590000Y-97438125D03*
X109090000Y-97438125D03*
X108590000Y-97438125D03*
X108090000Y-97438125D03*
D28*
X106090000Y-99438125D03*
X106090000Y-99938125D03*
X106090000Y-100438125D03*
X106090000Y-100938125D03*
X106090000Y-101438125D03*
X106090000Y-101938125D03*
X106090000Y-102438125D03*
X106090000Y-102938125D03*
X106090000Y-103438125D03*
X106090000Y-103938125D03*
X106090000Y-104438125D03*
X106090000Y-104938125D03*
X106090000Y-105438125D03*
X106090000Y-105938125D03*
X106090000Y-106438125D03*
X106090000Y-106938125D03*
X106090000Y-107438125D03*
X106090000Y-107938125D03*
X106090000Y-108438125D03*
X106090000Y-108938125D03*
X106090000Y-109438125D03*
X106090000Y-109938125D03*
X106090000Y-110438125D03*
X106090000Y-110938125D03*
X106090000Y-111438125D03*
X106090000Y-111938125D03*
X106090000Y-112438125D03*
X106090000Y-112938125D03*
X106090000Y-113438125D03*
X106090000Y-113938125D03*
X106090000Y-114438125D03*
X106090000Y-114938125D03*
X106090000Y-115438125D03*
X106090000Y-115938125D03*
X106090000Y-116438125D03*
X106090000Y-116938125D03*
D27*
X108090000Y-118938125D03*
X108590000Y-118938125D03*
X109090000Y-118938125D03*
X109590000Y-118938125D03*
X110090000Y-118938125D03*
X110590000Y-118938125D03*
X111090000Y-118938125D03*
X111590000Y-118938125D03*
X112090000Y-118938125D03*
X112590000Y-118938125D03*
X113090000Y-118938125D03*
X113590000Y-118938125D03*
X114090000Y-118938125D03*
X114590000Y-118938125D03*
X115090000Y-118938125D03*
X115590000Y-118938125D03*
X116090000Y-118938125D03*
X116590000Y-118938125D03*
X117090000Y-118938125D03*
X117590000Y-118938125D03*
X118090000Y-118938125D03*
X118590000Y-118938125D03*
X119090000Y-118938125D03*
X119590000Y-118938125D03*
X120090000Y-118938125D03*
X120590000Y-118938125D03*
X121090000Y-118938125D03*
X121590000Y-118938125D03*
X122090000Y-118938125D03*
X122590000Y-118938125D03*
X123090000Y-118938125D03*
X123590000Y-118938125D03*
X124090000Y-118938125D03*
X124590000Y-118938125D03*
X125090000Y-118938125D03*
X125590000Y-118938125D03*
D28*
X127590000Y-116938125D03*
X127590000Y-116438125D03*
X127590000Y-115938125D03*
X127590000Y-115438125D03*
X127590000Y-114938125D03*
X127590000Y-114438125D03*
X127590000Y-113938125D03*
X127590000Y-113438125D03*
X127590000Y-112938125D03*
X127590000Y-112438125D03*
X127590000Y-111938125D03*
X127590000Y-111438125D03*
X127590000Y-110938125D03*
X127590000Y-110438125D03*
X127590000Y-109938125D03*
X127590000Y-109438125D03*
X127590000Y-108938125D03*
X127590000Y-108438125D03*
X127590000Y-107938125D03*
X127590000Y-107438125D03*
X127590000Y-106938125D03*
X127590000Y-106438125D03*
X127590000Y-105938125D03*
X127590000Y-105438125D03*
X127590000Y-104938125D03*
X127590000Y-104438125D03*
X127590000Y-103938125D03*
X127590000Y-103438125D03*
X127590000Y-102938125D03*
X127590000Y-102438125D03*
X127590000Y-101938125D03*
X127590000Y-101438125D03*
X127590000Y-100938125D03*
X127590000Y-100438125D03*
X127590000Y-99938125D03*
X127590000Y-99438125D03*
%TD*%
D13*
%TO.C,C32*%
X151817856Y-66096250D03*
X151817856Y-64396250D03*
%TD*%
%TO.C,C16*%
X79375000Y-92075000D03*
X79375000Y-93775000D03*
%TD*%
D18*
%TO.C,IC1*%
X97856000Y-94615000D03*
X97856000Y-93345000D03*
X97856000Y-92075000D03*
X97856000Y-90805000D03*
X97856000Y-89535000D03*
X97856000Y-88265000D03*
X97856000Y-86995000D03*
X97856000Y-85725000D03*
X97856000Y-84455000D03*
X97856000Y-83185000D03*
X97856000Y-81915000D03*
X97856000Y-80645000D03*
X97856000Y-79375000D03*
X97856000Y-78105000D03*
X97856000Y-76835000D03*
X97856000Y-75565000D03*
X85024000Y-75565000D03*
X85024000Y-76835000D03*
X85024000Y-78105000D03*
X85024000Y-79375000D03*
X85024000Y-80645000D03*
X85024000Y-81915000D03*
X85024000Y-83185000D03*
X85024000Y-84455000D03*
X85024000Y-85725000D03*
X85024000Y-86995000D03*
X85024000Y-88265000D03*
X85024000Y-89535000D03*
X85024000Y-90805000D03*
X85024000Y-92075000D03*
X85024000Y-93345000D03*
X85024000Y-94615000D03*
%TD*%
D13*
%TO.C,C27*%
X76200000Y-99480000D03*
X76200000Y-101180000D03*
%TD*%
D12*
%TO.C,C21*%
X136564000Y-63182500D03*
X138264000Y-63182500D03*
%TD*%
%TO.C,C14*%
X85430625Y-70802500D03*
X87130625Y-70802500D03*
%TD*%
D13*
%TO.C,C11*%
X100965000Y-129755000D03*
X100965000Y-128055000D03*
%TD*%
%TO.C,C71*%
X150266553Y-111384653D03*
X150266553Y-113084653D03*
%TD*%
%TO.C,C24*%
X237780981Y-84273125D03*
X237780981Y-82573125D03*
%TD*%
%TO.C,C13*%
X129540000Y-136740000D03*
X129540000Y-135040000D03*
%TD*%
D29*
%TO.C,CN3*%
X257942231Y-112855375D03*
X257942231Y-108892975D03*
X257942231Y-104930575D03*
X257942231Y-100968175D03*
X257942231Y-97005775D03*
X257942231Y-93043375D03*
%TD*%
D30*
%TO.C,U2*%
X135451574Y-106376938D03*
X135451574Y-107326938D03*
X135451574Y-108276938D03*
X137726574Y-108276938D03*
X137726574Y-106376938D03*
%TD*%
D12*
%TO.C,C25*%
X85589375Y-125730000D03*
X87289375Y-125730000D03*
%TD*%
%TO.C,C41*%
X102655000Y-96330335D03*
X104355000Y-96330335D03*
%TD*%
%TO.C,C2*%
X102655000Y-98425000D03*
X104355000Y-98425000D03*
%TD*%
%TO.C,C1*%
X140032000Y-75723200D03*
X141732000Y-75723200D03*
%TD*%
M02*
