%TF.GenerationSoftware,KiCad,Pcbnew,8.0.2*%
%TF.CreationDate,2024-05-25T17:16:43+02:00*%
%TF.ProjectId,micropet_v3,6d696372-6f70-4657-945f-76332e6b6963,rev?*%
%TF.SameCoordinates,Original*%
%TF.FileFunction,Paste,Bot*%
%TF.FilePolarity,Positive*%
%FSLAX46Y46*%
G04 Gerber Fmt 4.6, Leading zero omitted, Abs format (unit mm)*
G04 Created by KiCad (PCBNEW 8.0.2) date 2024-05-25 17:16:43*
%MOMM*%
%LPD*%
G01*
G04 APERTURE LIST*
G04 Aperture macros list*
%AMRoundRect*
0 Rectangle with rounded corners*
0 $1 Rounding radius*
0 $2 $3 $4 $5 $6 $7 $8 $9 X,Y pos of 4 corners*
0 Add a 4 corners polygon primitive as box body*
4,1,4,$2,$3,$4,$5,$6,$7,$8,$9,$2,$3,0*
0 Add four circle primitives for the rounded corners*
1,1,$1+$1,$2,$3*
1,1,$1+$1,$4,$5*
1,1,$1+$1,$6,$7*
1,1,$1+$1,$8,$9*
0 Add four rect primitives between the rounded corners*
20,1,$1+$1,$2,$3,$4,$5,0*
20,1,$1+$1,$4,$5,$6,$7,0*
20,1,$1+$1,$6,$7,$8,$9,0*
20,1,$1+$1,$8,$9,$2,$3,0*%
G04 Aperture macros list end*
%ADD10RoundRect,0.358140X0.835660X4.721860X-0.835660X4.721860X-0.835660X-4.721860X0.835660X-4.721860X0*%
%ADD11RoundRect,0.358140X4.721860X-0.835660X4.721860X0.835660X-4.721860X0.835660X-4.721860X-0.835660X0*%
%ADD12R,1.100000X1.000000*%
%ADD13R,1.000000X1.100000*%
G04 APERTURE END LIST*
D10*
%TO.C,CN4*%
X237904806Y-44767500D03*
X233942406Y-44767500D03*
X229980006Y-44767500D03*
X226017606Y-44767500D03*
X222055206Y-44767500D03*
X218092806Y-44767500D03*
X214130406Y-44767500D03*
X210168006Y-44767500D03*
X206205606Y-44767500D03*
X202243206Y-44767500D03*
X198280806Y-44767500D03*
X194318406Y-44767500D03*
%TD*%
D11*
%TO.C,CN3*%
X257942231Y-112855375D03*
X257942231Y-108892975D03*
X257942231Y-104930575D03*
X257942231Y-100968175D03*
X257942231Y-97005775D03*
X257942231Y-93043375D03*
%TD*%
D12*
%TO.C,C55*%
X110705000Y-104140000D03*
X109005000Y-104140000D03*
%TD*%
%TO.C,C57*%
X110705000Y-111760000D03*
X109005000Y-111760000D03*
%TD*%
D13*
%TO.C,C61*%
X114935000Y-102450000D03*
X114935000Y-100750000D03*
%TD*%
%TO.C,C53*%
X120650000Y-102450000D03*
X120650000Y-100750000D03*
%TD*%
D12*
%TO.C,C62*%
X121285000Y-106680000D03*
X119585000Y-106680000D03*
%TD*%
D13*
%TO.C,C69*%
X116840000Y-111975000D03*
X116840000Y-110275000D03*
%TD*%
%TO.C,C64*%
X117475000Y-104560000D03*
X117475000Y-106260000D03*
%TD*%
D12*
%TO.C,C68*%
X112600000Y-109220000D03*
X114300000Y-109220000D03*
%TD*%
D13*
%TO.C,C47*%
X111760000Y-114085000D03*
X111760000Y-115785000D03*
%TD*%
%TO.C,C46*%
X121285000Y-114085000D03*
X121285000Y-115785000D03*
%TD*%
%TO.C,C54*%
X117633200Y-102450000D03*
X117633200Y-100750000D03*
%TD*%
%TO.C,C45*%
X114935000Y-114085000D03*
X114935000Y-115785000D03*
%TD*%
D12*
%TO.C,C63*%
X121285000Y-109220000D03*
X119585000Y-109220000D03*
%TD*%
%TO.C,C58*%
X122975000Y-110966800D03*
X124675000Y-110966800D03*
%TD*%
%TO.C,C56*%
X110705000Y-109220000D03*
X109005000Y-109220000D03*
%TD*%
D13*
%TO.C,C48*%
X118110000Y-114085000D03*
X118110000Y-115785000D03*
%TD*%
D12*
%TO.C,C67*%
X112600000Y-106680000D03*
X114300000Y-106680000D03*
%TD*%
%TO.C,C60*%
X122975000Y-104933200D03*
X124675000Y-104933200D03*
%TD*%
%TO.C,C59*%
X122975000Y-107950000D03*
X124675000Y-107950000D03*
%TD*%
M02*
