%TF.GenerationSoftware,KiCad,Pcbnew,8.0.2*%
%TF.CreationDate,2024-05-25T17:16:43+02:00*%
%TF.ProjectId,micropet_v3,6d696372-6f70-4657-945f-76332e6b6963,rev?*%
%TF.SameCoordinates,Original*%
%TF.FileFunction,Legend,Bot*%
%TF.FilePolarity,Positive*%
%FSLAX46Y46*%
G04 Gerber Fmt 4.6, Leading zero omitted, Abs format (unit mm)*
G04 Created by KiCad (PCBNEW 8.0.2) date 2024-05-25 17:16:43*
%MOMM*%
%LPD*%
G01*
G04 APERTURE LIST*
G04 Aperture macros list*
%AMRoundRect*
0 Rectangle with rounded corners*
0 $1 Rounding radius*
0 $2 $3 $4 $5 $6 $7 $8 $9 X,Y pos of 4 corners*
0 Add a 4 corners polygon primitive as box body*
4,1,4,$2,$3,$4,$5,$6,$7,$8,$9,$2,$3,0*
0 Add four circle primitives for the rounded corners*
1,1,$1+$1,$2,$3*
1,1,$1+$1,$4,$5*
1,1,$1+$1,$6,$7*
1,1,$1+$1,$8,$9*
0 Add four rect primitives between the rounded corners*
20,1,$1+$1,$2,$3,$4,$5,0*
20,1,$1+$1,$4,$5,$6,$7,0*
20,1,$1+$1,$6,$7,$8,$9,0*
20,1,$1+$1,$8,$9,$2,$3,0*%
%AMFreePoly0*
4,1,25,0.333266,0.742596,0.345389,0.732242,0.732242,0.345389,0.760749,0.289441,0.762000,0.273547,0.762000,-0.273547,0.742596,-0.333266,0.732242,-0.345389,0.345389,-0.732242,0.289441,-0.760749,0.273547,-0.762000,-0.273547,-0.762000,-0.333266,-0.742596,-0.345389,-0.732242,-0.732242,-0.345389,-0.760749,-0.289441,-0.762000,-0.273547,-0.762000,0.273547,-0.742596,0.333266,-0.732242,0.345389,
-0.345389,0.732242,-0.289441,0.760749,-0.273547,0.762000,0.273547,0.762000,0.333266,0.742596,0.333266,0.742596,$1*%
%AMFreePoly1*
4,1,25,0.391131,0.882296,0.403254,0.871942,0.871942,0.403254,0.900449,0.347306,0.901700,0.331412,0.901700,-0.331412,0.882296,-0.391131,0.871942,-0.403254,0.403254,-0.871942,0.347306,-0.900449,0.331412,-0.901700,-0.331412,-0.901700,-0.391131,-0.882296,-0.403254,-0.871942,-0.871942,-0.403254,-0.900449,-0.347306,-0.901700,-0.331412,-0.901700,0.331412,-0.882296,0.391131,-0.871942,0.403254,
-0.403254,0.871942,-0.347306,0.900449,-0.331412,0.901700,0.331412,0.901700,0.391131,0.882296,0.391131,0.882296,$1*%
%AMFreePoly2*
4,1,25,0.349047,0.780696,0.361170,0.770342,0.770342,0.361170,0.798849,0.305222,0.800100,0.289328,0.800100,-0.289328,0.780696,-0.349047,0.770342,-0.361170,0.361170,-0.770342,0.305222,-0.798849,0.289328,-0.800100,-0.289328,-0.800100,-0.349047,-0.780696,-0.361170,-0.770342,-0.770342,-0.361170,-0.798849,-0.305222,-0.800100,-0.289328,-0.800100,0.289328,-0.780696,0.349047,-0.770342,0.361170,
-0.361170,0.770342,-0.305222,0.798849,-0.289328,0.800100,0.289328,0.800100,0.349047,0.780696,0.349047,0.780696,$1*%
%AMFreePoly3*
4,1,25,0.354308,0.793396,0.366431,0.783042,0.783042,0.366431,0.811549,0.310483,0.812800,0.294589,0.812800,-0.294589,0.793396,-0.354308,0.783042,-0.366431,0.366431,-0.783042,0.310483,-0.811549,0.294589,-0.812800,-0.294589,-0.812800,-0.354308,-0.793396,-0.366431,-0.783042,-0.783042,-0.366431,-0.811549,-0.310483,-0.812800,-0.294589,-0.812800,0.294589,-0.793396,0.354308,-0.783042,0.366431,
-0.366431,0.783042,-0.310483,0.811549,-0.294589,0.812800,0.294589,0.812800,0.354308,0.793396,0.354308,0.793396,$1*%
%AMFreePoly4*
4,1,25,0.454257,1.034696,0.466380,1.024342,1.024342,0.466380,1.052849,0.410432,1.054100,0.394538,1.054100,-0.394538,1.034696,-0.454257,1.024342,-0.466380,0.466380,-1.024342,0.410432,-1.052849,0.394538,-1.054100,-0.394538,-1.054100,-0.454257,-1.034696,-0.466380,-1.024342,-1.024342,-0.466380,-1.052849,-0.410432,-1.054100,-0.394538,-1.054100,0.394538,-1.034696,0.454257,-1.024342,0.466380,
-0.466380,1.024342,-0.410432,1.052849,-0.394538,1.054100,0.394538,1.054100,0.454257,1.034696,0.454257,1.034696,$1*%
%AMFreePoly5*
4,1,25,0.375350,0.844196,0.387473,0.833842,0.833842,0.387473,0.862349,0.331525,0.863600,0.315631,0.863600,-0.315631,0.844196,-0.375350,0.833842,-0.387473,0.387473,-0.833842,0.331525,-0.862349,0.315631,-0.863600,-0.315631,-0.863600,-0.375350,-0.844196,-0.387473,-0.833842,-0.833842,-0.387473,-0.862349,-0.331525,-0.863600,-0.315631,-0.863600,0.315631,-0.844196,0.375350,-0.833842,0.387473,
-0.387473,0.833842,-0.331525,0.862349,-0.315631,0.863600,0.315631,0.863600,0.375350,0.844196,0.375350,0.844196,$1*%
%AMFreePoly6*
4,1,25,0.585770,1.352196,0.597893,1.341842,1.341842,0.597893,1.370349,0.541945,1.371600,0.526051,1.371600,-0.526051,1.352196,-0.585770,1.341842,-0.597893,0.597893,-1.341842,0.541945,-1.370349,0.526051,-1.371600,-0.526051,-1.371600,-0.585770,-1.352196,-0.597893,-1.341842,-1.341842,-0.597893,-1.370349,-0.541945,-1.371600,-0.526051,-1.371600,0.526051,-1.352196,0.585770,-1.341842,0.597893,
-0.597893,1.341842,-0.541945,1.370349,-0.526051,1.371600,0.526051,1.371600,0.585770,1.352196,0.585770,1.352196,$1*%
G04 Aperture macros list end*
%ADD10C,0.101600*%
%ADD11C,0.203200*%
%ADD12C,0.127000*%
%ADD13C,3.200000*%
%ADD14FreePoly0,90.000000*%
%ADD15FreePoly0,0.000000*%
%ADD16FreePoly0,270.000000*%
%ADD17C,1.803400*%
%ADD18FreePoly1,0.000000*%
%ADD19FreePoly1,90.000000*%
%ADD20O,2.844800X1.524000*%
%ADD21FreePoly0,180.000000*%
%ADD22O,3.048000X1.625600*%
%ADD23C,1.524000*%
%ADD24C,1.600200*%
%ADD25FreePoly2,270.000000*%
%ADD26C,1.625600*%
%ADD27C,3.530600*%
%ADD28O,1.524000X2.844800*%
%ADD29FreePoly3,180.000000*%
%ADD30O,1.625600X3.048000*%
%ADD31FreePoly1,270.000000*%
%ADD32C,2.108200*%
%ADD33FreePoly4,270.000000*%
%ADD34C,2.082800*%
%ADD35R,1.700000X1.700000*%
%ADD36O,1.700000X1.700000*%
%ADD37C,3.048000*%
%ADD38C,1.727200*%
%ADD39RoundRect,0.388620X0.906780X4.792980X-0.906780X4.792980X-0.906780X-4.792980X0.906780X-4.792980X0*%
%ADD40FreePoly2,90.000000*%
%ADD41FreePoly5,180.000000*%
%ADD42C,2.362200*%
%ADD43FreePoly3,270.000000*%
%ADD44O,2.203200X4.203200*%
%ADD45O,4.203200X2.203200*%
%ADD46RoundRect,0.388620X4.792980X-0.906780X4.792980X0.906780X-4.792980X0.906780X-4.792980X-0.906780X0*%
%ADD47O,2.603200X1.403200*%
%ADD48O,1.403200X2.603200*%
%ADD49C,2.743200*%
%ADD50FreePoly6,270.000000*%
%ADD51FreePoly2,0.000000*%
%ADD52RoundRect,0.101600X0.550000X0.500000X-0.550000X0.500000X-0.550000X-0.500000X0.550000X-0.500000X0*%
%ADD53RoundRect,0.101600X0.500000X-0.550000X0.500000X0.550000X-0.500000X0.550000X-0.500000X-0.550000X0*%
%ADD54RoundRect,0.101600X-0.500000X0.550000X-0.500000X-0.550000X0.500000X-0.550000X0.500000X0.550000X0*%
%ADD55RoundRect,0.101600X-0.550000X-0.500000X0.550000X-0.500000X0.550000X0.500000X-0.550000X0.500000X0*%
G04 APERTURE END LIST*
D10*
X238182996Y-50000397D02*
X237626615Y-50000397D01*
X238294272Y-50334226D02*
X237904806Y-49165826D01*
X237904806Y-49165826D02*
X237515339Y-50334226D01*
X194652234Y-50334226D02*
X194652234Y-49165826D01*
X194652234Y-49165826D02*
X193984577Y-50334226D01*
X193984577Y-50334226D02*
X193984577Y-49165826D01*
X251745128Y-112577184D02*
X251745128Y-113133565D01*
X252078957Y-112465908D02*
X250910557Y-112855374D01*
X250910557Y-112855374D02*
X252078957Y-113244841D01*
X251466938Y-93210289D02*
X251466938Y-92820822D01*
X252078957Y-92820822D02*
X250910557Y-92820822D01*
X250910557Y-92820822D02*
X250910557Y-93377203D01*
X109477310Y-103245449D02*
X109532948Y-103301088D01*
X109532948Y-103301088D02*
X109699862Y-103356726D01*
X109699862Y-103356726D02*
X109811138Y-103356726D01*
X109811138Y-103356726D02*
X109978053Y-103301088D01*
X109978053Y-103301088D02*
X110089329Y-103189811D01*
X110089329Y-103189811D02*
X110144967Y-103078535D01*
X110144967Y-103078535D02*
X110200605Y-102855983D01*
X110200605Y-102855983D02*
X110200605Y-102689068D01*
X110200605Y-102689068D02*
X110144967Y-102466516D01*
X110144967Y-102466516D02*
X110089329Y-102355240D01*
X110089329Y-102355240D02*
X109978053Y-102243964D01*
X109978053Y-102243964D02*
X109811138Y-102188326D01*
X109811138Y-102188326D02*
X109699862Y-102188326D01*
X109699862Y-102188326D02*
X109532948Y-102243964D01*
X109532948Y-102243964D02*
X109477310Y-102299602D01*
X108420186Y-102188326D02*
X108976567Y-102188326D01*
X108976567Y-102188326D02*
X109032205Y-102744707D01*
X109032205Y-102744707D02*
X108976567Y-102689068D01*
X108976567Y-102689068D02*
X108865291Y-102633430D01*
X108865291Y-102633430D02*
X108587100Y-102633430D01*
X108587100Y-102633430D02*
X108475824Y-102689068D01*
X108475824Y-102689068D02*
X108420186Y-102744707D01*
X108420186Y-102744707D02*
X108364548Y-102855983D01*
X108364548Y-102855983D02*
X108364548Y-103134173D01*
X108364548Y-103134173D02*
X108420186Y-103245449D01*
X108420186Y-103245449D02*
X108475824Y-103301088D01*
X108475824Y-103301088D02*
X108587100Y-103356726D01*
X108587100Y-103356726D02*
X108865291Y-103356726D01*
X108865291Y-103356726D02*
X108976567Y-103301088D01*
X108976567Y-103301088D02*
X109032205Y-103245449D01*
X107307424Y-102188326D02*
X107863805Y-102188326D01*
X107863805Y-102188326D02*
X107919443Y-102744707D01*
X107919443Y-102744707D02*
X107863805Y-102689068D01*
X107863805Y-102689068D02*
X107752529Y-102633430D01*
X107752529Y-102633430D02*
X107474338Y-102633430D01*
X107474338Y-102633430D02*
X107363062Y-102689068D01*
X107363062Y-102689068D02*
X107307424Y-102744707D01*
X107307424Y-102744707D02*
X107251786Y-102855983D01*
X107251786Y-102855983D02*
X107251786Y-103134173D01*
X107251786Y-103134173D02*
X107307424Y-103245449D01*
X107307424Y-103245449D02*
X107363062Y-103301088D01*
X107363062Y-103301088D02*
X107474338Y-103356726D01*
X107474338Y-103356726D02*
X107752529Y-103356726D01*
X107752529Y-103356726D02*
X107863805Y-103301088D01*
X107863805Y-103301088D02*
X107919443Y-103245449D01*
X109477310Y-110865449D02*
X109532948Y-110921088D01*
X109532948Y-110921088D02*
X109699862Y-110976726D01*
X109699862Y-110976726D02*
X109811138Y-110976726D01*
X109811138Y-110976726D02*
X109978053Y-110921088D01*
X109978053Y-110921088D02*
X110089329Y-110809811D01*
X110089329Y-110809811D02*
X110144967Y-110698535D01*
X110144967Y-110698535D02*
X110200605Y-110475983D01*
X110200605Y-110475983D02*
X110200605Y-110309068D01*
X110200605Y-110309068D02*
X110144967Y-110086516D01*
X110144967Y-110086516D02*
X110089329Y-109975240D01*
X110089329Y-109975240D02*
X109978053Y-109863964D01*
X109978053Y-109863964D02*
X109811138Y-109808326D01*
X109811138Y-109808326D02*
X109699862Y-109808326D01*
X109699862Y-109808326D02*
X109532948Y-109863964D01*
X109532948Y-109863964D02*
X109477310Y-109919602D01*
X108420186Y-109808326D02*
X108976567Y-109808326D01*
X108976567Y-109808326D02*
X109032205Y-110364707D01*
X109032205Y-110364707D02*
X108976567Y-110309068D01*
X108976567Y-110309068D02*
X108865291Y-110253430D01*
X108865291Y-110253430D02*
X108587100Y-110253430D01*
X108587100Y-110253430D02*
X108475824Y-110309068D01*
X108475824Y-110309068D02*
X108420186Y-110364707D01*
X108420186Y-110364707D02*
X108364548Y-110475983D01*
X108364548Y-110475983D02*
X108364548Y-110754173D01*
X108364548Y-110754173D02*
X108420186Y-110865449D01*
X108420186Y-110865449D02*
X108475824Y-110921088D01*
X108475824Y-110921088D02*
X108587100Y-110976726D01*
X108587100Y-110976726D02*
X108865291Y-110976726D01*
X108865291Y-110976726D02*
X108976567Y-110921088D01*
X108976567Y-110921088D02*
X109032205Y-110865449D01*
X107975081Y-109808326D02*
X107196148Y-109808326D01*
X107196148Y-109808326D02*
X107696891Y-110976726D01*
X115310449Y-99720081D02*
X115366088Y-99664443D01*
X115366088Y-99664443D02*
X115421726Y-99497529D01*
X115421726Y-99497529D02*
X115421726Y-99386253D01*
X115421726Y-99386253D02*
X115366088Y-99219338D01*
X115366088Y-99219338D02*
X115254811Y-99108062D01*
X115254811Y-99108062D02*
X115143535Y-99052424D01*
X115143535Y-99052424D02*
X114920983Y-98996786D01*
X114920983Y-98996786D02*
X114754068Y-98996786D01*
X114754068Y-98996786D02*
X114531516Y-99052424D01*
X114531516Y-99052424D02*
X114420240Y-99108062D01*
X114420240Y-99108062D02*
X114308964Y-99219338D01*
X114308964Y-99219338D02*
X114253326Y-99386253D01*
X114253326Y-99386253D02*
X114253326Y-99497529D01*
X114253326Y-99497529D02*
X114308964Y-99664443D01*
X114308964Y-99664443D02*
X114364602Y-99720081D01*
X114253326Y-100721567D02*
X114253326Y-100499014D01*
X114253326Y-100499014D02*
X114308964Y-100387738D01*
X114308964Y-100387738D02*
X114364602Y-100332100D01*
X114364602Y-100332100D02*
X114531516Y-100220824D01*
X114531516Y-100220824D02*
X114754068Y-100165186D01*
X114754068Y-100165186D02*
X115199173Y-100165186D01*
X115199173Y-100165186D02*
X115310449Y-100220824D01*
X115310449Y-100220824D02*
X115366088Y-100276462D01*
X115366088Y-100276462D02*
X115421726Y-100387738D01*
X115421726Y-100387738D02*
X115421726Y-100610291D01*
X115421726Y-100610291D02*
X115366088Y-100721567D01*
X115366088Y-100721567D02*
X115310449Y-100777205D01*
X115310449Y-100777205D02*
X115199173Y-100832843D01*
X115199173Y-100832843D02*
X114920983Y-100832843D01*
X114920983Y-100832843D02*
X114809707Y-100777205D01*
X114809707Y-100777205D02*
X114754068Y-100721567D01*
X114754068Y-100721567D02*
X114698430Y-100610291D01*
X114698430Y-100610291D02*
X114698430Y-100387738D01*
X114698430Y-100387738D02*
X114754068Y-100276462D01*
X114754068Y-100276462D02*
X114809707Y-100220824D01*
X114809707Y-100220824D02*
X114920983Y-100165186D01*
X115421726Y-101945605D02*
X115421726Y-101277948D01*
X115421726Y-101611776D02*
X114253326Y-101611776D01*
X114253326Y-101611776D02*
X114420240Y-101500500D01*
X114420240Y-101500500D02*
X114531516Y-101389224D01*
X114531516Y-101389224D02*
X114587154Y-101277948D01*
X121025449Y-99720081D02*
X121081088Y-99664443D01*
X121081088Y-99664443D02*
X121136726Y-99497529D01*
X121136726Y-99497529D02*
X121136726Y-99386253D01*
X121136726Y-99386253D02*
X121081088Y-99219338D01*
X121081088Y-99219338D02*
X120969811Y-99108062D01*
X120969811Y-99108062D02*
X120858535Y-99052424D01*
X120858535Y-99052424D02*
X120635983Y-98996786D01*
X120635983Y-98996786D02*
X120469068Y-98996786D01*
X120469068Y-98996786D02*
X120246516Y-99052424D01*
X120246516Y-99052424D02*
X120135240Y-99108062D01*
X120135240Y-99108062D02*
X120023964Y-99219338D01*
X120023964Y-99219338D02*
X119968326Y-99386253D01*
X119968326Y-99386253D02*
X119968326Y-99497529D01*
X119968326Y-99497529D02*
X120023964Y-99664443D01*
X120023964Y-99664443D02*
X120079602Y-99720081D01*
X119968326Y-100777205D02*
X119968326Y-100220824D01*
X119968326Y-100220824D02*
X120524707Y-100165186D01*
X120524707Y-100165186D02*
X120469068Y-100220824D01*
X120469068Y-100220824D02*
X120413430Y-100332100D01*
X120413430Y-100332100D02*
X120413430Y-100610291D01*
X120413430Y-100610291D02*
X120469068Y-100721567D01*
X120469068Y-100721567D02*
X120524707Y-100777205D01*
X120524707Y-100777205D02*
X120635983Y-100832843D01*
X120635983Y-100832843D02*
X120914173Y-100832843D01*
X120914173Y-100832843D02*
X121025449Y-100777205D01*
X121025449Y-100777205D02*
X121081088Y-100721567D01*
X121081088Y-100721567D02*
X121136726Y-100610291D01*
X121136726Y-100610291D02*
X121136726Y-100332100D01*
X121136726Y-100332100D02*
X121081088Y-100220824D01*
X121081088Y-100220824D02*
X121025449Y-100165186D01*
X119968326Y-101222310D02*
X119968326Y-101945605D01*
X119968326Y-101945605D02*
X120413430Y-101556138D01*
X120413430Y-101556138D02*
X120413430Y-101723053D01*
X120413430Y-101723053D02*
X120469068Y-101834329D01*
X120469068Y-101834329D02*
X120524707Y-101889967D01*
X120524707Y-101889967D02*
X120635983Y-101945605D01*
X120635983Y-101945605D02*
X120914173Y-101945605D01*
X120914173Y-101945605D02*
X121025449Y-101889967D01*
X121025449Y-101889967D02*
X121081088Y-101834329D01*
X121081088Y-101834329D02*
X121136726Y-101723053D01*
X121136726Y-101723053D02*
X121136726Y-101389224D01*
X121136726Y-101389224D02*
X121081088Y-101277948D01*
X121081088Y-101277948D02*
X121025449Y-101222310D01*
X120057310Y-105785449D02*
X120112948Y-105841088D01*
X120112948Y-105841088D02*
X120279862Y-105896726D01*
X120279862Y-105896726D02*
X120391138Y-105896726D01*
X120391138Y-105896726D02*
X120558053Y-105841088D01*
X120558053Y-105841088D02*
X120669329Y-105729811D01*
X120669329Y-105729811D02*
X120724967Y-105618535D01*
X120724967Y-105618535D02*
X120780605Y-105395983D01*
X120780605Y-105395983D02*
X120780605Y-105229068D01*
X120780605Y-105229068D02*
X120724967Y-105006516D01*
X120724967Y-105006516D02*
X120669329Y-104895240D01*
X120669329Y-104895240D02*
X120558053Y-104783964D01*
X120558053Y-104783964D02*
X120391138Y-104728326D01*
X120391138Y-104728326D02*
X120279862Y-104728326D01*
X120279862Y-104728326D02*
X120112948Y-104783964D01*
X120112948Y-104783964D02*
X120057310Y-104839602D01*
X119055824Y-104728326D02*
X119278377Y-104728326D01*
X119278377Y-104728326D02*
X119389653Y-104783964D01*
X119389653Y-104783964D02*
X119445291Y-104839602D01*
X119445291Y-104839602D02*
X119556567Y-105006516D01*
X119556567Y-105006516D02*
X119612205Y-105229068D01*
X119612205Y-105229068D02*
X119612205Y-105674173D01*
X119612205Y-105674173D02*
X119556567Y-105785449D01*
X119556567Y-105785449D02*
X119500929Y-105841088D01*
X119500929Y-105841088D02*
X119389653Y-105896726D01*
X119389653Y-105896726D02*
X119167100Y-105896726D01*
X119167100Y-105896726D02*
X119055824Y-105841088D01*
X119055824Y-105841088D02*
X119000186Y-105785449D01*
X119000186Y-105785449D02*
X118944548Y-105674173D01*
X118944548Y-105674173D02*
X118944548Y-105395983D01*
X118944548Y-105395983D02*
X119000186Y-105284707D01*
X119000186Y-105284707D02*
X119055824Y-105229068D01*
X119055824Y-105229068D02*
X119167100Y-105173430D01*
X119167100Y-105173430D02*
X119389653Y-105173430D01*
X119389653Y-105173430D02*
X119500929Y-105229068D01*
X119500929Y-105229068D02*
X119556567Y-105284707D01*
X119556567Y-105284707D02*
X119612205Y-105395983D01*
X118499443Y-104839602D02*
X118443805Y-104783964D01*
X118443805Y-104783964D02*
X118332529Y-104728326D01*
X118332529Y-104728326D02*
X118054338Y-104728326D01*
X118054338Y-104728326D02*
X117943062Y-104783964D01*
X117943062Y-104783964D02*
X117887424Y-104839602D01*
X117887424Y-104839602D02*
X117831786Y-104950878D01*
X117831786Y-104950878D02*
X117831786Y-105062154D01*
X117831786Y-105062154D02*
X117887424Y-105229068D01*
X117887424Y-105229068D02*
X118555081Y-105896726D01*
X118555081Y-105896726D02*
X117831786Y-105896726D01*
X117215449Y-109245081D02*
X117271088Y-109189443D01*
X117271088Y-109189443D02*
X117326726Y-109022529D01*
X117326726Y-109022529D02*
X117326726Y-108911253D01*
X117326726Y-108911253D02*
X117271088Y-108744338D01*
X117271088Y-108744338D02*
X117159811Y-108633062D01*
X117159811Y-108633062D02*
X117048535Y-108577424D01*
X117048535Y-108577424D02*
X116825983Y-108521786D01*
X116825983Y-108521786D02*
X116659068Y-108521786D01*
X116659068Y-108521786D02*
X116436516Y-108577424D01*
X116436516Y-108577424D02*
X116325240Y-108633062D01*
X116325240Y-108633062D02*
X116213964Y-108744338D01*
X116213964Y-108744338D02*
X116158326Y-108911253D01*
X116158326Y-108911253D02*
X116158326Y-109022529D01*
X116158326Y-109022529D02*
X116213964Y-109189443D01*
X116213964Y-109189443D02*
X116269602Y-109245081D01*
X116158326Y-110246567D02*
X116158326Y-110024014D01*
X116158326Y-110024014D02*
X116213964Y-109912738D01*
X116213964Y-109912738D02*
X116269602Y-109857100D01*
X116269602Y-109857100D02*
X116436516Y-109745824D01*
X116436516Y-109745824D02*
X116659068Y-109690186D01*
X116659068Y-109690186D02*
X117104173Y-109690186D01*
X117104173Y-109690186D02*
X117215449Y-109745824D01*
X117215449Y-109745824D02*
X117271088Y-109801462D01*
X117271088Y-109801462D02*
X117326726Y-109912738D01*
X117326726Y-109912738D02*
X117326726Y-110135291D01*
X117326726Y-110135291D02*
X117271088Y-110246567D01*
X117271088Y-110246567D02*
X117215449Y-110302205D01*
X117215449Y-110302205D02*
X117104173Y-110357843D01*
X117104173Y-110357843D02*
X116825983Y-110357843D01*
X116825983Y-110357843D02*
X116714707Y-110302205D01*
X116714707Y-110302205D02*
X116659068Y-110246567D01*
X116659068Y-110246567D02*
X116603430Y-110135291D01*
X116603430Y-110135291D02*
X116603430Y-109912738D01*
X116603430Y-109912738D02*
X116659068Y-109801462D01*
X116659068Y-109801462D02*
X116714707Y-109745824D01*
X116714707Y-109745824D02*
X116825983Y-109690186D01*
X117326726Y-110914224D02*
X117326726Y-111136776D01*
X117326726Y-111136776D02*
X117271088Y-111248053D01*
X117271088Y-111248053D02*
X117215449Y-111303691D01*
X117215449Y-111303691D02*
X117048535Y-111414967D01*
X117048535Y-111414967D02*
X116825983Y-111470605D01*
X116825983Y-111470605D02*
X116380878Y-111470605D01*
X116380878Y-111470605D02*
X116269602Y-111414967D01*
X116269602Y-111414967D02*
X116213964Y-111359329D01*
X116213964Y-111359329D02*
X116158326Y-111248053D01*
X116158326Y-111248053D02*
X116158326Y-111025500D01*
X116158326Y-111025500D02*
X116213964Y-110914224D01*
X116213964Y-110914224D02*
X116269602Y-110858586D01*
X116269602Y-110858586D02*
X116380878Y-110802948D01*
X116380878Y-110802948D02*
X116659068Y-110802948D01*
X116659068Y-110802948D02*
X116770345Y-110858586D01*
X116770345Y-110858586D02*
X116825983Y-110914224D01*
X116825983Y-110914224D02*
X116881621Y-111025500D01*
X116881621Y-111025500D02*
X116881621Y-111248053D01*
X116881621Y-111248053D02*
X116825983Y-111359329D01*
X116825983Y-111359329D02*
X116770345Y-111414967D01*
X116770345Y-111414967D02*
X116659068Y-111470605D01*
X116580449Y-105787689D02*
X116636088Y-105732051D01*
X116636088Y-105732051D02*
X116691726Y-105565137D01*
X116691726Y-105565137D02*
X116691726Y-105453861D01*
X116691726Y-105453861D02*
X116636088Y-105286946D01*
X116636088Y-105286946D02*
X116524811Y-105175670D01*
X116524811Y-105175670D02*
X116413535Y-105120032D01*
X116413535Y-105120032D02*
X116190983Y-105064394D01*
X116190983Y-105064394D02*
X116024068Y-105064394D01*
X116024068Y-105064394D02*
X115801516Y-105120032D01*
X115801516Y-105120032D02*
X115690240Y-105175670D01*
X115690240Y-105175670D02*
X115578964Y-105286946D01*
X115578964Y-105286946D02*
X115523326Y-105453861D01*
X115523326Y-105453861D02*
X115523326Y-105565137D01*
X115523326Y-105565137D02*
X115578964Y-105732051D01*
X115578964Y-105732051D02*
X115634602Y-105787689D01*
X115523326Y-106789175D02*
X115523326Y-106566622D01*
X115523326Y-106566622D02*
X115578964Y-106455346D01*
X115578964Y-106455346D02*
X115634602Y-106399708D01*
X115634602Y-106399708D02*
X115801516Y-106288432D01*
X115801516Y-106288432D02*
X116024068Y-106232794D01*
X116024068Y-106232794D02*
X116469173Y-106232794D01*
X116469173Y-106232794D02*
X116580449Y-106288432D01*
X116580449Y-106288432D02*
X116636088Y-106344070D01*
X116636088Y-106344070D02*
X116691726Y-106455346D01*
X116691726Y-106455346D02*
X116691726Y-106677899D01*
X116691726Y-106677899D02*
X116636088Y-106789175D01*
X116636088Y-106789175D02*
X116580449Y-106844813D01*
X116580449Y-106844813D02*
X116469173Y-106900451D01*
X116469173Y-106900451D02*
X116190983Y-106900451D01*
X116190983Y-106900451D02*
X116079707Y-106844813D01*
X116079707Y-106844813D02*
X116024068Y-106789175D01*
X116024068Y-106789175D02*
X115968430Y-106677899D01*
X115968430Y-106677899D02*
X115968430Y-106455346D01*
X115968430Y-106455346D02*
X116024068Y-106344070D01*
X116024068Y-106344070D02*
X116079707Y-106288432D01*
X116079707Y-106288432D02*
X116190983Y-106232794D01*
X115912792Y-107901937D02*
X116691726Y-107901937D01*
X115467688Y-107623746D02*
X116302259Y-107345556D01*
X116302259Y-107345556D02*
X116302259Y-108068851D01*
X115329918Y-109595449D02*
X115385556Y-109651088D01*
X115385556Y-109651088D02*
X115552470Y-109706726D01*
X115552470Y-109706726D02*
X115663746Y-109706726D01*
X115663746Y-109706726D02*
X115830661Y-109651088D01*
X115830661Y-109651088D02*
X115941937Y-109539811D01*
X115941937Y-109539811D02*
X115997575Y-109428535D01*
X115997575Y-109428535D02*
X116053213Y-109205983D01*
X116053213Y-109205983D02*
X116053213Y-109039068D01*
X116053213Y-109039068D02*
X115997575Y-108816516D01*
X115997575Y-108816516D02*
X115941937Y-108705240D01*
X115941937Y-108705240D02*
X115830661Y-108593964D01*
X115830661Y-108593964D02*
X115663746Y-108538326D01*
X115663746Y-108538326D02*
X115552470Y-108538326D01*
X115552470Y-108538326D02*
X115385556Y-108593964D01*
X115385556Y-108593964D02*
X115329918Y-108649602D01*
X114328432Y-108538326D02*
X114550985Y-108538326D01*
X114550985Y-108538326D02*
X114662261Y-108593964D01*
X114662261Y-108593964D02*
X114717899Y-108649602D01*
X114717899Y-108649602D02*
X114829175Y-108816516D01*
X114829175Y-108816516D02*
X114884813Y-109039068D01*
X114884813Y-109039068D02*
X114884813Y-109484173D01*
X114884813Y-109484173D02*
X114829175Y-109595449D01*
X114829175Y-109595449D02*
X114773537Y-109651088D01*
X114773537Y-109651088D02*
X114662261Y-109706726D01*
X114662261Y-109706726D02*
X114439708Y-109706726D01*
X114439708Y-109706726D02*
X114328432Y-109651088D01*
X114328432Y-109651088D02*
X114272794Y-109595449D01*
X114272794Y-109595449D02*
X114217156Y-109484173D01*
X114217156Y-109484173D02*
X114217156Y-109205983D01*
X114217156Y-109205983D02*
X114272794Y-109094707D01*
X114272794Y-109094707D02*
X114328432Y-109039068D01*
X114328432Y-109039068D02*
X114439708Y-108983430D01*
X114439708Y-108983430D02*
X114662261Y-108983430D01*
X114662261Y-108983430D02*
X114773537Y-109039068D01*
X114773537Y-109039068D02*
X114829175Y-109094707D01*
X114829175Y-109094707D02*
X114884813Y-109205983D01*
X113549499Y-109039068D02*
X113660775Y-108983430D01*
X113660775Y-108983430D02*
X113716413Y-108927792D01*
X113716413Y-108927792D02*
X113772051Y-108816516D01*
X113772051Y-108816516D02*
X113772051Y-108760878D01*
X113772051Y-108760878D02*
X113716413Y-108649602D01*
X113716413Y-108649602D02*
X113660775Y-108593964D01*
X113660775Y-108593964D02*
X113549499Y-108538326D01*
X113549499Y-108538326D02*
X113326946Y-108538326D01*
X113326946Y-108538326D02*
X113215670Y-108593964D01*
X113215670Y-108593964D02*
X113160032Y-108649602D01*
X113160032Y-108649602D02*
X113104394Y-108760878D01*
X113104394Y-108760878D02*
X113104394Y-108816516D01*
X113104394Y-108816516D02*
X113160032Y-108927792D01*
X113160032Y-108927792D02*
X113215670Y-108983430D01*
X113215670Y-108983430D02*
X113326946Y-109039068D01*
X113326946Y-109039068D02*
X113549499Y-109039068D01*
X113549499Y-109039068D02*
X113660775Y-109094707D01*
X113660775Y-109094707D02*
X113716413Y-109150345D01*
X113716413Y-109150345D02*
X113772051Y-109261621D01*
X113772051Y-109261621D02*
X113772051Y-109484173D01*
X113772051Y-109484173D02*
X113716413Y-109595449D01*
X113716413Y-109595449D02*
X113660775Y-109651088D01*
X113660775Y-109651088D02*
X113549499Y-109706726D01*
X113549499Y-109706726D02*
X113326946Y-109706726D01*
X113326946Y-109706726D02*
X113215670Y-109651088D01*
X113215670Y-109651088D02*
X113160032Y-109595449D01*
X113160032Y-109595449D02*
X113104394Y-109484173D01*
X113104394Y-109484173D02*
X113104394Y-109261621D01*
X113104394Y-109261621D02*
X113160032Y-109150345D01*
X113160032Y-109150345D02*
X113215670Y-109094707D01*
X113215670Y-109094707D02*
X113326946Y-109039068D01*
X110865449Y-115312689D02*
X110921088Y-115257051D01*
X110921088Y-115257051D02*
X110976726Y-115090137D01*
X110976726Y-115090137D02*
X110976726Y-114978861D01*
X110976726Y-114978861D02*
X110921088Y-114811946D01*
X110921088Y-114811946D02*
X110809811Y-114700670D01*
X110809811Y-114700670D02*
X110698535Y-114645032D01*
X110698535Y-114645032D02*
X110475983Y-114589394D01*
X110475983Y-114589394D02*
X110309068Y-114589394D01*
X110309068Y-114589394D02*
X110086516Y-114645032D01*
X110086516Y-114645032D02*
X109975240Y-114700670D01*
X109975240Y-114700670D02*
X109863964Y-114811946D01*
X109863964Y-114811946D02*
X109808326Y-114978861D01*
X109808326Y-114978861D02*
X109808326Y-115090137D01*
X109808326Y-115090137D02*
X109863964Y-115257051D01*
X109863964Y-115257051D02*
X109919602Y-115312689D01*
X110197792Y-116314175D02*
X110976726Y-116314175D01*
X109752688Y-116035984D02*
X110587259Y-115757794D01*
X110587259Y-115757794D02*
X110587259Y-116481089D01*
X109808326Y-116814918D02*
X109808326Y-117593851D01*
X109808326Y-117593851D02*
X110976726Y-117093108D01*
X120390449Y-115312689D02*
X120446088Y-115257051D01*
X120446088Y-115257051D02*
X120501726Y-115090137D01*
X120501726Y-115090137D02*
X120501726Y-114978861D01*
X120501726Y-114978861D02*
X120446088Y-114811946D01*
X120446088Y-114811946D02*
X120334811Y-114700670D01*
X120334811Y-114700670D02*
X120223535Y-114645032D01*
X120223535Y-114645032D02*
X120000983Y-114589394D01*
X120000983Y-114589394D02*
X119834068Y-114589394D01*
X119834068Y-114589394D02*
X119611516Y-114645032D01*
X119611516Y-114645032D02*
X119500240Y-114700670D01*
X119500240Y-114700670D02*
X119388964Y-114811946D01*
X119388964Y-114811946D02*
X119333326Y-114978861D01*
X119333326Y-114978861D02*
X119333326Y-115090137D01*
X119333326Y-115090137D02*
X119388964Y-115257051D01*
X119388964Y-115257051D02*
X119444602Y-115312689D01*
X119722792Y-116314175D02*
X120501726Y-116314175D01*
X119277688Y-116035984D02*
X120112259Y-115757794D01*
X120112259Y-115757794D02*
X120112259Y-116481089D01*
X119333326Y-117426937D02*
X119333326Y-117204384D01*
X119333326Y-117204384D02*
X119388964Y-117093108D01*
X119388964Y-117093108D02*
X119444602Y-117037470D01*
X119444602Y-117037470D02*
X119611516Y-116926194D01*
X119611516Y-116926194D02*
X119834068Y-116870556D01*
X119834068Y-116870556D02*
X120279173Y-116870556D01*
X120279173Y-116870556D02*
X120390449Y-116926194D01*
X120390449Y-116926194D02*
X120446088Y-116981832D01*
X120446088Y-116981832D02*
X120501726Y-117093108D01*
X120501726Y-117093108D02*
X120501726Y-117315661D01*
X120501726Y-117315661D02*
X120446088Y-117426937D01*
X120446088Y-117426937D02*
X120390449Y-117482575D01*
X120390449Y-117482575D02*
X120279173Y-117538213D01*
X120279173Y-117538213D02*
X120000983Y-117538213D01*
X120000983Y-117538213D02*
X119889707Y-117482575D01*
X119889707Y-117482575D02*
X119834068Y-117426937D01*
X119834068Y-117426937D02*
X119778430Y-117315661D01*
X119778430Y-117315661D02*
X119778430Y-117093108D01*
X119778430Y-117093108D02*
X119834068Y-116981832D01*
X119834068Y-116981832D02*
X119889707Y-116926194D01*
X119889707Y-116926194D02*
X120000983Y-116870556D01*
X118008649Y-99720081D02*
X118064288Y-99664443D01*
X118064288Y-99664443D02*
X118119926Y-99497529D01*
X118119926Y-99497529D02*
X118119926Y-99386253D01*
X118119926Y-99386253D02*
X118064288Y-99219338D01*
X118064288Y-99219338D02*
X117953011Y-99108062D01*
X117953011Y-99108062D02*
X117841735Y-99052424D01*
X117841735Y-99052424D02*
X117619183Y-98996786D01*
X117619183Y-98996786D02*
X117452268Y-98996786D01*
X117452268Y-98996786D02*
X117229716Y-99052424D01*
X117229716Y-99052424D02*
X117118440Y-99108062D01*
X117118440Y-99108062D02*
X117007164Y-99219338D01*
X117007164Y-99219338D02*
X116951526Y-99386253D01*
X116951526Y-99386253D02*
X116951526Y-99497529D01*
X116951526Y-99497529D02*
X117007164Y-99664443D01*
X117007164Y-99664443D02*
X117062802Y-99720081D01*
X116951526Y-100777205D02*
X116951526Y-100220824D01*
X116951526Y-100220824D02*
X117507907Y-100165186D01*
X117507907Y-100165186D02*
X117452268Y-100220824D01*
X117452268Y-100220824D02*
X117396630Y-100332100D01*
X117396630Y-100332100D02*
X117396630Y-100610291D01*
X117396630Y-100610291D02*
X117452268Y-100721567D01*
X117452268Y-100721567D02*
X117507907Y-100777205D01*
X117507907Y-100777205D02*
X117619183Y-100832843D01*
X117619183Y-100832843D02*
X117897373Y-100832843D01*
X117897373Y-100832843D02*
X118008649Y-100777205D01*
X118008649Y-100777205D02*
X118064288Y-100721567D01*
X118064288Y-100721567D02*
X118119926Y-100610291D01*
X118119926Y-100610291D02*
X118119926Y-100332100D01*
X118119926Y-100332100D02*
X118064288Y-100220824D01*
X118064288Y-100220824D02*
X118008649Y-100165186D01*
X117340992Y-101834329D02*
X118119926Y-101834329D01*
X116895888Y-101556138D02*
X117730459Y-101277948D01*
X117730459Y-101277948D02*
X117730459Y-102001243D01*
X114040449Y-115312689D02*
X114096088Y-115257051D01*
X114096088Y-115257051D02*
X114151726Y-115090137D01*
X114151726Y-115090137D02*
X114151726Y-114978861D01*
X114151726Y-114978861D02*
X114096088Y-114811946D01*
X114096088Y-114811946D02*
X113984811Y-114700670D01*
X113984811Y-114700670D02*
X113873535Y-114645032D01*
X113873535Y-114645032D02*
X113650983Y-114589394D01*
X113650983Y-114589394D02*
X113484068Y-114589394D01*
X113484068Y-114589394D02*
X113261516Y-114645032D01*
X113261516Y-114645032D02*
X113150240Y-114700670D01*
X113150240Y-114700670D02*
X113038964Y-114811946D01*
X113038964Y-114811946D02*
X112983326Y-114978861D01*
X112983326Y-114978861D02*
X112983326Y-115090137D01*
X112983326Y-115090137D02*
X113038964Y-115257051D01*
X113038964Y-115257051D02*
X113094602Y-115312689D01*
X113372792Y-116314175D02*
X114151726Y-116314175D01*
X112927688Y-116035984D02*
X113762259Y-115757794D01*
X113762259Y-115757794D02*
X113762259Y-116481089D01*
X112983326Y-117482575D02*
X112983326Y-116926194D01*
X112983326Y-116926194D02*
X113539707Y-116870556D01*
X113539707Y-116870556D02*
X113484068Y-116926194D01*
X113484068Y-116926194D02*
X113428430Y-117037470D01*
X113428430Y-117037470D02*
X113428430Y-117315661D01*
X113428430Y-117315661D02*
X113484068Y-117426937D01*
X113484068Y-117426937D02*
X113539707Y-117482575D01*
X113539707Y-117482575D02*
X113650983Y-117538213D01*
X113650983Y-117538213D02*
X113929173Y-117538213D01*
X113929173Y-117538213D02*
X114040449Y-117482575D01*
X114040449Y-117482575D02*
X114096088Y-117426937D01*
X114096088Y-117426937D02*
X114151726Y-117315661D01*
X114151726Y-117315661D02*
X114151726Y-117037470D01*
X114151726Y-117037470D02*
X114096088Y-116926194D01*
X114096088Y-116926194D02*
X114040449Y-116870556D01*
X120057310Y-108325449D02*
X120112948Y-108381088D01*
X120112948Y-108381088D02*
X120279862Y-108436726D01*
X120279862Y-108436726D02*
X120391138Y-108436726D01*
X120391138Y-108436726D02*
X120558053Y-108381088D01*
X120558053Y-108381088D02*
X120669329Y-108269811D01*
X120669329Y-108269811D02*
X120724967Y-108158535D01*
X120724967Y-108158535D02*
X120780605Y-107935983D01*
X120780605Y-107935983D02*
X120780605Y-107769068D01*
X120780605Y-107769068D02*
X120724967Y-107546516D01*
X120724967Y-107546516D02*
X120669329Y-107435240D01*
X120669329Y-107435240D02*
X120558053Y-107323964D01*
X120558053Y-107323964D02*
X120391138Y-107268326D01*
X120391138Y-107268326D02*
X120279862Y-107268326D01*
X120279862Y-107268326D02*
X120112948Y-107323964D01*
X120112948Y-107323964D02*
X120057310Y-107379602D01*
X119055824Y-107268326D02*
X119278377Y-107268326D01*
X119278377Y-107268326D02*
X119389653Y-107323964D01*
X119389653Y-107323964D02*
X119445291Y-107379602D01*
X119445291Y-107379602D02*
X119556567Y-107546516D01*
X119556567Y-107546516D02*
X119612205Y-107769068D01*
X119612205Y-107769068D02*
X119612205Y-108214173D01*
X119612205Y-108214173D02*
X119556567Y-108325449D01*
X119556567Y-108325449D02*
X119500929Y-108381088D01*
X119500929Y-108381088D02*
X119389653Y-108436726D01*
X119389653Y-108436726D02*
X119167100Y-108436726D01*
X119167100Y-108436726D02*
X119055824Y-108381088D01*
X119055824Y-108381088D02*
X119000186Y-108325449D01*
X119000186Y-108325449D02*
X118944548Y-108214173D01*
X118944548Y-108214173D02*
X118944548Y-107935983D01*
X118944548Y-107935983D02*
X119000186Y-107824707D01*
X119000186Y-107824707D02*
X119055824Y-107769068D01*
X119055824Y-107769068D02*
X119167100Y-107713430D01*
X119167100Y-107713430D02*
X119389653Y-107713430D01*
X119389653Y-107713430D02*
X119500929Y-107769068D01*
X119500929Y-107769068D02*
X119556567Y-107824707D01*
X119556567Y-107824707D02*
X119612205Y-107935983D01*
X118555081Y-107268326D02*
X117831786Y-107268326D01*
X117831786Y-107268326D02*
X118221253Y-107713430D01*
X118221253Y-107713430D02*
X118054338Y-107713430D01*
X118054338Y-107713430D02*
X117943062Y-107769068D01*
X117943062Y-107769068D02*
X117887424Y-107824707D01*
X117887424Y-107824707D02*
X117831786Y-107935983D01*
X117831786Y-107935983D02*
X117831786Y-108214173D01*
X117831786Y-108214173D02*
X117887424Y-108325449D01*
X117887424Y-108325449D02*
X117943062Y-108381088D01*
X117943062Y-108381088D02*
X118054338Y-108436726D01*
X118054338Y-108436726D02*
X118388167Y-108436726D01*
X118388167Y-108436726D02*
X118499443Y-108381088D01*
X118499443Y-108381088D02*
X118555081Y-108325449D01*
X125704918Y-111342249D02*
X125760556Y-111397888D01*
X125760556Y-111397888D02*
X125927470Y-111453526D01*
X125927470Y-111453526D02*
X126038746Y-111453526D01*
X126038746Y-111453526D02*
X126205661Y-111397888D01*
X126205661Y-111397888D02*
X126316937Y-111286611D01*
X126316937Y-111286611D02*
X126372575Y-111175335D01*
X126372575Y-111175335D02*
X126428213Y-110952783D01*
X126428213Y-110952783D02*
X126428213Y-110785868D01*
X126428213Y-110785868D02*
X126372575Y-110563316D01*
X126372575Y-110563316D02*
X126316937Y-110452040D01*
X126316937Y-110452040D02*
X126205661Y-110340764D01*
X126205661Y-110340764D02*
X126038746Y-110285126D01*
X126038746Y-110285126D02*
X125927470Y-110285126D01*
X125927470Y-110285126D02*
X125760556Y-110340764D01*
X125760556Y-110340764D02*
X125704918Y-110396402D01*
X124647794Y-110285126D02*
X125204175Y-110285126D01*
X125204175Y-110285126D02*
X125259813Y-110841507D01*
X125259813Y-110841507D02*
X125204175Y-110785868D01*
X125204175Y-110785868D02*
X125092899Y-110730230D01*
X125092899Y-110730230D02*
X124814708Y-110730230D01*
X124814708Y-110730230D02*
X124703432Y-110785868D01*
X124703432Y-110785868D02*
X124647794Y-110841507D01*
X124647794Y-110841507D02*
X124592156Y-110952783D01*
X124592156Y-110952783D02*
X124592156Y-111230973D01*
X124592156Y-111230973D02*
X124647794Y-111342249D01*
X124647794Y-111342249D02*
X124703432Y-111397888D01*
X124703432Y-111397888D02*
X124814708Y-111453526D01*
X124814708Y-111453526D02*
X125092899Y-111453526D01*
X125092899Y-111453526D02*
X125204175Y-111397888D01*
X125204175Y-111397888D02*
X125259813Y-111342249D01*
X123924499Y-110785868D02*
X124035775Y-110730230D01*
X124035775Y-110730230D02*
X124091413Y-110674592D01*
X124091413Y-110674592D02*
X124147051Y-110563316D01*
X124147051Y-110563316D02*
X124147051Y-110507678D01*
X124147051Y-110507678D02*
X124091413Y-110396402D01*
X124091413Y-110396402D02*
X124035775Y-110340764D01*
X124035775Y-110340764D02*
X123924499Y-110285126D01*
X123924499Y-110285126D02*
X123701946Y-110285126D01*
X123701946Y-110285126D02*
X123590670Y-110340764D01*
X123590670Y-110340764D02*
X123535032Y-110396402D01*
X123535032Y-110396402D02*
X123479394Y-110507678D01*
X123479394Y-110507678D02*
X123479394Y-110563316D01*
X123479394Y-110563316D02*
X123535032Y-110674592D01*
X123535032Y-110674592D02*
X123590670Y-110730230D01*
X123590670Y-110730230D02*
X123701946Y-110785868D01*
X123701946Y-110785868D02*
X123924499Y-110785868D01*
X123924499Y-110785868D02*
X124035775Y-110841507D01*
X124035775Y-110841507D02*
X124091413Y-110897145D01*
X124091413Y-110897145D02*
X124147051Y-111008421D01*
X124147051Y-111008421D02*
X124147051Y-111230973D01*
X124147051Y-111230973D02*
X124091413Y-111342249D01*
X124091413Y-111342249D02*
X124035775Y-111397888D01*
X124035775Y-111397888D02*
X123924499Y-111453526D01*
X123924499Y-111453526D02*
X123701946Y-111453526D01*
X123701946Y-111453526D02*
X123590670Y-111397888D01*
X123590670Y-111397888D02*
X123535032Y-111342249D01*
X123535032Y-111342249D02*
X123479394Y-111230973D01*
X123479394Y-111230973D02*
X123479394Y-111008421D01*
X123479394Y-111008421D02*
X123535032Y-110897145D01*
X123535032Y-110897145D02*
X123590670Y-110841507D01*
X123590670Y-110841507D02*
X123701946Y-110785868D01*
X109477310Y-108325449D02*
X109532948Y-108381088D01*
X109532948Y-108381088D02*
X109699862Y-108436726D01*
X109699862Y-108436726D02*
X109811138Y-108436726D01*
X109811138Y-108436726D02*
X109978053Y-108381088D01*
X109978053Y-108381088D02*
X110089329Y-108269811D01*
X110089329Y-108269811D02*
X110144967Y-108158535D01*
X110144967Y-108158535D02*
X110200605Y-107935983D01*
X110200605Y-107935983D02*
X110200605Y-107769068D01*
X110200605Y-107769068D02*
X110144967Y-107546516D01*
X110144967Y-107546516D02*
X110089329Y-107435240D01*
X110089329Y-107435240D02*
X109978053Y-107323964D01*
X109978053Y-107323964D02*
X109811138Y-107268326D01*
X109811138Y-107268326D02*
X109699862Y-107268326D01*
X109699862Y-107268326D02*
X109532948Y-107323964D01*
X109532948Y-107323964D02*
X109477310Y-107379602D01*
X108420186Y-107268326D02*
X108976567Y-107268326D01*
X108976567Y-107268326D02*
X109032205Y-107824707D01*
X109032205Y-107824707D02*
X108976567Y-107769068D01*
X108976567Y-107769068D02*
X108865291Y-107713430D01*
X108865291Y-107713430D02*
X108587100Y-107713430D01*
X108587100Y-107713430D02*
X108475824Y-107769068D01*
X108475824Y-107769068D02*
X108420186Y-107824707D01*
X108420186Y-107824707D02*
X108364548Y-107935983D01*
X108364548Y-107935983D02*
X108364548Y-108214173D01*
X108364548Y-108214173D02*
X108420186Y-108325449D01*
X108420186Y-108325449D02*
X108475824Y-108381088D01*
X108475824Y-108381088D02*
X108587100Y-108436726D01*
X108587100Y-108436726D02*
X108865291Y-108436726D01*
X108865291Y-108436726D02*
X108976567Y-108381088D01*
X108976567Y-108381088D02*
X109032205Y-108325449D01*
X107363062Y-107268326D02*
X107585615Y-107268326D01*
X107585615Y-107268326D02*
X107696891Y-107323964D01*
X107696891Y-107323964D02*
X107752529Y-107379602D01*
X107752529Y-107379602D02*
X107863805Y-107546516D01*
X107863805Y-107546516D02*
X107919443Y-107769068D01*
X107919443Y-107769068D02*
X107919443Y-108214173D01*
X107919443Y-108214173D02*
X107863805Y-108325449D01*
X107863805Y-108325449D02*
X107808167Y-108381088D01*
X107808167Y-108381088D02*
X107696891Y-108436726D01*
X107696891Y-108436726D02*
X107474338Y-108436726D01*
X107474338Y-108436726D02*
X107363062Y-108381088D01*
X107363062Y-108381088D02*
X107307424Y-108325449D01*
X107307424Y-108325449D02*
X107251786Y-108214173D01*
X107251786Y-108214173D02*
X107251786Y-107935983D01*
X107251786Y-107935983D02*
X107307424Y-107824707D01*
X107307424Y-107824707D02*
X107363062Y-107769068D01*
X107363062Y-107769068D02*
X107474338Y-107713430D01*
X107474338Y-107713430D02*
X107696891Y-107713430D01*
X107696891Y-107713430D02*
X107808167Y-107769068D01*
X107808167Y-107769068D02*
X107863805Y-107824707D01*
X107863805Y-107824707D02*
X107919443Y-107935983D01*
X117215449Y-115312689D02*
X117271088Y-115257051D01*
X117271088Y-115257051D02*
X117326726Y-115090137D01*
X117326726Y-115090137D02*
X117326726Y-114978861D01*
X117326726Y-114978861D02*
X117271088Y-114811946D01*
X117271088Y-114811946D02*
X117159811Y-114700670D01*
X117159811Y-114700670D02*
X117048535Y-114645032D01*
X117048535Y-114645032D02*
X116825983Y-114589394D01*
X116825983Y-114589394D02*
X116659068Y-114589394D01*
X116659068Y-114589394D02*
X116436516Y-114645032D01*
X116436516Y-114645032D02*
X116325240Y-114700670D01*
X116325240Y-114700670D02*
X116213964Y-114811946D01*
X116213964Y-114811946D02*
X116158326Y-114978861D01*
X116158326Y-114978861D02*
X116158326Y-115090137D01*
X116158326Y-115090137D02*
X116213964Y-115257051D01*
X116213964Y-115257051D02*
X116269602Y-115312689D01*
X116547792Y-116314175D02*
X117326726Y-116314175D01*
X116102688Y-116035984D02*
X116937259Y-115757794D01*
X116937259Y-115757794D02*
X116937259Y-116481089D01*
X116659068Y-117093108D02*
X116603430Y-116981832D01*
X116603430Y-116981832D02*
X116547792Y-116926194D01*
X116547792Y-116926194D02*
X116436516Y-116870556D01*
X116436516Y-116870556D02*
X116380878Y-116870556D01*
X116380878Y-116870556D02*
X116269602Y-116926194D01*
X116269602Y-116926194D02*
X116213964Y-116981832D01*
X116213964Y-116981832D02*
X116158326Y-117093108D01*
X116158326Y-117093108D02*
X116158326Y-117315661D01*
X116158326Y-117315661D02*
X116213964Y-117426937D01*
X116213964Y-117426937D02*
X116269602Y-117482575D01*
X116269602Y-117482575D02*
X116380878Y-117538213D01*
X116380878Y-117538213D02*
X116436516Y-117538213D01*
X116436516Y-117538213D02*
X116547792Y-117482575D01*
X116547792Y-117482575D02*
X116603430Y-117426937D01*
X116603430Y-117426937D02*
X116659068Y-117315661D01*
X116659068Y-117315661D02*
X116659068Y-117093108D01*
X116659068Y-117093108D02*
X116714707Y-116981832D01*
X116714707Y-116981832D02*
X116770345Y-116926194D01*
X116770345Y-116926194D02*
X116881621Y-116870556D01*
X116881621Y-116870556D02*
X117104173Y-116870556D01*
X117104173Y-116870556D02*
X117215449Y-116926194D01*
X117215449Y-116926194D02*
X117271088Y-116981832D01*
X117271088Y-116981832D02*
X117326726Y-117093108D01*
X117326726Y-117093108D02*
X117326726Y-117315661D01*
X117326726Y-117315661D02*
X117271088Y-117426937D01*
X117271088Y-117426937D02*
X117215449Y-117482575D01*
X117215449Y-117482575D02*
X117104173Y-117538213D01*
X117104173Y-117538213D02*
X116881621Y-117538213D01*
X116881621Y-117538213D02*
X116770345Y-117482575D01*
X116770345Y-117482575D02*
X116714707Y-117426937D01*
X116714707Y-117426937D02*
X116659068Y-117315661D01*
X115329918Y-107055449D02*
X115385556Y-107111088D01*
X115385556Y-107111088D02*
X115552470Y-107166726D01*
X115552470Y-107166726D02*
X115663746Y-107166726D01*
X115663746Y-107166726D02*
X115830661Y-107111088D01*
X115830661Y-107111088D02*
X115941937Y-106999811D01*
X115941937Y-106999811D02*
X115997575Y-106888535D01*
X115997575Y-106888535D02*
X116053213Y-106665983D01*
X116053213Y-106665983D02*
X116053213Y-106499068D01*
X116053213Y-106499068D02*
X115997575Y-106276516D01*
X115997575Y-106276516D02*
X115941937Y-106165240D01*
X115941937Y-106165240D02*
X115830661Y-106053964D01*
X115830661Y-106053964D02*
X115663746Y-105998326D01*
X115663746Y-105998326D02*
X115552470Y-105998326D01*
X115552470Y-105998326D02*
X115385556Y-106053964D01*
X115385556Y-106053964D02*
X115329918Y-106109602D01*
X114328432Y-105998326D02*
X114550985Y-105998326D01*
X114550985Y-105998326D02*
X114662261Y-106053964D01*
X114662261Y-106053964D02*
X114717899Y-106109602D01*
X114717899Y-106109602D02*
X114829175Y-106276516D01*
X114829175Y-106276516D02*
X114884813Y-106499068D01*
X114884813Y-106499068D02*
X114884813Y-106944173D01*
X114884813Y-106944173D02*
X114829175Y-107055449D01*
X114829175Y-107055449D02*
X114773537Y-107111088D01*
X114773537Y-107111088D02*
X114662261Y-107166726D01*
X114662261Y-107166726D02*
X114439708Y-107166726D01*
X114439708Y-107166726D02*
X114328432Y-107111088D01*
X114328432Y-107111088D02*
X114272794Y-107055449D01*
X114272794Y-107055449D02*
X114217156Y-106944173D01*
X114217156Y-106944173D02*
X114217156Y-106665983D01*
X114217156Y-106665983D02*
X114272794Y-106554707D01*
X114272794Y-106554707D02*
X114328432Y-106499068D01*
X114328432Y-106499068D02*
X114439708Y-106443430D01*
X114439708Y-106443430D02*
X114662261Y-106443430D01*
X114662261Y-106443430D02*
X114773537Y-106499068D01*
X114773537Y-106499068D02*
X114829175Y-106554707D01*
X114829175Y-106554707D02*
X114884813Y-106665983D01*
X113827689Y-105998326D02*
X113048756Y-105998326D01*
X113048756Y-105998326D02*
X113549499Y-107166726D01*
X125704918Y-105308649D02*
X125760556Y-105364288D01*
X125760556Y-105364288D02*
X125927470Y-105419926D01*
X125927470Y-105419926D02*
X126038746Y-105419926D01*
X126038746Y-105419926D02*
X126205661Y-105364288D01*
X126205661Y-105364288D02*
X126316937Y-105253011D01*
X126316937Y-105253011D02*
X126372575Y-105141735D01*
X126372575Y-105141735D02*
X126428213Y-104919183D01*
X126428213Y-104919183D02*
X126428213Y-104752268D01*
X126428213Y-104752268D02*
X126372575Y-104529716D01*
X126372575Y-104529716D02*
X126316937Y-104418440D01*
X126316937Y-104418440D02*
X126205661Y-104307164D01*
X126205661Y-104307164D02*
X126038746Y-104251526D01*
X126038746Y-104251526D02*
X125927470Y-104251526D01*
X125927470Y-104251526D02*
X125760556Y-104307164D01*
X125760556Y-104307164D02*
X125704918Y-104362802D01*
X124703432Y-104251526D02*
X124925985Y-104251526D01*
X124925985Y-104251526D02*
X125037261Y-104307164D01*
X125037261Y-104307164D02*
X125092899Y-104362802D01*
X125092899Y-104362802D02*
X125204175Y-104529716D01*
X125204175Y-104529716D02*
X125259813Y-104752268D01*
X125259813Y-104752268D02*
X125259813Y-105197373D01*
X125259813Y-105197373D02*
X125204175Y-105308649D01*
X125204175Y-105308649D02*
X125148537Y-105364288D01*
X125148537Y-105364288D02*
X125037261Y-105419926D01*
X125037261Y-105419926D02*
X124814708Y-105419926D01*
X124814708Y-105419926D02*
X124703432Y-105364288D01*
X124703432Y-105364288D02*
X124647794Y-105308649D01*
X124647794Y-105308649D02*
X124592156Y-105197373D01*
X124592156Y-105197373D02*
X124592156Y-104919183D01*
X124592156Y-104919183D02*
X124647794Y-104807907D01*
X124647794Y-104807907D02*
X124703432Y-104752268D01*
X124703432Y-104752268D02*
X124814708Y-104696630D01*
X124814708Y-104696630D02*
X125037261Y-104696630D01*
X125037261Y-104696630D02*
X125148537Y-104752268D01*
X125148537Y-104752268D02*
X125204175Y-104807907D01*
X125204175Y-104807907D02*
X125259813Y-104919183D01*
X123868861Y-104251526D02*
X123757584Y-104251526D01*
X123757584Y-104251526D02*
X123646308Y-104307164D01*
X123646308Y-104307164D02*
X123590670Y-104362802D01*
X123590670Y-104362802D02*
X123535032Y-104474078D01*
X123535032Y-104474078D02*
X123479394Y-104696630D01*
X123479394Y-104696630D02*
X123479394Y-104974821D01*
X123479394Y-104974821D02*
X123535032Y-105197373D01*
X123535032Y-105197373D02*
X123590670Y-105308649D01*
X123590670Y-105308649D02*
X123646308Y-105364288D01*
X123646308Y-105364288D02*
X123757584Y-105419926D01*
X123757584Y-105419926D02*
X123868861Y-105419926D01*
X123868861Y-105419926D02*
X123980137Y-105364288D01*
X123980137Y-105364288D02*
X124035775Y-105308649D01*
X124035775Y-105308649D02*
X124091413Y-105197373D01*
X124091413Y-105197373D02*
X124147051Y-104974821D01*
X124147051Y-104974821D02*
X124147051Y-104696630D01*
X124147051Y-104696630D02*
X124091413Y-104474078D01*
X124091413Y-104474078D02*
X124035775Y-104362802D01*
X124035775Y-104362802D02*
X123980137Y-104307164D01*
X123980137Y-104307164D02*
X123868861Y-104251526D01*
X125704918Y-108325449D02*
X125760556Y-108381088D01*
X125760556Y-108381088D02*
X125927470Y-108436726D01*
X125927470Y-108436726D02*
X126038746Y-108436726D01*
X126038746Y-108436726D02*
X126205661Y-108381088D01*
X126205661Y-108381088D02*
X126316937Y-108269811D01*
X126316937Y-108269811D02*
X126372575Y-108158535D01*
X126372575Y-108158535D02*
X126428213Y-107935983D01*
X126428213Y-107935983D02*
X126428213Y-107769068D01*
X126428213Y-107769068D02*
X126372575Y-107546516D01*
X126372575Y-107546516D02*
X126316937Y-107435240D01*
X126316937Y-107435240D02*
X126205661Y-107323964D01*
X126205661Y-107323964D02*
X126038746Y-107268326D01*
X126038746Y-107268326D02*
X125927470Y-107268326D01*
X125927470Y-107268326D02*
X125760556Y-107323964D01*
X125760556Y-107323964D02*
X125704918Y-107379602D01*
X124647794Y-107268326D02*
X125204175Y-107268326D01*
X125204175Y-107268326D02*
X125259813Y-107824707D01*
X125259813Y-107824707D02*
X125204175Y-107769068D01*
X125204175Y-107769068D02*
X125092899Y-107713430D01*
X125092899Y-107713430D02*
X124814708Y-107713430D01*
X124814708Y-107713430D02*
X124703432Y-107769068D01*
X124703432Y-107769068D02*
X124647794Y-107824707D01*
X124647794Y-107824707D02*
X124592156Y-107935983D01*
X124592156Y-107935983D02*
X124592156Y-108214173D01*
X124592156Y-108214173D02*
X124647794Y-108325449D01*
X124647794Y-108325449D02*
X124703432Y-108381088D01*
X124703432Y-108381088D02*
X124814708Y-108436726D01*
X124814708Y-108436726D02*
X125092899Y-108436726D01*
X125092899Y-108436726D02*
X125204175Y-108381088D01*
X125204175Y-108381088D02*
X125259813Y-108325449D01*
X124035775Y-108436726D02*
X123813223Y-108436726D01*
X123813223Y-108436726D02*
X123701946Y-108381088D01*
X123701946Y-108381088D02*
X123646308Y-108325449D01*
X123646308Y-108325449D02*
X123535032Y-108158535D01*
X123535032Y-108158535D02*
X123479394Y-107935983D01*
X123479394Y-107935983D02*
X123479394Y-107490878D01*
X123479394Y-107490878D02*
X123535032Y-107379602D01*
X123535032Y-107379602D02*
X123590670Y-107323964D01*
X123590670Y-107323964D02*
X123701946Y-107268326D01*
X123701946Y-107268326D02*
X123924499Y-107268326D01*
X123924499Y-107268326D02*
X124035775Y-107323964D01*
X124035775Y-107323964D02*
X124091413Y-107379602D01*
X124091413Y-107379602D02*
X124147051Y-107490878D01*
X124147051Y-107490878D02*
X124147051Y-107769068D01*
X124147051Y-107769068D02*
X124091413Y-107880345D01*
X124091413Y-107880345D02*
X124035775Y-107935983D01*
X124035775Y-107935983D02*
X123924499Y-107991621D01*
X123924499Y-107991621D02*
X123701946Y-107991621D01*
X123701946Y-107991621D02*
X123590670Y-107935983D01*
X123590670Y-107935983D02*
X123535032Y-107880345D01*
X123535032Y-107880345D02*
X123479394Y-107769068D01*
D11*
%TO.C,U$7*%
X173407856Y-137115500D02*
X174677856Y-137115500D01*
D12*
%TO.C,CN4*%
X190711606Y-40322500D02*
X190711606Y-49847500D01*
X190711606Y-49847500D02*
X190330606Y-49847500D01*
X240241606Y-39052500D02*
X191981606Y-39052500D01*
X241511606Y-49847500D02*
X241511606Y-40322500D01*
X241892606Y-49847500D02*
X241511606Y-49847500D01*
X190711606Y-40322500D02*
G75*
G02*
X191981606Y-39052500I1270000J0D01*
G01*
X240241606Y-39052500D02*
G75*
G02*
X241511606Y-40322500I1J-1269999D01*
G01*
%TO.C,CN3*%
X252862231Y-89487375D02*
X252862231Y-89106375D01*
X252862231Y-116411375D02*
X262387231Y-116411375D01*
X252862231Y-116792375D02*
X252862231Y-116411375D01*
X262387231Y-89487375D02*
X252862231Y-89487375D01*
X263657231Y-115141375D02*
X263657231Y-90757375D01*
X262387231Y-89487375D02*
G75*
G02*
X263657231Y-90757375I0J-1270000D01*
G01*
X263657231Y-115141375D02*
G75*
G02*
X262387231Y-116411375I-1269999J-1D01*
G01*
%TD*%
%LPC*%
D13*
%TO.C,H3*%
X258974106Y-43815000D03*
%TD*%
D14*
%TO.C,R2*%
X128560981Y-57150000D03*
X128560981Y-49530000D03*
%TD*%
D15*
%TO.C,R12*%
X77978000Y-47361600D03*
X80518000Y-47361600D03*
%TD*%
D14*
%TO.C,R3*%
X186742856Y-59610625D03*
X186742856Y-57070625D03*
%TD*%
D16*
%TO.C,R10*%
X151765000Y-70485000D03*
X151765000Y-73025000D03*
%TD*%
D13*
%TO.C,H1*%
X108796606Y-134302500D03*
%TD*%
D15*
%TO.C,D5*%
X149992231Y-58896250D03*
X144912231Y-58896250D03*
%TD*%
D16*
%TO.C,R9*%
X156210000Y-70485000D03*
X156210000Y-73025000D03*
%TD*%
D17*
%TO.C,C36*%
X238177856Y-120967500D03*
D18*
X240717856Y-120967500D03*
%TD*%
D17*
%TO.C,C28*%
X197537856Y-129063750D03*
D19*
X197537856Y-126523750D03*
%TD*%
D20*
%TO.C,U$9*%
X119380000Y-45212000D03*
X119380000Y-47752000D03*
X119380000Y-50292000D03*
X119380000Y-52832000D03*
X119380000Y-55372000D03*
X139700000Y-55372000D03*
X139700000Y-52832000D03*
X139700000Y-50292000D03*
X139700000Y-47752000D03*
X139700000Y-45212000D03*
%TD*%
%TO.C,D10*%
X177800000Y-66675000D03*
X170180000Y-66675000D03*
%TD*%
D14*
%TO.C,R8*%
X159385000Y-66040000D03*
X159385000Y-63500000D03*
%TD*%
D15*
%TO.C,R18*%
X99060000Y-55403750D03*
X101600000Y-55403750D03*
%TD*%
D21*
%TO.C,R21*%
X174836606Y-118745000D03*
X172296606Y-118745000D03*
%TD*%
D15*
%TO.C,C50*%
X80010000Y-59690000D03*
X85090000Y-59690000D03*
%TD*%
D22*
%TO.C,JP9*%
X160933591Y-71633569D03*
X160933591Y-74173569D03*
%TD*%
D14*
%TO.C,R14*%
X160655000Y-59055000D03*
X160655000Y-56515000D03*
%TD*%
%TO.C,R22*%
X149436606Y-131921250D03*
X149436606Y-129381250D03*
%TD*%
D23*
%TO.C,Q2*%
X81200625Y-106045000D03*
X78660625Y-106045000D03*
%TD*%
D24*
%TO.C,IC10*%
X241987856Y-104140000D03*
D25*
X244527856Y-101600000D03*
X241987856Y-101600000D03*
X244527856Y-99060000D03*
X241987856Y-99060000D03*
X244527856Y-96520000D03*
X241987856Y-93980000D03*
X241987856Y-96520000D03*
X239447856Y-93980000D03*
X239447856Y-96520000D03*
X236907856Y-93980000D03*
X236907856Y-96520000D03*
X234367856Y-93980000D03*
X234367856Y-96520000D03*
X231827856Y-93980000D03*
X231827856Y-96520000D03*
X229287856Y-93980000D03*
X226747856Y-96520000D03*
X229287856Y-96520000D03*
X226747856Y-99060000D03*
X229287856Y-99060000D03*
X226747856Y-101600000D03*
X229287856Y-101600000D03*
X226747856Y-104140000D03*
X229287856Y-104140000D03*
X226747856Y-106680000D03*
X229287856Y-106680000D03*
X226747856Y-109220000D03*
X229287856Y-111760000D03*
X229287856Y-109220000D03*
X231827856Y-111760000D03*
X231827856Y-109220000D03*
X234367856Y-111760000D03*
X234367856Y-109220000D03*
X236907856Y-111760000D03*
X236907856Y-109220000D03*
X239447856Y-111760000D03*
X239447856Y-109220000D03*
X241987856Y-111760000D03*
X244527856Y-109220000D03*
X241987856Y-109220000D03*
X244527856Y-106680000D03*
X241987856Y-106680000D03*
X244527856Y-104140000D03*
%TD*%
D26*
%TO.C,USB1*%
X128589556Y-46770925D03*
X130596156Y-46770925D03*
X126100356Y-46770925D03*
D27*
X136158756Y-44053125D03*
X123026956Y-44053125D03*
D26*
X133085356Y-46770925D03*
%TD*%
D28*
%TO.C,RN4*%
X187219106Y-65405000D03*
X189759106Y-65405000D03*
X192299106Y-65405000D03*
X194839106Y-65405000D03*
X197379106Y-65405000D03*
X199919106Y-65405000D03*
X202459106Y-65405000D03*
X204999106Y-65405000D03*
X207539106Y-65405000D03*
%TD*%
D13*
%TO.C,H6*%
X236193481Y-56832500D03*
%TD*%
D14*
%TO.C,R26*%
X162560000Y-59055000D03*
X162560000Y-56515000D03*
%TD*%
D17*
%TO.C,C37*%
X106891606Y-51276250D03*
D18*
X109431606Y-51276250D03*
%TD*%
D29*
%TO.C,P2*%
X230160981Y-55483125D03*
X227620981Y-55483125D03*
X225080981Y-55483125D03*
X222540981Y-55483125D03*
X220000981Y-55483125D03*
X217460981Y-55483125D03*
X214920981Y-55483125D03*
X212380981Y-55483125D03*
X209840981Y-55483125D03*
X207300981Y-55483125D03*
X204760981Y-55483125D03*
X202220981Y-55483125D03*
X230160981Y-58023125D03*
X227620981Y-58023125D03*
X225080981Y-58023125D03*
X222540981Y-58023125D03*
X220000981Y-58023125D03*
X217460981Y-58023125D03*
X214920981Y-58023125D03*
X212380981Y-58023125D03*
X209840981Y-58023125D03*
X207300981Y-58023125D03*
X204760981Y-58023125D03*
X202220981Y-58023125D03*
%TD*%
D14*
%TO.C,D8*%
X133244106Y-51276250D03*
X133244106Y-56356250D03*
%TD*%
D30*
%TO.C,P1*%
X201506606Y-136207500D03*
X206586606Y-136207500D03*
X209126606Y-136207500D03*
X211666606Y-136207500D03*
X214206606Y-136207500D03*
X216746606Y-136207500D03*
X219286606Y-136207500D03*
X221826606Y-136207500D03*
X224366606Y-136207500D03*
X226906606Y-136207500D03*
X229446606Y-136207500D03*
X231986606Y-136207500D03*
X234526606Y-136207500D03*
X237066606Y-136207500D03*
X239606606Y-136207500D03*
X242146606Y-136207500D03*
X244686606Y-136207500D03*
X247226606Y-136207500D03*
X249766606Y-136207500D03*
%TD*%
D15*
%TO.C,C51*%
X88265000Y-56515000D03*
X93345000Y-56515000D03*
%TD*%
D14*
%TO.C,R6*%
X235637856Y-65087500D03*
X235637856Y-62547500D03*
%TD*%
D17*
%TO.C,C26*%
X170232856Y-124460000D03*
D31*
X170232856Y-127000000D03*
%TD*%
D15*
%TO.C,R5*%
X151765000Y-117475000D03*
X156845000Y-117475000D03*
%TD*%
D23*
%TO.C,Q3*%
X107526606Y-63055500D03*
X107526606Y-58229500D03*
%TD*%
D30*
%TO.C,JP7*%
X156210000Y-76200000D03*
X153670000Y-76200000D03*
X151130000Y-76200000D03*
X148590000Y-76200000D03*
%TD*%
D20*
%TO.C,D3*%
X177800000Y-59055000D03*
X170180000Y-59055000D03*
%TD*%
D15*
%TO.C,C52*%
X80010000Y-63500000D03*
X85090000Y-63500000D03*
%TD*%
D14*
%TO.C,R28*%
X154940000Y-59055000D03*
X154940000Y-56515000D03*
%TD*%
%TO.C,R27*%
X158750000Y-59055000D03*
X158750000Y-56515000D03*
%TD*%
D28*
%TO.C,RN3*%
X211666606Y-69532500D03*
X214206606Y-69532500D03*
X216746606Y-69532500D03*
X219286606Y-69532500D03*
X221826606Y-69532500D03*
X224366606Y-69532500D03*
X226906606Y-69532500D03*
X229446606Y-69532500D03*
X231986606Y-69532500D03*
%TD*%
D15*
%TO.C,D1*%
X149992231Y-61436250D03*
X144912231Y-61436250D03*
%TD*%
%TO.C,D6*%
X149992231Y-56356250D03*
X144912231Y-56356250D03*
%TD*%
D22*
%TO.C,JP5*%
X181742231Y-72072500D03*
X181742231Y-69532500D03*
%TD*%
D15*
%TO.C,C49*%
X80010000Y-56197500D03*
X85090000Y-56197500D03*
%TD*%
D14*
%TO.C,R16*%
X258671196Y-54340353D03*
X258671196Y-51800353D03*
%TD*%
D20*
%TO.C,D4*%
X177800000Y-61595000D03*
X170180000Y-61595000D03*
%TD*%
D13*
%TO.C,H4*%
X258974106Y-134302500D03*
%TD*%
D15*
%TO.C,R30*%
X86995000Y-49530000D03*
X89535000Y-49530000D03*
%TD*%
D21*
%TO.C,R31*%
X90805000Y-62230000D03*
X88265000Y-62230000D03*
%TD*%
D32*
%TO.C,C6*%
X243869751Y-56062990D03*
D33*
X243869751Y-61142990D03*
%TD*%
D13*
%TO.C,H7*%
X194521606Y-134302500D03*
%TD*%
D14*
%TO.C,R13*%
X164465000Y-59055000D03*
X164465000Y-56515000D03*
%TD*%
D20*
%TO.C,U$14*%
X89535000Y-128818100D03*
X89535000Y-131358100D03*
X89535000Y-133898100D03*
X89535000Y-136438100D03*
X97155000Y-136438100D03*
X97155000Y-133898100D03*
X97155000Y-131358100D03*
X97155000Y-128818100D03*
%TD*%
D22*
%TO.C,JP1*%
X202300356Y-127476250D03*
X202300356Y-124936250D03*
X202300356Y-122396250D03*
%TD*%
D30*
%TO.C,JP8*%
X87630000Y-100330000D03*
X85090000Y-100330000D03*
%TD*%
D34*
%TO.C,U$7*%
X174042856Y-135572500D03*
X174042856Y-133032500D03*
X176582856Y-135572500D03*
X176582856Y-133032500D03*
X179122856Y-135572500D03*
X179122856Y-133032500D03*
X181662856Y-135572500D03*
X181662856Y-133032500D03*
X184202856Y-135572500D03*
X184202856Y-133032500D03*
%TD*%
D22*
%TO.C,JP2*%
X80089375Y-131445000D03*
X80089375Y-133985000D03*
%TD*%
D15*
%TO.C,R23*%
X151765000Y-114935000D03*
X156845000Y-114935000D03*
%TD*%
D30*
%TO.C,JP6*%
X239924106Y-89058750D03*
X237384106Y-89058750D03*
X234844106Y-89058750D03*
%TD*%
D35*
%TO.C,U$8*%
X247790762Y-54605580D03*
D36*
X247790762Y-57145580D03*
X247790762Y-59685580D03*
X247790762Y-62225580D03*
X247790762Y-64765580D03*
X247790762Y-67305580D03*
X247790762Y-69845580D03*
%TD*%
D28*
%TO.C,RN1*%
X249687231Y-127476250D03*
X247147231Y-127476250D03*
X244607231Y-127476250D03*
X242067231Y-127476250D03*
X239527231Y-127476250D03*
X236987231Y-127476250D03*
X234447231Y-127476250D03*
X231907231Y-127476250D03*
X229367231Y-127476250D03*
%TD*%
D37*
%TO.C,X2*%
X172728406Y-50482500D03*
X147734806Y-50482500D03*
D38*
X155913606Y-53022500D03*
X158199606Y-53022500D03*
X160485606Y-53022500D03*
X162771606Y-53022500D03*
X165057606Y-53022500D03*
X154770606Y-50482500D03*
X157056606Y-50482500D03*
X159342606Y-50482500D03*
X161628606Y-50482500D03*
X163914606Y-50482500D03*
X155913606Y-47942500D03*
X158199606Y-47942500D03*
X160485606Y-47942500D03*
X162771606Y-47942500D03*
X165057606Y-47942500D03*
%TD*%
D14*
%TO.C,R15*%
X156845000Y-59055000D03*
X156845000Y-56515000D03*
%TD*%
D28*
%TO.C,U$6*%
X207697856Y-74771250D03*
X205157856Y-74771250D03*
X202617856Y-74771250D03*
X200077856Y-74771250D03*
X197537856Y-74771250D03*
X194997856Y-74771250D03*
X192457856Y-74771250D03*
X189917856Y-74771250D03*
X187377856Y-74771250D03*
X184837856Y-74771250D03*
X184837856Y-82391250D03*
X187377856Y-82391250D03*
X189917856Y-82391250D03*
X192457856Y-82391250D03*
X194997856Y-82391250D03*
X197537856Y-82391250D03*
X200077856Y-82391250D03*
X202617856Y-82391250D03*
X205157856Y-82391250D03*
X207697856Y-82391250D03*
%TD*%
D15*
%TO.C,R19*%
X77978000Y-50292000D03*
X80518000Y-50292000D03*
%TD*%
D14*
%TO.C,R1*%
X131100981Y-57150000D03*
X131100981Y-49530000D03*
%TD*%
D28*
%TO.C,IC5*%
X224366606Y-120332500D03*
X221826606Y-120332500D03*
X219286606Y-120332500D03*
X216746606Y-120332500D03*
X214206606Y-120332500D03*
X211666606Y-120332500D03*
X209126606Y-120332500D03*
X206586606Y-120332500D03*
X206586606Y-127952500D03*
X209126606Y-127952500D03*
X211666606Y-127952500D03*
X214206606Y-127952500D03*
X216746606Y-127952500D03*
X219286606Y-127952500D03*
X221826606Y-127952500D03*
X224366606Y-127952500D03*
%TD*%
D30*
%TO.C,U$11*%
X192457856Y-122555000D03*
X189917856Y-122555000D03*
X187377856Y-122555000D03*
X184837856Y-122555000D03*
X182297856Y-122555000D03*
X179757856Y-122555000D03*
%TD*%
D28*
%TO.C,U$5*%
X234844106Y-74771250D03*
X232304106Y-74771250D03*
X229764106Y-74771250D03*
X227224106Y-74771250D03*
X224684106Y-74771250D03*
X222144106Y-74771250D03*
X219604106Y-74771250D03*
X217064106Y-74771250D03*
X214524106Y-74771250D03*
X211984106Y-74771250D03*
X211984106Y-82391250D03*
X214524106Y-82391250D03*
X217064106Y-82391250D03*
X219604106Y-82391250D03*
X222144106Y-82391250D03*
X224684106Y-82391250D03*
X227224106Y-82391250D03*
X229764106Y-82391250D03*
X232304106Y-82391250D03*
X234844106Y-82391250D03*
%TD*%
D39*
%TO.C,CN4*%
X237904806Y-44767500D03*
X233942406Y-44767500D03*
X229980006Y-44767500D03*
X226017606Y-44767500D03*
X222055206Y-44767500D03*
X218092806Y-44767500D03*
X214130406Y-44767500D03*
X210168006Y-44767500D03*
X206205606Y-44767500D03*
X202243206Y-44767500D03*
X198280806Y-44767500D03*
X194318406Y-44767500D03*
%TD*%
D24*
%TO.C,IC9*%
X178011606Y-100965000D03*
D40*
X175471606Y-103505000D03*
X178011606Y-103505000D03*
X175471606Y-106045000D03*
X178011606Y-106045000D03*
X175471606Y-108585000D03*
X178011606Y-111125000D03*
X178011606Y-108585000D03*
X180551606Y-111125000D03*
X180551606Y-108585000D03*
X183091606Y-111125000D03*
X183091606Y-108585000D03*
X185631606Y-111125000D03*
X185631606Y-108585000D03*
X188171606Y-111125000D03*
X188171606Y-108585000D03*
X190711606Y-111125000D03*
X193251606Y-108585000D03*
X190711606Y-108585000D03*
X193251606Y-106045000D03*
X190711606Y-106045000D03*
X193251606Y-103505000D03*
X190711606Y-103505000D03*
X193251606Y-100965000D03*
X190711606Y-100965000D03*
X193251606Y-98425000D03*
X190711606Y-98425000D03*
X193251606Y-95885000D03*
X190711606Y-93345000D03*
X190711606Y-95885000D03*
X188171606Y-93345000D03*
X188171606Y-95885000D03*
X185631606Y-93345000D03*
X185631606Y-95885000D03*
X183091606Y-93345000D03*
X183091606Y-95885000D03*
X180551606Y-93345000D03*
X180551606Y-95885000D03*
X178011606Y-93345000D03*
X175471606Y-95885000D03*
X178011606Y-95885000D03*
X175471606Y-98425000D03*
X178011606Y-98425000D03*
X175471606Y-100965000D03*
%TD*%
D30*
%TO.C,JP3*%
X244210356Y-89217500D03*
X246750356Y-89217500D03*
%TD*%
D13*
%TO.C,H2*%
X108796606Y-43815000D03*
%TD*%
D28*
%TO.C,RN5*%
X187219106Y-69532500D03*
X189759106Y-69532500D03*
X192299106Y-69532500D03*
X194839106Y-69532500D03*
X197379106Y-69532500D03*
X199919106Y-69532500D03*
X202459106Y-69532500D03*
X204999106Y-69532500D03*
X207539106Y-69532500D03*
%TD*%
D17*
%TO.C,C38*%
X112447856Y-51276250D03*
D18*
X114987856Y-51276250D03*
%TD*%
D15*
%TO.C,U$3*%
X146261606Y-66040000D03*
X147531606Y-64135000D03*
X148801606Y-66040000D03*
%TD*%
D30*
%TO.C,P6*%
X192457856Y-127317500D03*
X189917856Y-127317500D03*
X187377856Y-127317500D03*
X184837856Y-127317500D03*
X182297856Y-127317500D03*
X179757856Y-127317500D03*
%TD*%
D15*
%TO.C,R17*%
X196744106Y-120015000D03*
X199284106Y-120015000D03*
%TD*%
%TO.C,R29*%
X110490000Y-128270000D03*
X113030000Y-128270000D03*
%TD*%
%TO.C,LED1*%
X148166606Y-135731250D03*
X150706606Y-135731250D03*
%TD*%
D14*
%TO.C,R4*%
X120015000Y-66675000D03*
X120015000Y-59055000D03*
%TD*%
D22*
%TO.C,JP4*%
X175392231Y-127158750D03*
X175392231Y-124618750D03*
%TD*%
D20*
%TO.C,D2*%
X177800000Y-56515000D03*
X170180000Y-56515000D03*
%TD*%
D14*
%TO.C,R7*%
X162560000Y-66040000D03*
X162560000Y-63500000D03*
%TD*%
D41*
%TO.C,S1*%
X87350600Y-41300400D03*
X82829400Y-41300400D03*
D42*
X88595200Y-43789600D03*
X81584800Y-43789600D03*
%TD*%
D24*
%TO.C,IC11*%
X217381606Y-103505000D03*
D25*
X219921606Y-100965000D03*
X217381606Y-100965000D03*
X219921606Y-98425000D03*
X217381606Y-98425000D03*
X219921606Y-95885000D03*
X217381606Y-93345000D03*
X217381606Y-95885000D03*
X214841606Y-93345000D03*
X214841606Y-95885000D03*
X212301606Y-93345000D03*
X212301606Y-95885000D03*
X209761606Y-93345000D03*
X209761606Y-95885000D03*
X207221606Y-93345000D03*
X207221606Y-95885000D03*
X204681606Y-93345000D03*
X202141606Y-95885000D03*
X204681606Y-95885000D03*
X202141606Y-98425000D03*
X204681606Y-98425000D03*
X202141606Y-100965000D03*
X204681606Y-100965000D03*
X202141606Y-103505000D03*
X204681606Y-103505000D03*
X202141606Y-106045000D03*
X204681606Y-106045000D03*
X202141606Y-108585000D03*
X204681606Y-111125000D03*
X204681606Y-108585000D03*
X207221606Y-111125000D03*
X207221606Y-108585000D03*
X209761606Y-111125000D03*
X209761606Y-108585000D03*
X212301606Y-111125000D03*
X212301606Y-108585000D03*
X214841606Y-111125000D03*
X214841606Y-108585000D03*
X217381606Y-111125000D03*
X219921606Y-108585000D03*
X217381606Y-108585000D03*
X219921606Y-106045000D03*
X217381606Y-106045000D03*
X219921606Y-103505000D03*
%TD*%
D15*
%TO.C,R25*%
X90805000Y-100965000D03*
X93345000Y-100965000D03*
%TD*%
D43*
%TO.C,P3*%
X163247856Y-94297500D03*
X163247856Y-96837500D03*
X163247856Y-99377500D03*
X163247856Y-101917500D03*
X163247856Y-104457500D03*
X163247856Y-106997500D03*
X163247856Y-109537500D03*
X163247856Y-112077500D03*
X163247856Y-114617500D03*
X163247856Y-117157500D03*
X163247856Y-119697500D03*
X163247856Y-122237500D03*
X165787856Y-94297500D03*
X165787856Y-96837500D03*
X165787856Y-99377500D03*
X165787856Y-101917500D03*
X165787856Y-104457500D03*
X165787856Y-106997500D03*
X165787856Y-109537500D03*
X165787856Y-112077500D03*
X165787856Y-114617500D03*
X165787856Y-117157500D03*
X165787856Y-119697500D03*
X165787856Y-122237500D03*
%TD*%
D44*
%TO.C,J1*%
X250317856Y-62309375D03*
D45*
X253417856Y-57509375D03*
D44*
X256417856Y-62309375D03*
%TD*%
D30*
%TO.C,P7*%
X201506606Y-131921250D03*
X206586606Y-131921250D03*
X209126606Y-131921250D03*
X211666606Y-131921250D03*
X214206606Y-131921250D03*
X216746606Y-131921250D03*
X219286606Y-131921250D03*
X221826606Y-131921250D03*
X224366606Y-131921250D03*
X226906606Y-131921250D03*
X229446606Y-131921250D03*
X231986606Y-131921250D03*
X234526606Y-131921250D03*
X237066606Y-131921250D03*
X239606606Y-131921250D03*
X242146606Y-131921250D03*
X244686606Y-131921250D03*
X247226606Y-131921250D03*
X249766606Y-131921250D03*
%TD*%
D13*
%TO.C,H5*%
X196188481Y-56753125D03*
%TD*%
D22*
%TO.C,U$12*%
X78740000Y-83820000D03*
X78740000Y-71120000D03*
X78740000Y-81280000D03*
X78740000Y-78740000D03*
X78740000Y-73660000D03*
X78740000Y-86360000D03*
X78740000Y-76200000D03*
X78740000Y-88900000D03*
%TD*%
D30*
%TO.C,JP10*%
X244527856Y-64770000D03*
X241987856Y-64770000D03*
X239447856Y-64770000D03*
%TD*%
D28*
%TO.C,RN2*%
X211666606Y-65405000D03*
X214206606Y-65405000D03*
X216746606Y-65405000D03*
X219286606Y-65405000D03*
X221826606Y-65405000D03*
X224366606Y-65405000D03*
X226906606Y-65405000D03*
X229446606Y-65405000D03*
X231986606Y-65405000D03*
%TD*%
D15*
%TO.C,R24*%
X141986000Y-136398000D03*
X144526000Y-136398000D03*
%TD*%
D20*
%TO.C,U$4*%
X117475000Y-128818100D03*
X117475000Y-131358100D03*
X117475000Y-133898100D03*
X117475000Y-136438100D03*
X125095000Y-136438100D03*
X125095000Y-133898100D03*
X125095000Y-131358100D03*
X125095000Y-128818100D03*
%TD*%
D46*
%TO.C,CN3*%
X257942231Y-112855375D03*
X257942231Y-108892975D03*
X257942231Y-104930575D03*
X257942231Y-100968175D03*
X257942231Y-97005775D03*
X257942231Y-93043375D03*
%TD*%
D16*
%TO.C,R11*%
X147320000Y-70485000D03*
X147320000Y-73025000D03*
%TD*%
D20*
%TO.C,D11*%
X177800000Y-69215000D03*
X170180000Y-69215000D03*
%TD*%
D47*
%TO.C,X1*%
X96410000Y-41225000D03*
D48*
X91860000Y-44525000D03*
X101460000Y-49025000D03*
D47*
X92410000Y-52225000D03*
D48*
X99060000Y-47625000D03*
%TD*%
D15*
%TO.C,R32*%
X86995000Y-52705000D03*
X89535000Y-52705000D03*
%TD*%
D30*
%TO.C,BEEP1*%
X244708120Y-52378121D03*
X242168120Y-52378121D03*
%TD*%
D20*
%TO.C,D9*%
X177800000Y-64135000D03*
X170180000Y-64135000D03*
%TD*%
D21*
%TO.C,R20*%
X174836606Y-121443750D03*
X172296606Y-121443750D03*
%TD*%
D49*
%TO.C,C5*%
X164438481Y-130333750D03*
D50*
X164438481Y-135413750D03*
%TD*%
D24*
%TO.C,U$1*%
X124460000Y-74930000D03*
D51*
X121920000Y-72390000D03*
X121920000Y-74930000D03*
X119380000Y-72390000D03*
X119380000Y-74930000D03*
X116840000Y-72390000D03*
X114300000Y-74930000D03*
X116840000Y-74930000D03*
X114300000Y-77470000D03*
X116840000Y-77470000D03*
X114300000Y-80010000D03*
X116840000Y-80010000D03*
X114300000Y-82550000D03*
X116840000Y-82550000D03*
X114300000Y-85090000D03*
X116840000Y-85090000D03*
X114300000Y-87630000D03*
X116840000Y-90170000D03*
X116840000Y-87630000D03*
X119380000Y-90170000D03*
X119380000Y-87630000D03*
X121920000Y-90170000D03*
X121920000Y-87630000D03*
X124460000Y-90170000D03*
X124460000Y-87630000D03*
X127000000Y-90170000D03*
X127000000Y-87630000D03*
X129540000Y-90170000D03*
X132080000Y-87630000D03*
X129540000Y-87630000D03*
X132080000Y-85090000D03*
X129540000Y-85090000D03*
X132080000Y-82550000D03*
X129540000Y-82550000D03*
X132080000Y-80010000D03*
X129540000Y-80010000D03*
X132080000Y-77470000D03*
X129540000Y-77470000D03*
X132080000Y-74930000D03*
X129540000Y-72390000D03*
X129540000Y-74930000D03*
X127000000Y-72390000D03*
X127000000Y-74930000D03*
X124460000Y-72390000D03*
%TD*%
D52*
%TO.C,C55*%
X110705000Y-104140000D03*
X109005000Y-104140000D03*
%TD*%
%TO.C,C57*%
X110705000Y-111760000D03*
X109005000Y-111760000D03*
%TD*%
D53*
%TO.C,C61*%
X114935000Y-102450000D03*
X114935000Y-100750000D03*
%TD*%
%TO.C,C53*%
X120650000Y-102450000D03*
X120650000Y-100750000D03*
%TD*%
D52*
%TO.C,C62*%
X121285000Y-106680000D03*
X119585000Y-106680000D03*
%TD*%
D53*
%TO.C,C69*%
X116840000Y-111975000D03*
X116840000Y-110275000D03*
%TD*%
D54*
%TO.C,C64*%
X117475000Y-104560000D03*
X117475000Y-106260000D03*
%TD*%
D55*
%TO.C,C68*%
X112600000Y-109220000D03*
X114300000Y-109220000D03*
%TD*%
D54*
%TO.C,C47*%
X111760000Y-114085000D03*
X111760000Y-115785000D03*
%TD*%
%TO.C,C46*%
X121285000Y-114085000D03*
X121285000Y-115785000D03*
%TD*%
D53*
%TO.C,C54*%
X117633200Y-102450000D03*
X117633200Y-100750000D03*
%TD*%
D54*
%TO.C,C45*%
X114935000Y-114085000D03*
X114935000Y-115785000D03*
%TD*%
D52*
%TO.C,C63*%
X121285000Y-109220000D03*
X119585000Y-109220000D03*
%TD*%
D55*
%TO.C,C58*%
X122975000Y-110966800D03*
X124675000Y-110966800D03*
%TD*%
D52*
%TO.C,C56*%
X110705000Y-109220000D03*
X109005000Y-109220000D03*
%TD*%
D54*
%TO.C,C48*%
X118110000Y-114085000D03*
X118110000Y-115785000D03*
%TD*%
D55*
%TO.C,C67*%
X112600000Y-106680000D03*
X114300000Y-106680000D03*
%TD*%
%TO.C,C60*%
X122975000Y-104933200D03*
X124675000Y-104933200D03*
%TD*%
%TO.C,C59*%
X122975000Y-107950000D03*
X124675000Y-107950000D03*
%TD*%
%LPD*%
M02*
