M48
; DRILL file {KiCad 8.0.2} date 2024-05-25T17:17:23+0200
; FORMAT={-:-/ absolute / metric / decimal}
; #@! TF.CreationDate,2024-05-25T17:17:23+02:00
; #@! TF.GenerationSoftware,Kicad,Pcbnew,8.0.2
; #@! TF.FileFunction,Plated,1,2,PTH
FMAT,2
METRIC
; #@! TA.AperFunction,Plated,PTH,ViaDrill
T1C0.300
; #@! TA.AperFunction,Plated,PTH,ViaDrill
T2C0.600
; #@! TA.AperFunction,Plated,PTH,ComponentDrill
T3C0.800
; #@! TA.AperFunction,Plated,PTH,ComponentDrill
T4C0.813
; #@! TA.AperFunction,Plated,PTH,ComponentDrill
T5C0.914
; #@! TA.AperFunction,Plated,PTH,ComponentDrill
T6C1.000
; #@! TA.AperFunction,Plated,PTH,ComponentDrill
T7C1.016
; #@! TA.AperFunction,Plated,PTH,ComponentDrill
T8C1.499
; #@! TA.AperFunction,Plated,PTH,ComponentDrill
T9C2.311
%
G90
G05
T1
X76.2Y-93.726
X77.249Y-98.431
X78.049Y-101.316
X78.74Y-121.285
X81.28Y-70.612
X81.28Y-104.14
X81.334Y-96.527
X81.788Y-65.278
X81.915Y-102.87
X82.176Y-96.648
X82.55Y-79.375
X82.55Y-101.6
X82.55Y-102.45
X82.55Y-95.885
X83.2Y-75.803
X83.208Y-103.785
X83.312Y-50.546
X83.82Y-66.436
X83.85Y-73.553
X84.074Y-124.46
X84.891Y-127.002
X85.09Y-51.435
X85.09Y-67.056
X85.725Y-97.155
X87.122Y-57.658
X87.122Y-68.692
X87.63Y-124.46
X88.285Y-94.172
X89.068Y-74.266
X89.408Y-65.024
X89.408Y-69.492
X90.282Y-69.596
X90.402Y-63.648
X90.737Y-64.945
X90.805Y-90.805
X90.805Y-93.345
X90.932Y-70.358
X91.44Y-92.075
X92.075Y-89.535
X92.223Y-71.111
X92.545Y-104.01
X92.71Y-84.455
X93.34Y-88.27
X93.345Y-81.28
X93.345Y-83.185
X93.345Y-85.725
X93.345Y-96.52
X93.576Y-127.0
X93.98Y-80.01
X94.615Y-88.265
X94.615Y-97.32
X94.742Y-62.484
X95.25Y-78.74
X95.885Y-54.498
X95.885Y-57.15
X95.885Y-86.995
X95.885Y-91.44
X96.036Y-105.363
X96.52Y-70.612
X96.52Y-72.39
X97.071Y-73.457
X97.912Y-73.332
X99.21Y-102.133
X99.54Y-72.34
X99.568Y-65.024
X99.603Y-78.327
X99.695Y-79.375
X99.695Y-80.645
X99.695Y-81.915
X99.695Y-83.185
X99.695Y-84.455
X99.695Y-85.725
X99.695Y-86.995
X99.695Y-89.535
X99.695Y-90.805
X99.695Y-92.075
X99.695Y-93.345
X99.784Y-100.272
X99.909Y-103.72
X99.941Y-77.547
X100.076Y-76.708
X100.33Y-113.03
X100.621Y-74.595
X100.904Y-70.444
X100.965Y-115.57
X100.965Y-86.995
X100.965Y-88.265
X100.965Y-97.32
X101.067Y-53.302
X101.6Y-96.52
X101.6Y-133.35
X102.061Y-100.321
X102.161Y-117.549
X102.235Y-102.87
X102.578Y-83.086
X102.578Y-91.44
X102.87Y-93.345
X102.87Y-95.25
X102.87Y-102.235
X102.87Y-113.03
X102.885Y-118.15
X103.378Y-86.36
X104.14Y-77.47
X104.14Y-91.44
X104.14Y-112.788
X105.41Y-92.075
X105.41Y-94.615
X106.045Y-74.295
X106.045Y-93.345
X106.045Y-126.365
X106.045Y-128.27
X106.172Y-72.644
X106.301Y-90.671
X106.573Y-94.673
X106.68Y-95.885
X107.305Y-77.47
X107.315Y-76.67
X107.442Y-68.072
X107.49Y-100.282
X107.998Y-76.02
X108.151Y-94.565
X108.173Y-93.616
X108.585Y-105.41
X108.585Y-108.188
X108.585Y-114.935
X108.659Y-120.576
X108.829Y-84.928
X109.22Y-83.82
X109.772Y-87.63
X110.022Y-101.433
X110.34Y-115.958
X110.49Y-73.66
X110.705Y-107.688
X110.705Y-113.03
X110.741Y-78.224
X110.998Y-57.658
X110.998Y-60.96
X111.062Y-103.893
X111.125Y-88.9
X111.233Y-113.557
X111.252Y-84.328
X111.506Y-86.36
X111.637Y-96.038
X111.654Y-124.837
X112.114Y-103.019
X112.395Y-107.95
X112.522Y-95.943
X112.539Y-102.594
X113.03Y-81.915
X113.03Y-90.17
X113.03Y-116.205
X113.665Y-104.14
X113.665Y-114.085
X113.743Y-94.329
X114.072Y-100.837
X114.442Y-70.783
X114.587Y-94.431
X114.935Y-109.855
X114.935Y-112.395
X114.935Y-132.715
X115.1Y-123.19
X115.374Y-94.464
X115.57Y-106.68
X115.57Y-122.555
X115.57Y-131.445
X115.57Y-135.255
X115.696Y-93.677
X116.078Y-63.388
X116.205Y-102.45
X116.205Y-114.085
X116.586Y-61.976
X116.665Y-121.27
X116.84Y-104.14
X116.991Y-123.81
X117.34Y-115.949
X117.348Y-62.738
X117.856Y-86.36
X117.918Y-94.572
X118.11Y-81.915
X118.11Y-109.22
X118.158Y-122.965
X118.33Y-102.45
X118.422Y-93.001
X118.738Y-94.916
X118.745Y-106.045
X118.998Y-91.948
X119.085Y-122.054
X119.109Y-122.996
X119.238Y-92.764
X119.38Y-116.205
X119.387Y-100.583
X119.621Y-121.394
X119.932Y-69.939
X120.015Y-114.085
X120.142Y-91.298
X120.405Y-121.066
X120.776Y-69.834
X121.076Y-93.356
X121.255Y-121.066
X121.285Y-107.95
X121.573Y-92.791
X121.899Y-93.567
X121.92Y-76.2
X121.964Y-91.991
X122.037Y-121.066
X122.77Y-102.45
X122.936Y-85.09
X122.975Y-103.505
X122.975Y-106.68
X122.975Y-109.22
X122.975Y-109.855
X123.269Y-91.107
X123.698Y-60.96
X123.825Y-94.517
X124.117Y-121.418
X124.206Y-59.182
X124.254Y-68.946
X124.46Y-77.724
X124.78Y-95.499
X124.999Y-101.712
X125.095Y-103.188
X125.095Y-106.045
X125.095Y-116.205
X125.095Y-127.0
X125.446Y-80.01
X125.54Y-121.41
X125.73Y-81.28
X125.779Y-96.149
X125.845Y-68.438
X126.096Y-78.74
X126.105Y-111.843
X126.365Y-92.71
X126.703Y-121.322
X127.762Y-58.42
X127.812Y-121.757
X128.161Y-73.66
X128.195Y-98.369
X128.27Y-86.36
X128.27Y-92.71
X128.778Y-84.074
X129.248Y-97.21
X129.286Y-103.088
X129.521Y-117.256
X129.54Y-109.855
X129.54Y-111.088
X129.54Y-118.11
X129.54Y-127.0
X129.699Y-68.623
X129.701Y-111.913
X129.801Y-104.252
X130.149Y-114.421
X130.175Y-103.505
X130.183Y-126.3
X130.302Y-104.902
X130.438Y-96.29
X130.694Y-99.557
X130.739Y-92.792
X130.81Y-62.738
X130.844Y-117.49
X130.848Y-101.288
X131.064Y-61.722
X131.064Y-78.994
X131.318Y-63.5
X131.335Y-84.048
X131.344Y-99.04
X131.568Y-117.842
X131.625Y-114.292
X131.826Y-102.362
X131.938Y-91.044
X132.165Y-93.703
X132.334Y-112.268
X132.505Y-98.637
X132.992Y-94.714
X133.184Y-98.282
X133.235Y-127.804
X133.247Y-59.902
X133.35Y-78.994
X133.35Y-90.17
X133.35Y-118.11
X133.437Y-97.543
X133.487Y-136.007
X133.985Y-85.09
X133.985Y-87.63
X134.083Y-113.885
X134.253Y-93.736
X134.366Y-58.731
X134.376Y-95.889
X134.462Y-111.063
X134.54Y-112.272
X134.62Y-57.912
X134.62Y-76.2
X134.642Y-92.083
X134.661Y-68.751
X134.688Y-65.648
X134.732Y-71.049
X134.874Y-114.3
X135.031Y-93.365
X135.095Y-120.445
X135.255Y-74.93
X135.36Y-62.738
X135.435Y-94.113
X135.523Y-71.358
X135.636Y-56.388
X135.636Y-98.806
X135.888Y-80.514
X135.89Y-82.55
X135.89Y-85.852
X135.89Y-88.9
X135.89Y-93.345
X135.89Y-109.662
X136.264Y-68.656
X136.433Y-78.449
X136.525Y-92.71
X136.525Y-115.685
X136.673Y-94.019
X136.879Y-95.319
X136.933Y-73.13
X137.364Y-66.294
X137.414Y-112.014
X137.414Y-113.665
X137.821Y-72.33
X138.085Y-102.362
X138.165Y-116.09
X138.176Y-65.024
X138.43Y-57.912
X138.537Y-126.194
X138.572Y-68.433
X138.86Y-110.958
X138.909Y-106.377
X138.938Y-73.914
X138.938Y-114.339
X139.065Y-121.285
X139.192Y-97.79
X139.429Y-72.884
X139.446Y-109.728
X139.5Y-81.432
X139.954Y-77.47
X140.054Y-98.74
X140.12Y-70.993
X140.35Y-83.336
X140.35Y-91.376
X140.35Y-92.861
X140.716Y-104.394
X140.752Y-72.753
X140.97Y-84.455
X140.97Y-85.725
X140.97Y-86.995
X140.97Y-88.265
X140.97Y-89.535
X141.327Y-69.863
X141.349Y-110.958
X141.351Y-112.716
X141.429Y-72.239
X141.605Y-131.445
X141.784Y-68.591
X141.986Y-79.756
X141.986Y-98.298
X142.875Y-117.475
X143.212Y-113.792
X143.256Y-49.276
X143.256Y-64.262
X143.256Y-76.454
X143.256Y-110.958
X143.51Y-101.742
X143.51Y-118.11
X144.234Y-81.305
X144.272Y-63.246
X144.526Y-117.348
X145.26Y-124.94
X145.288Y-118.364
X145.796Y-69.088
X145.834Y-80.01
X147.066Y-112.014
X147.574Y-129.54
X148.732Y-99.594
X149.098Y-115.824
X149.202Y-96.528
X149.225Y-69.215
X149.86Y-85.09
X149.86Y-124.402
X150.368Y-66.04
X150.368Y-68.58
X150.495Y-119.38
X150.495Y-125.73
X150.622Y-81.788
X150.876Y-94.615
X151.378Y-110.958
X151.765Y-119.38
X151.765Y-124.46
X151.892Y-112.014
X152.654Y-98.298
X152.908Y-115.062
X153.162Y-97.17
X153.411Y-110.266
X153.416Y-64.262
X153.416Y-105.41
X153.439Y-120.064
X153.612Y-125.08
X153.67Y-126.48
X154.281Y-101.505
X154.305Y-68.58
X154.608Y-112.652
X154.686Y-78.232
X154.94Y-87.63
X154.955Y-90.155
X155.448Y-118.872
X155.575Y-89.535
X155.666Y-124.222
X155.7Y-115.695
X156.136Y-90.096
X156.21Y-80.01
X156.21Y-87.63
X156.301Y-116.296
X156.349Y-124.728
X156.473Y-102.839
X156.487Y-106.35
X156.555Y-119.891
X156.845Y-92.075
X156.98Y-86.51
X157.474Y-89.251
X157.506Y-120.778
X157.513Y-88.401
X157.59Y-87.101
X158.093Y-127.433
X158.115Y-55.245
X158.455Y-92.249
X158.521Y-121.829
X158.692Y-120.562
X158.742Y-125.08
X158.75Y-83.185
X158.75Y-97.155
X158.976Y-119.336
X159.009Y-100.875
X159.385Y-81.28
X159.385Y-90.805
X159.385Y-125.73
X159.653Y-92.7
X159.673Y-121.42
X159.779Y-126.68
X159.894Y-81.915
X160.157Y-122.118
X160.528Y-104.394
X160.528Y-109.474
X160.528Y-129.286
X160.676Y-81.343
X160.796Y-122.679
X161.182Y-79.739
X161.29Y-88.265
X161.387Y-123.29
X161.798Y-117.602
X162.052Y-122.936
X163.561Y-87.63
X163.576Y-68.072
X163.898Y-84.768
X164.465Y-113.665
X165.354Y-64.262
X165.735Y-71.12
X166.37Y-72.39
X166.963Y-116.532
X167.047Y-69.019
X169.171Y-82.176
X169.926Y-122.233
X170.33Y-87.765
X170.688Y-76.708
X170.707Y-118.539
X171.196Y-87.884
X172.085Y-80.01
X172.72Y-86.995
X174.384Y-86.607
X175.088Y-85.745
X175.26Y-71.755
X175.768Y-65.786
X176.415Y-90.564
X176.53Y-72.39
X176.784Y-87.63
X177.8Y-82.55
X179.832Y-65.824
X180.975Y-88.9
X181.825Y-88.9
X183.515Y-89.535
X188.595Y-89.535
X195.834Y-88.9
X196.088Y-113.792
X196.271Y-88.171
X196.733Y-96.439
X197.104Y-114.46
X204.721Y-113.054
X207.264Y-114.3
X208.761Y-100.463
X208.761Y-102.823
X209.55Y-113.284
X231.902Y-113.68
X232.322Y-90.095
X233.086Y-92.921
X233.964Y-99.64
X233.964Y-101.282
X250.854Y-66.554
T2
X161.502Y-124.46
X164.994Y-127.476
X166.105Y-84.614
X166.51Y-78.533
X167.852Y-106.521
X167.852Y-118.427
X167.88Y-81.266
X168.248Y-78.85
X168.379Y-108.371
X168.819Y-114.943
X168.923Y-121.561
X168.956Y-77.812
X169.934Y-92.046
X170.031Y-98.584
X170.031Y-100.647
X170.55Y-95.726
X170.709Y-103.188
X171.662Y-105.886
X171.666Y-94.044
X171.782Y-100.153
X171.792Y-98.425
X172.297Y-106.997
X172.614Y-95.567
X173.232Y-91.58
X173.249Y-130.175
X173.567Y-96.837
X173.567Y-100.965
X174.043Y-110.014
X174.043Y-113.983
X174.992Y-91.405
X175.313Y-111.284
X176.107Y-76.835
X176.107Y-80.01
X176.583Y-110.966
X176.742Y-112.554
X176.742Y-115.729
X176.742Y-119.38
X177.059Y-104.775
X178.012Y-116.681
X178.35Y-87.295
X178.647Y-113.665
X178.805Y-107.315
X179.282Y-79.216
X179.599Y-116.84
X180.552Y-81.756
X180.71Y-86.518
X180.734Y-91.916
X180.869Y-120.332
X181.028Y-114.141
X181.345Y-75.724
X181.822Y-96.679
X182.139Y-102.235
X182.139Y-106.521
X182.298Y-82.391
X183.25Y-79.534
X183.25Y-97.79
X183.409Y-73.819
X183.727Y-78.105
X184.362Y-115.887
X185.155Y-91.916
X185.632Y-104.775
X185.79Y-84.296
X185.949Y-79.851
X186.108Y-120.968
X186.108Y-129.064
X186.267Y-97.631
X186.425Y-91.916
X186.795Y-86.605
X186.902Y-78.899
X186.902Y-107.315
X186.902Y-113.506
X187.695Y-91.916
X187.695Y-103.029
X188.172Y-119.062
X188.32Y-88.129
X188.489Y-71.279
X188.648Y-72.866
X188.648Y-103.981
X189.442Y-113.506
X189.881Y-87.412
X190.077Y-76.835
X191.029Y-84.931
X191.664Y-115.252
X191.823Y-78.422
X192.558Y-89.953
X192.775Y-77.47
X192.775Y-85.09
X193.41Y-86.836
X194.045Y-120.015
X194.522Y-91.599
X194.68Y-117.316
X194.839Y-78.422
X194.998Y-86.201
X195.182Y-123.931
X195.336Y-110.649
X195.957Y-100.85
X196.109Y-50.8
X196.268Y-76.994
X197.062Y-124.142
X197.22Y-85.09
X197.379Y-88.106
X197.532Y-95.754
X198.056Y-113.014
X198.173Y-80.169
X198.173Y-93.345
X198.808Y-86.36
X198.808Y-91.44
X198.967Y-96.837
X199.149Y-112.394
X199.284Y-110.014
X199.443Y-108.585
X199.919Y-85.09
X199.919Y-98.425
X200.078Y-88.265
X200.078Y-91.281
X200.554Y-93.821
X201.507Y-85.09
X201.665Y-110.172
X202.142Y-87.63
X202.142Y-111.76
X203.412Y-97.472
X203.412Y-112.395
X203.888Y-85.884
X204.682Y-88.582
X205.317Y-122.872
X205.952Y-89.535
X206.269Y-103.346
X206.428Y-73.025
X206.428Y-85.09
X206.587Y-106.362
X206.644Y-99.639
X207.222Y-89.852
X207.719Y-98.224
X208.492Y-90.487
X209.444Y-80.01
X209.762Y-105.093
X209.92Y-73.025
X210.397Y-103.346
X210.397Y-130.175
X210.714Y-83.979
X210.873Y-115.094
X211.032Y-97.472
X211.032Y-105.727
X211.667Y-100.965
X212.302Y-102.87
X212.302Y-114.617
X212.619Y-84.455
X213.254Y-87.63
X213.572Y-115.094
X213.73Y-91.757
X214.048Y-86.042
X214.842Y-100.33
X215.0Y-97.949
X215.477Y-116.364
X215.794Y-87.947
X216.112Y-105.41
X217.54Y-115.094
X218.017Y-62.071
X218.334Y-87.947
X218.969Y-115.57
X220.08Y-91.44
X220.874Y-88.582
X221.35Y-99.536
X221.509Y-104.14
X222.938Y-62.547
X223.097Y-71.358
X223.097Y-88.265
X223.097Y-89.535
X223.255Y-92.869
X223.414Y-111.125
X223.732Y-91.757
X224.367Y-95.885
X224.367Y-98.266
X224.367Y-99.536
X224.684Y-94.615
X224.843Y-116.999
X225.16Y-104.14
X225.637Y-122.237
X225.954Y-80.645
X226.113Y-87.471
X227.224Y-93.98
X227.224Y-127.953
X227.542Y-88.424
X228.177Y-95.25
X228.494Y-84.455
X228.812Y-91.757
X231.034Y-86.201
X231.034Y-89.218
X232.304Y-86.995
X233.574Y-76.835
X233.574Y-84.376
X234.209Y-68.104
X234.209Y-105.41
X234.368Y-70.326
X235.479Y-85.407
X235.479Y-92.71
X235.797Y-70.326
X235.955Y-95.091
X236.329Y-84.455
X236.59Y-76.994
X236.749Y-71.914
X236.749Y-102.87
X236.908Y-113.347
X237.384Y-86.36
X238.019Y-76.517
X238.019Y-92.71
X238.178Y-116.999
X238.813Y-70.961
X239.13Y-69.532
X239.289Y-100.33
X239.448Y-103.188
X239.607Y-86.995
X239.607Y-92.551
X239.607Y-107.632
X240.559Y-75.882
X240.559Y-116.522
X240.877Y-86.042
X240.877Y-97.79
X241.512Y-114.459
X241.67Y-69.691
X241.829Y-80.962
X242.147Y-90.805
X242.464Y-86.042
X242.464Y-88.582
X242.782Y-114.617
X243.417Y-79.692
X243.417Y-92.551
X244.21Y-75.882
X244.369Y-71.755
X244.687Y-122.396
X245.322Y-80.962
X245.48Y-70.644
X246.274Y-93.98
X246.274Y-95.25
X246.433Y-66.04
X246.592Y-79.692
X246.909Y-121.602
X247.227Y-96.52
X247.862Y-97.79
X248.02Y-122.396
X248.338Y-123.825
X248.497Y-99.06
X248.497Y-100.965
X248.973Y-118.427
X249.132Y-125.095
X249.608Y-91.599
X249.608Y-117.157
X250.084Y-55.562
X251.672Y-108.267
X251.83Y-93.027
X251.83Y-96.837
X251.83Y-100.965
X251.83Y-104.457
X251.83Y-113.03
X257.754Y-55.415
T4
X77.978Y-47.362
X77.978Y-50.292
X78.661Y-106.045
X80.01Y-56.197
X80.01Y-59.69
X80.01Y-63.5
X80.518Y-47.362
X80.518Y-50.292
X81.201Y-106.045
X85.09Y-56.197
X85.09Y-59.69
X85.09Y-63.5
X86.995Y-49.53
X86.995Y-52.705
X88.265Y-56.515
X88.265Y-62.23
X89.535Y-49.53
X89.535Y-52.705
X89.535Y-128.818
X89.535Y-131.358
X89.535Y-133.898
X89.535Y-136.438
X90.805Y-62.23
X90.805Y-100.965
X93.345Y-56.515
X93.345Y-100.965
X97.155Y-128.818
X97.155Y-131.358
X97.155Y-133.898
X97.155Y-136.438
X99.06Y-55.404
X101.6Y-55.404
X106.892Y-51.276
X107.527Y-58.229
X107.527Y-63.055
X109.432Y-51.276
X110.49Y-128.27
X112.448Y-51.276
X113.03Y-128.27
X114.3Y-74.93
X114.3Y-77.47
X114.3Y-80.01
X114.3Y-82.55
X114.3Y-85.09
X114.3Y-87.63
X114.988Y-51.276
X116.84Y-72.39
X116.84Y-74.93
X116.84Y-77.47
X116.84Y-80.01
X116.84Y-82.55
X116.84Y-85.09
X116.84Y-87.63
X116.84Y-90.17
X117.475Y-128.818
X117.475Y-131.358
X117.475Y-133.898
X117.475Y-136.438
X119.38Y-45.212
X119.38Y-47.752
X119.38Y-50.292
X119.38Y-52.832
X119.38Y-55.372
X119.38Y-72.39
X119.38Y-74.93
X119.38Y-87.63
X119.38Y-90.17
X120.015Y-59.055
X120.015Y-66.675
X121.92Y-72.39
X121.92Y-74.93
X121.92Y-87.63
X121.92Y-90.17
X124.46Y-72.39
X124.46Y-74.93
X124.46Y-87.63
X124.46Y-90.17
X125.095Y-128.818
X125.095Y-131.358
X125.095Y-133.898
X125.095Y-136.438
X127.0Y-72.39
X127.0Y-74.93
X127.0Y-87.63
X127.0Y-90.17
X128.561Y-49.53
X128.561Y-57.15
X129.54Y-72.39
X129.54Y-74.93
X129.54Y-77.47
X129.54Y-80.01
X129.54Y-82.55
X129.54Y-85.09
X129.54Y-87.63
X129.54Y-90.17
X131.101Y-49.53
X131.101Y-57.15
X132.08Y-74.93
X132.08Y-77.47
X132.08Y-80.01
X132.08Y-82.55
X132.08Y-85.09
X132.08Y-87.63
X133.244Y-51.276
X133.244Y-56.356
X139.7Y-45.212
X139.7Y-47.752
X139.7Y-50.292
X139.7Y-52.832
X139.7Y-55.372
X141.986Y-136.398
X144.526Y-136.398
X144.912Y-56.356
X144.912Y-58.896
X144.912Y-61.436
X146.262Y-66.04
X147.32Y-70.485
X147.32Y-73.025
X147.532Y-64.135
X148.167Y-135.731
X148.802Y-66.04
X149.437Y-129.381
X149.437Y-131.921
X149.992Y-56.356
X149.992Y-58.896
X149.992Y-61.436
X150.707Y-135.731
X151.765Y-70.485
X151.765Y-73.025
X151.765Y-114.935
X151.765Y-117.475
X154.94Y-56.515
X154.94Y-59.055
X156.21Y-70.485
X156.21Y-73.025
X156.845Y-56.515
X156.845Y-59.055
X156.845Y-114.935
X156.845Y-117.475
X158.75Y-56.515
X158.75Y-59.055
X159.385Y-63.5
X159.385Y-66.04
X160.655Y-56.515
X160.655Y-59.055
X162.56Y-56.515
X162.56Y-59.055
X162.56Y-63.5
X162.56Y-66.04
X164.465Y-56.515
X164.465Y-59.055
X170.18Y-56.515
X170.18Y-59.055
X170.18Y-61.595
X170.18Y-64.135
X170.18Y-66.675
X170.18Y-69.215
X170.233Y-124.46
X170.233Y-127.0
X172.297Y-118.745
X172.297Y-121.444
X174.837Y-118.745
X174.837Y-121.444
X175.472Y-95.885
X175.472Y-98.425
X175.472Y-100.965
X175.472Y-103.505
X175.472Y-106.045
X175.472Y-108.585
X177.8Y-56.515
X177.8Y-59.055
X177.8Y-61.595
X177.8Y-64.135
X177.8Y-66.675
X177.8Y-69.215
X178.012Y-93.345
X178.012Y-95.885
X178.012Y-98.425
X178.012Y-100.965
X178.012Y-103.505
X178.012Y-106.045
X178.012Y-108.585
X178.012Y-111.125
X180.552Y-93.345
X180.552Y-95.885
X180.552Y-108.585
X180.552Y-111.125
X183.092Y-93.345
X183.092Y-95.885
X183.092Y-108.585
X183.092Y-111.125
X184.838Y-74.771
X184.838Y-82.391
X185.632Y-93.345
X185.632Y-95.885
X185.632Y-108.585
X185.632Y-111.125
X186.743Y-57.071
X186.743Y-59.611
X187.219Y-65.405
X187.219Y-69.532
X187.378Y-74.771
X187.378Y-82.391
X188.172Y-93.345
X188.172Y-95.885
X188.172Y-108.585
X188.172Y-111.125
X189.759Y-65.405
X189.759Y-69.532
X189.918Y-74.771
X189.918Y-82.391
X190.712Y-93.345
X190.712Y-95.885
X190.712Y-98.425
X190.712Y-100.965
X190.712Y-103.505
X190.712Y-106.045
X190.712Y-108.585
X190.712Y-111.125
X192.299Y-65.405
X192.299Y-69.532
X192.458Y-74.771
X192.458Y-82.391
X193.252Y-95.885
X193.252Y-98.425
X193.252Y-100.965
X193.252Y-103.505
X193.252Y-106.045
X193.252Y-108.585
X194.839Y-65.405
X194.839Y-69.532
X194.998Y-74.771
X194.998Y-82.391
X196.744Y-120.015
X197.379Y-65.405
X197.379Y-69.532
X197.538Y-74.771
X197.538Y-82.391
X197.538Y-126.524
X197.538Y-129.064
X199.284Y-120.015
X199.919Y-65.405
X199.919Y-69.532
X200.078Y-74.771
X200.078Y-82.391
X202.142Y-95.885
X202.142Y-98.425
X202.142Y-100.965
X202.142Y-103.505
X202.142Y-106.045
X202.142Y-108.585
X202.459Y-65.405
X202.459Y-69.532
X202.618Y-74.771
X202.618Y-82.391
X204.682Y-93.345
X204.682Y-95.885
X204.682Y-98.425
X204.682Y-100.965
X204.682Y-103.505
X204.682Y-106.045
X204.682Y-108.585
X204.682Y-111.125
X204.999Y-65.405
X204.999Y-69.532
X205.158Y-74.771
X205.158Y-82.391
X206.587Y-120.332
X206.587Y-127.953
X207.222Y-93.345
X207.222Y-95.885
X207.222Y-108.585
X207.222Y-111.125
X207.539Y-65.405
X207.539Y-69.532
X207.698Y-74.771
X207.698Y-82.391
X209.127Y-120.332
X209.127Y-127.953
X209.762Y-93.345
X209.762Y-95.885
X209.762Y-108.585
X209.762Y-111.125
X211.667Y-65.405
X211.667Y-69.532
X211.667Y-120.332
X211.667Y-127.953
X211.984Y-74.771
X211.984Y-82.391
X212.302Y-93.345
X212.302Y-95.885
X212.302Y-108.585
X212.302Y-111.125
X214.207Y-65.405
X214.207Y-69.532
X214.207Y-120.332
X214.207Y-127.953
X214.524Y-74.771
X214.524Y-82.391
X214.842Y-93.345
X214.842Y-95.885
X214.842Y-108.585
X214.842Y-111.125
X216.747Y-65.405
X216.747Y-69.532
X216.747Y-120.332
X216.747Y-127.953
X217.064Y-74.771
X217.064Y-82.391
X217.382Y-93.345
X217.382Y-95.885
X217.382Y-98.425
X217.382Y-100.965
X217.382Y-103.505
X217.382Y-106.045
X217.382Y-108.585
X217.382Y-111.125
X219.287Y-65.405
X219.287Y-69.532
X219.287Y-120.332
X219.287Y-127.953
X219.604Y-74.771
X219.604Y-82.391
X219.922Y-95.885
X219.922Y-98.425
X219.922Y-100.965
X219.922Y-103.505
X219.922Y-106.045
X219.922Y-108.585
X221.827Y-65.405
X221.827Y-69.532
X221.827Y-120.332
X221.827Y-127.953
X222.144Y-74.771
X222.144Y-82.391
X224.367Y-65.405
X224.367Y-69.532
X224.367Y-120.332
X224.367Y-127.953
X224.684Y-74.771
X224.684Y-82.391
X226.748Y-96.52
X226.748Y-99.06
X226.748Y-101.6
X226.748Y-104.14
X226.748Y-106.68
X226.748Y-109.22
X226.907Y-65.405
X226.907Y-69.532
X227.224Y-74.771
X227.224Y-82.391
X229.288Y-93.98
X229.288Y-96.52
X229.288Y-99.06
X229.288Y-101.6
X229.288Y-104.14
X229.288Y-106.68
X229.288Y-109.22
X229.288Y-111.76
X229.367Y-127.476
X229.447Y-65.405
X229.447Y-69.532
X229.764Y-74.771
X229.764Y-82.391
X231.828Y-93.98
X231.828Y-96.52
X231.828Y-109.22
X231.828Y-111.76
X231.907Y-127.476
X231.987Y-65.405
X231.987Y-69.532
X232.304Y-74.771
X232.304Y-82.391
X234.368Y-93.98
X234.368Y-96.52
X234.368Y-109.22
X234.368Y-111.76
X234.447Y-127.476
X234.844Y-74.771
X234.844Y-82.391
X235.638Y-62.547
X235.638Y-65.087
X236.908Y-93.98
X236.908Y-96.52
X236.908Y-109.22
X236.908Y-111.76
X236.987Y-127.476
X238.178Y-120.968
X239.448Y-93.98
X239.448Y-96.52
X239.448Y-109.22
X239.448Y-111.76
X239.527Y-127.476
X240.718Y-120.968
X241.988Y-93.98
X241.988Y-96.52
X241.988Y-99.06
X241.988Y-101.6
X241.988Y-104.14
X241.988Y-106.68
X241.988Y-109.22
X241.988Y-111.76
X242.067Y-127.476
X243.87Y-56.063
X243.87Y-61.143
X244.528Y-96.52
X244.528Y-99.06
X244.528Y-101.6
X244.528Y-104.14
X244.528Y-106.68
X244.528Y-109.22
X244.607Y-127.476
X247.147Y-127.476
X249.687Y-127.476
X258.671Y-51.8
X258.671Y-54.34
T5
X78.74Y-71.12
X78.74Y-73.66
X78.74Y-76.2
X78.74Y-78.74
X78.74Y-81.28
X78.74Y-83.82
X78.74Y-86.36
X78.74Y-88.9
X80.089Y-131.445
X80.089Y-133.985
X85.09Y-100.33
X87.63Y-100.33
X126.1Y-46.771
X128.59Y-46.771
X130.596Y-46.771
X133.085Y-46.771
X148.59Y-76.2
X151.13Y-76.2
X153.67Y-76.2
X156.21Y-76.2
X160.934Y-71.634
X160.934Y-74.174
X163.248Y-94.297
X163.248Y-96.837
X163.248Y-99.377
X163.248Y-101.917
X163.248Y-104.457
X163.248Y-106.997
X163.248Y-109.537
X163.248Y-112.078
X163.248Y-114.617
X163.248Y-117.157
X163.248Y-119.697
X163.248Y-122.237
X165.788Y-94.297
X165.788Y-96.837
X165.788Y-99.377
X165.788Y-101.917
X165.788Y-104.457
X165.788Y-106.997
X165.788Y-109.537
X165.788Y-112.078
X165.788Y-114.617
X165.788Y-117.157
X165.788Y-119.697
X165.788Y-122.237
X175.392Y-124.619
X175.392Y-127.159
X179.758Y-122.555
X179.758Y-127.317
X181.742Y-69.532
X181.742Y-72.072
X182.298Y-122.555
X182.298Y-127.317
X184.838Y-122.555
X184.838Y-127.317
X187.378Y-122.555
X187.378Y-127.317
X189.918Y-122.555
X189.918Y-127.317
X192.458Y-122.555
X192.458Y-127.317
X201.507Y-131.921
X201.507Y-136.207
X202.221Y-55.483
X202.221Y-58.023
X202.3Y-122.396
X202.3Y-124.936
X202.3Y-127.476
X204.761Y-55.483
X204.761Y-58.023
X206.587Y-131.921
X206.587Y-136.207
X207.301Y-55.483
X207.301Y-58.023
X209.127Y-131.921
X209.127Y-136.207
X209.841Y-55.483
X209.841Y-58.023
X211.667Y-131.921
X211.667Y-136.207
X212.381Y-55.483
X212.381Y-58.023
X214.207Y-131.921
X214.207Y-136.207
X214.921Y-55.483
X214.921Y-58.023
X216.747Y-131.921
X216.747Y-136.207
X217.461Y-55.483
X217.461Y-58.023
X219.287Y-131.921
X219.287Y-136.207
X220.001Y-55.483
X220.001Y-58.023
X221.827Y-131.921
X221.827Y-136.207
X222.541Y-55.483
X222.541Y-58.023
X224.367Y-131.921
X224.367Y-136.207
X225.081Y-55.483
X225.081Y-58.023
X226.907Y-131.921
X226.907Y-136.207
X227.621Y-55.483
X227.621Y-58.023
X229.447Y-131.921
X229.447Y-136.207
X230.161Y-55.483
X230.161Y-58.023
X231.987Y-131.921
X231.987Y-136.207
X234.527Y-131.921
X234.527Y-136.207
X234.844Y-89.059
X237.067Y-131.921
X237.067Y-136.207
X237.384Y-89.059
X239.448Y-64.77
X239.607Y-131.921
X239.607Y-136.207
X239.924Y-89.059
X241.988Y-64.77
X242.147Y-131.921
X242.147Y-136.207
X242.168Y-52.378
X244.21Y-89.218
X244.528Y-64.77
X244.687Y-131.921
X244.687Y-136.207
X244.708Y-52.378
X246.75Y-89.218
X247.227Y-131.921
X247.227Y-136.207
X249.767Y-131.921
X249.767Y-136.207
T6
X247.791Y-54.606
X247.791Y-57.146
X247.791Y-59.686
X247.791Y-62.226
X247.791Y-64.766
X247.791Y-67.306
X247.791Y-69.846
T7
X82.829Y-41.3
X87.351Y-41.3
X154.771Y-50.482
X155.914Y-47.942
X155.914Y-53.023
X157.057Y-50.482
X158.2Y-47.942
X158.2Y-53.023
X159.343Y-50.482
X160.486Y-47.942
X160.486Y-53.023
X161.629Y-50.482
X162.772Y-47.942
X162.772Y-53.023
X163.915Y-50.482
X164.438Y-130.334
X164.438Y-135.414
X165.058Y-47.942
X165.058Y-53.023
X174.043Y-133.032
X174.043Y-135.572
X176.583Y-133.032
X176.583Y-135.572
X179.123Y-133.032
X179.123Y-135.572
X181.663Y-133.032
X181.663Y-135.572
X184.203Y-133.032
X184.203Y-135.572
T8
X81.585Y-43.79
X88.595Y-43.79
T9
X123.027Y-44.053
X136.159Y-44.053
T3
X91.86Y-44.825G85X91.86Y-44.225
G05
X92.71Y-52.225G85X92.11Y-52.225
G05
X96.71Y-41.225G85X96.11Y-41.225
G05
X99.06Y-47.925G85X99.06Y-47.325
G05
X101.46Y-49.325G85X101.46Y-48.725
G05
T6
X250.318Y-61.309G85X250.318Y-63.309
G05
X254.418Y-57.509G85X252.418Y-57.509
G05
X256.418Y-61.309G85X256.418Y-63.309
G05
M30
