%TF.GenerationSoftware,KiCad,Pcbnew,8.0.2*%
%TF.CreationDate,2024-05-25T17:16:44+02:00*%
%TF.ProjectId,micropet_v3,6d696372-6f70-4657-945f-76332e6b6963,rev?*%
%TF.SameCoordinates,Original*%
%TF.FileFunction,Soldermask,Bot*%
%TF.FilePolarity,Negative*%
%FSLAX46Y46*%
G04 Gerber Fmt 4.6, Leading zero omitted, Abs format (unit mm)*
G04 Created by KiCad (PCBNEW 8.0.2) date 2024-05-25 17:16:44*
%MOMM*%
%LPD*%
G01*
G04 APERTURE LIST*
G04 Aperture macros list*
%AMRoundRect*
0 Rectangle with rounded corners*
0 $1 Rounding radius*
0 $2 $3 $4 $5 $6 $7 $8 $9 X,Y pos of 4 corners*
0 Add a 4 corners polygon primitive as box body*
4,1,4,$2,$3,$4,$5,$6,$7,$8,$9,$2,$3,0*
0 Add four circle primitives for the rounded corners*
1,1,$1+$1,$2,$3*
1,1,$1+$1,$4,$5*
1,1,$1+$1,$6,$7*
1,1,$1+$1,$8,$9*
0 Add four rect primitives between the rounded corners*
20,1,$1+$1,$2,$3,$4,$5,0*
20,1,$1+$1,$4,$5,$6,$7,0*
20,1,$1+$1,$6,$7,$8,$9,0*
20,1,$1+$1,$8,$9,$2,$3,0*%
%AMFreePoly0*
4,1,25,0.333266,0.742596,0.345389,0.732242,0.732242,0.345389,0.760749,0.289441,0.762000,0.273547,0.762000,-0.273547,0.742596,-0.333266,0.732242,-0.345389,0.345389,-0.732242,0.289441,-0.760749,0.273547,-0.762000,-0.273547,-0.762000,-0.333266,-0.742596,-0.345389,-0.732242,-0.732242,-0.345389,-0.760749,-0.289441,-0.762000,-0.273547,-0.762000,0.273547,-0.742596,0.333266,-0.732242,0.345389,
-0.345389,0.732242,-0.289441,0.760749,-0.273547,0.762000,0.273547,0.762000,0.333266,0.742596,0.333266,0.742596,$1*%
%AMFreePoly1*
4,1,25,0.391131,0.882296,0.403254,0.871942,0.871942,0.403254,0.900449,0.347306,0.901700,0.331412,0.901700,-0.331412,0.882296,-0.391131,0.871942,-0.403254,0.403254,-0.871942,0.347306,-0.900449,0.331412,-0.901700,-0.331412,-0.901700,-0.391131,-0.882296,-0.403254,-0.871942,-0.871942,-0.403254,-0.900449,-0.347306,-0.901700,-0.331412,-0.901700,0.331412,-0.882296,0.391131,-0.871942,0.403254,
-0.403254,0.871942,-0.347306,0.900449,-0.331412,0.901700,0.331412,0.901700,0.391131,0.882296,0.391131,0.882296,$1*%
%AMFreePoly2*
4,1,25,0.349047,0.780696,0.361170,0.770342,0.770342,0.361170,0.798849,0.305222,0.800100,0.289328,0.800100,-0.289328,0.780696,-0.349047,0.770342,-0.361170,0.361170,-0.770342,0.305222,-0.798849,0.289328,-0.800100,-0.289328,-0.800100,-0.349047,-0.780696,-0.361170,-0.770342,-0.770342,-0.361170,-0.798849,-0.305222,-0.800100,-0.289328,-0.800100,0.289328,-0.780696,0.349047,-0.770342,0.361170,
-0.361170,0.770342,-0.305222,0.798849,-0.289328,0.800100,0.289328,0.800100,0.349047,0.780696,0.349047,0.780696,$1*%
%AMFreePoly3*
4,1,25,0.354308,0.793396,0.366431,0.783042,0.783042,0.366431,0.811549,0.310483,0.812800,0.294589,0.812800,-0.294589,0.793396,-0.354308,0.783042,-0.366431,0.366431,-0.783042,0.310483,-0.811549,0.294589,-0.812800,-0.294589,-0.812800,-0.354308,-0.793396,-0.366431,-0.783042,-0.783042,-0.366431,-0.811549,-0.310483,-0.812800,-0.294589,-0.812800,0.294589,-0.793396,0.354308,-0.783042,0.366431,
-0.366431,0.783042,-0.310483,0.811549,-0.294589,0.812800,0.294589,0.812800,0.354308,0.793396,0.354308,0.793396,$1*%
%AMFreePoly4*
4,1,25,0.454257,1.034696,0.466380,1.024342,1.024342,0.466380,1.052849,0.410432,1.054100,0.394538,1.054100,-0.394538,1.034696,-0.454257,1.024342,-0.466380,0.466380,-1.024342,0.410432,-1.052849,0.394538,-1.054100,-0.394538,-1.054100,-0.454257,-1.034696,-0.466380,-1.024342,-1.024342,-0.466380,-1.052849,-0.410432,-1.054100,-0.394538,-1.054100,0.394538,-1.034696,0.454257,-1.024342,0.466380,
-0.466380,1.024342,-0.410432,1.052849,-0.394538,1.054100,0.394538,1.054100,0.454257,1.034696,0.454257,1.034696,$1*%
%AMFreePoly5*
4,1,25,0.375350,0.844196,0.387473,0.833842,0.833842,0.387473,0.862349,0.331525,0.863600,0.315631,0.863600,-0.315631,0.844196,-0.375350,0.833842,-0.387473,0.387473,-0.833842,0.331525,-0.862349,0.315631,-0.863600,-0.315631,-0.863600,-0.375350,-0.844196,-0.387473,-0.833842,-0.833842,-0.387473,-0.862349,-0.331525,-0.863600,-0.315631,-0.863600,0.315631,-0.844196,0.375350,-0.833842,0.387473,
-0.387473,0.833842,-0.331525,0.862349,-0.315631,0.863600,0.315631,0.863600,0.375350,0.844196,0.375350,0.844196,$1*%
%AMFreePoly6*
4,1,25,0.585770,1.352196,0.597893,1.341842,1.341842,0.597893,1.370349,0.541945,1.371600,0.526051,1.371600,-0.526051,1.352196,-0.585770,1.341842,-0.597893,0.597893,-1.341842,0.541945,-1.370349,0.526051,-1.371600,-0.526051,-1.371600,-0.585770,-1.352196,-0.597893,-1.341842,-1.341842,-0.597893,-1.370349,-0.541945,-1.371600,-0.526051,-1.371600,0.526051,-1.352196,0.585770,-1.341842,0.597893,
-0.597893,1.341842,-0.541945,1.370349,-0.526051,1.371600,0.526051,1.371600,0.585770,1.352196,0.585770,1.352196,$1*%
G04 Aperture macros list end*
%ADD10C,3.200000*%
%ADD11FreePoly0,90.000000*%
%ADD12FreePoly0,0.000000*%
%ADD13FreePoly0,270.000000*%
%ADD14C,1.803400*%
%ADD15FreePoly1,0.000000*%
%ADD16FreePoly1,90.000000*%
%ADD17O,2.844800X1.524000*%
%ADD18FreePoly0,180.000000*%
%ADD19O,3.048000X1.625600*%
%ADD20C,1.524000*%
%ADD21C,1.600200*%
%ADD22FreePoly2,270.000000*%
%ADD23C,1.625600*%
%ADD24C,3.530600*%
%ADD25O,1.524000X2.844800*%
%ADD26FreePoly3,180.000000*%
%ADD27O,1.625600X3.048000*%
%ADD28FreePoly1,270.000000*%
%ADD29C,2.108200*%
%ADD30FreePoly4,270.000000*%
%ADD31C,2.082800*%
%ADD32R,1.700000X1.700000*%
%ADD33O,1.700000X1.700000*%
%ADD34C,3.048000*%
%ADD35C,1.727200*%
%ADD36RoundRect,0.388620X0.906780X4.792980X-0.906780X4.792980X-0.906780X-4.792980X0.906780X-4.792980X0*%
%ADD37FreePoly2,90.000000*%
%ADD38FreePoly5,180.000000*%
%ADD39C,2.362200*%
%ADD40FreePoly3,270.000000*%
%ADD41O,2.203200X4.203200*%
%ADD42O,4.203200X2.203200*%
%ADD43RoundRect,0.388620X4.792980X-0.906780X4.792980X0.906780X-4.792980X0.906780X-4.792980X-0.906780X0*%
%ADD44O,2.603200X1.403200*%
%ADD45O,1.403200X2.603200*%
%ADD46C,2.743200*%
%ADD47FreePoly6,270.000000*%
%ADD48FreePoly2,0.000000*%
%ADD49RoundRect,0.101600X0.550000X0.500000X-0.550000X0.500000X-0.550000X-0.500000X0.550000X-0.500000X0*%
%ADD50RoundRect,0.101600X0.500000X-0.550000X0.500000X0.550000X-0.500000X0.550000X-0.500000X-0.550000X0*%
%ADD51RoundRect,0.101600X-0.500000X0.550000X-0.500000X-0.550000X0.500000X-0.550000X0.500000X0.550000X0*%
%ADD52RoundRect,0.101600X-0.550000X-0.500000X0.550000X-0.500000X0.550000X0.500000X-0.550000X0.500000X0*%
G04 APERTURE END LIST*
D10*
%TO.C,H3*%
X258974106Y-43815000D03*
%TD*%
D11*
%TO.C,R2*%
X128560981Y-57150000D03*
X128560981Y-49530000D03*
%TD*%
D12*
%TO.C,R12*%
X77978000Y-47361600D03*
X80518000Y-47361600D03*
%TD*%
D11*
%TO.C,R3*%
X186742856Y-59610625D03*
X186742856Y-57070625D03*
%TD*%
D13*
%TO.C,R10*%
X151765000Y-70485000D03*
X151765000Y-73025000D03*
%TD*%
D10*
%TO.C,H1*%
X108796606Y-134302500D03*
%TD*%
D12*
%TO.C,D5*%
X149992231Y-58896250D03*
X144912231Y-58896250D03*
%TD*%
D13*
%TO.C,R9*%
X156210000Y-70485000D03*
X156210000Y-73025000D03*
%TD*%
D14*
%TO.C,C36*%
X238177856Y-120967500D03*
D15*
X240717856Y-120967500D03*
%TD*%
D14*
%TO.C,C28*%
X197537856Y-129063750D03*
D16*
X197537856Y-126523750D03*
%TD*%
D17*
%TO.C,U$9*%
X119380000Y-45212000D03*
X119380000Y-47752000D03*
X119380000Y-50292000D03*
X119380000Y-52832000D03*
X119380000Y-55372000D03*
X139700000Y-55372000D03*
X139700000Y-52832000D03*
X139700000Y-50292000D03*
X139700000Y-47752000D03*
X139700000Y-45212000D03*
%TD*%
%TO.C,D10*%
X177800000Y-66675000D03*
X170180000Y-66675000D03*
%TD*%
D11*
%TO.C,R8*%
X159385000Y-66040000D03*
X159385000Y-63500000D03*
%TD*%
D12*
%TO.C,R18*%
X99060000Y-55403750D03*
X101600000Y-55403750D03*
%TD*%
D18*
%TO.C,R21*%
X174836606Y-118745000D03*
X172296606Y-118745000D03*
%TD*%
D12*
%TO.C,C50*%
X80010000Y-59690000D03*
X85090000Y-59690000D03*
%TD*%
D19*
%TO.C,JP9*%
X160933591Y-71633569D03*
X160933591Y-74173569D03*
%TD*%
D11*
%TO.C,R14*%
X160655000Y-59055000D03*
X160655000Y-56515000D03*
%TD*%
%TO.C,R22*%
X149436606Y-131921250D03*
X149436606Y-129381250D03*
%TD*%
D20*
%TO.C,Q2*%
X81200625Y-106045000D03*
X78660625Y-106045000D03*
%TD*%
D21*
%TO.C,IC10*%
X241987856Y-104140000D03*
D22*
X244527856Y-101600000D03*
X241987856Y-101600000D03*
X244527856Y-99060000D03*
X241987856Y-99060000D03*
X244527856Y-96520000D03*
X241987856Y-93980000D03*
X241987856Y-96520000D03*
X239447856Y-93980000D03*
X239447856Y-96520000D03*
X236907856Y-93980000D03*
X236907856Y-96520000D03*
X234367856Y-93980000D03*
X234367856Y-96520000D03*
X231827856Y-93980000D03*
X231827856Y-96520000D03*
X229287856Y-93980000D03*
X226747856Y-96520000D03*
X229287856Y-96520000D03*
X226747856Y-99060000D03*
X229287856Y-99060000D03*
X226747856Y-101600000D03*
X229287856Y-101600000D03*
X226747856Y-104140000D03*
X229287856Y-104140000D03*
X226747856Y-106680000D03*
X229287856Y-106680000D03*
X226747856Y-109220000D03*
X229287856Y-111760000D03*
X229287856Y-109220000D03*
X231827856Y-111760000D03*
X231827856Y-109220000D03*
X234367856Y-111760000D03*
X234367856Y-109220000D03*
X236907856Y-111760000D03*
X236907856Y-109220000D03*
X239447856Y-111760000D03*
X239447856Y-109220000D03*
X241987856Y-111760000D03*
X244527856Y-109220000D03*
X241987856Y-109220000D03*
X244527856Y-106680000D03*
X241987856Y-106680000D03*
X244527856Y-104140000D03*
%TD*%
D23*
%TO.C,USB1*%
X128589556Y-46770925D03*
X130596156Y-46770925D03*
X126100356Y-46770925D03*
D24*
X136158756Y-44053125D03*
X123026956Y-44053125D03*
D23*
X133085356Y-46770925D03*
%TD*%
D25*
%TO.C,RN4*%
X187219106Y-65405000D03*
X189759106Y-65405000D03*
X192299106Y-65405000D03*
X194839106Y-65405000D03*
X197379106Y-65405000D03*
X199919106Y-65405000D03*
X202459106Y-65405000D03*
X204999106Y-65405000D03*
X207539106Y-65405000D03*
%TD*%
D10*
%TO.C,H6*%
X236193481Y-56832500D03*
%TD*%
D11*
%TO.C,R26*%
X162560000Y-59055000D03*
X162560000Y-56515000D03*
%TD*%
D14*
%TO.C,C37*%
X106891606Y-51276250D03*
D15*
X109431606Y-51276250D03*
%TD*%
D26*
%TO.C,P2*%
X230160981Y-55483125D03*
X227620981Y-55483125D03*
X225080981Y-55483125D03*
X222540981Y-55483125D03*
X220000981Y-55483125D03*
X217460981Y-55483125D03*
X214920981Y-55483125D03*
X212380981Y-55483125D03*
X209840981Y-55483125D03*
X207300981Y-55483125D03*
X204760981Y-55483125D03*
X202220981Y-55483125D03*
X230160981Y-58023125D03*
X227620981Y-58023125D03*
X225080981Y-58023125D03*
X222540981Y-58023125D03*
X220000981Y-58023125D03*
X217460981Y-58023125D03*
X214920981Y-58023125D03*
X212380981Y-58023125D03*
X209840981Y-58023125D03*
X207300981Y-58023125D03*
X204760981Y-58023125D03*
X202220981Y-58023125D03*
%TD*%
D11*
%TO.C,D8*%
X133244106Y-51276250D03*
X133244106Y-56356250D03*
%TD*%
D27*
%TO.C,P1*%
X201506606Y-136207500D03*
X206586606Y-136207500D03*
X209126606Y-136207500D03*
X211666606Y-136207500D03*
X214206606Y-136207500D03*
X216746606Y-136207500D03*
X219286606Y-136207500D03*
X221826606Y-136207500D03*
X224366606Y-136207500D03*
X226906606Y-136207500D03*
X229446606Y-136207500D03*
X231986606Y-136207500D03*
X234526606Y-136207500D03*
X237066606Y-136207500D03*
X239606606Y-136207500D03*
X242146606Y-136207500D03*
X244686606Y-136207500D03*
X247226606Y-136207500D03*
X249766606Y-136207500D03*
%TD*%
D12*
%TO.C,C51*%
X88265000Y-56515000D03*
X93345000Y-56515000D03*
%TD*%
D11*
%TO.C,R6*%
X235637856Y-65087500D03*
X235637856Y-62547500D03*
%TD*%
D14*
%TO.C,C26*%
X170232856Y-124460000D03*
D28*
X170232856Y-127000000D03*
%TD*%
D12*
%TO.C,R5*%
X151765000Y-117475000D03*
X156845000Y-117475000D03*
%TD*%
D20*
%TO.C,Q3*%
X107526606Y-63055500D03*
X107526606Y-58229500D03*
%TD*%
D27*
%TO.C,JP7*%
X156210000Y-76200000D03*
X153670000Y-76200000D03*
X151130000Y-76200000D03*
X148590000Y-76200000D03*
%TD*%
D17*
%TO.C,D3*%
X177800000Y-59055000D03*
X170180000Y-59055000D03*
%TD*%
D12*
%TO.C,C52*%
X80010000Y-63500000D03*
X85090000Y-63500000D03*
%TD*%
D11*
%TO.C,R28*%
X154940000Y-59055000D03*
X154940000Y-56515000D03*
%TD*%
%TO.C,R27*%
X158750000Y-59055000D03*
X158750000Y-56515000D03*
%TD*%
D25*
%TO.C,RN3*%
X211666606Y-69532500D03*
X214206606Y-69532500D03*
X216746606Y-69532500D03*
X219286606Y-69532500D03*
X221826606Y-69532500D03*
X224366606Y-69532500D03*
X226906606Y-69532500D03*
X229446606Y-69532500D03*
X231986606Y-69532500D03*
%TD*%
D12*
%TO.C,D1*%
X149992231Y-61436250D03*
X144912231Y-61436250D03*
%TD*%
%TO.C,D6*%
X149992231Y-56356250D03*
X144912231Y-56356250D03*
%TD*%
D19*
%TO.C,JP5*%
X181742231Y-72072500D03*
X181742231Y-69532500D03*
%TD*%
D12*
%TO.C,C49*%
X80010000Y-56197500D03*
X85090000Y-56197500D03*
%TD*%
D11*
%TO.C,R16*%
X258671196Y-54340353D03*
X258671196Y-51800353D03*
%TD*%
D17*
%TO.C,D4*%
X177800000Y-61595000D03*
X170180000Y-61595000D03*
%TD*%
D10*
%TO.C,H4*%
X258974106Y-134302500D03*
%TD*%
D12*
%TO.C,R30*%
X86995000Y-49530000D03*
X89535000Y-49530000D03*
%TD*%
D18*
%TO.C,R31*%
X90805000Y-62230000D03*
X88265000Y-62230000D03*
%TD*%
D29*
%TO.C,C6*%
X243869751Y-56062990D03*
D30*
X243869751Y-61142990D03*
%TD*%
D10*
%TO.C,H7*%
X194521606Y-134302500D03*
%TD*%
D11*
%TO.C,R13*%
X164465000Y-59055000D03*
X164465000Y-56515000D03*
%TD*%
D17*
%TO.C,U$14*%
X89535000Y-128818100D03*
X89535000Y-131358100D03*
X89535000Y-133898100D03*
X89535000Y-136438100D03*
X97155000Y-136438100D03*
X97155000Y-133898100D03*
X97155000Y-131358100D03*
X97155000Y-128818100D03*
%TD*%
D19*
%TO.C,JP1*%
X202300356Y-127476250D03*
X202300356Y-124936250D03*
X202300356Y-122396250D03*
%TD*%
D27*
%TO.C,JP8*%
X87630000Y-100330000D03*
X85090000Y-100330000D03*
%TD*%
D31*
%TO.C,U$7*%
X174042856Y-135572500D03*
X174042856Y-133032500D03*
X176582856Y-135572500D03*
X176582856Y-133032500D03*
X179122856Y-135572500D03*
X179122856Y-133032500D03*
X181662856Y-135572500D03*
X181662856Y-133032500D03*
X184202856Y-135572500D03*
X184202856Y-133032500D03*
%TD*%
D19*
%TO.C,JP2*%
X80089375Y-131445000D03*
X80089375Y-133985000D03*
%TD*%
D12*
%TO.C,R23*%
X151765000Y-114935000D03*
X156845000Y-114935000D03*
%TD*%
D27*
%TO.C,JP6*%
X239924106Y-89058750D03*
X237384106Y-89058750D03*
X234844106Y-89058750D03*
%TD*%
D32*
%TO.C,U$8*%
X247790762Y-54605580D03*
D33*
X247790762Y-57145580D03*
X247790762Y-59685580D03*
X247790762Y-62225580D03*
X247790762Y-64765580D03*
X247790762Y-67305580D03*
X247790762Y-69845580D03*
%TD*%
D25*
%TO.C,RN1*%
X249687231Y-127476250D03*
X247147231Y-127476250D03*
X244607231Y-127476250D03*
X242067231Y-127476250D03*
X239527231Y-127476250D03*
X236987231Y-127476250D03*
X234447231Y-127476250D03*
X231907231Y-127476250D03*
X229367231Y-127476250D03*
%TD*%
D34*
%TO.C,X2*%
X172728406Y-50482500D03*
X147734806Y-50482500D03*
D35*
X155913606Y-53022500D03*
X158199606Y-53022500D03*
X160485606Y-53022500D03*
X162771606Y-53022500D03*
X165057606Y-53022500D03*
X154770606Y-50482500D03*
X157056606Y-50482500D03*
X159342606Y-50482500D03*
X161628606Y-50482500D03*
X163914606Y-50482500D03*
X155913606Y-47942500D03*
X158199606Y-47942500D03*
X160485606Y-47942500D03*
X162771606Y-47942500D03*
X165057606Y-47942500D03*
%TD*%
D11*
%TO.C,R15*%
X156845000Y-59055000D03*
X156845000Y-56515000D03*
%TD*%
D25*
%TO.C,U$6*%
X207697856Y-74771250D03*
X205157856Y-74771250D03*
X202617856Y-74771250D03*
X200077856Y-74771250D03*
X197537856Y-74771250D03*
X194997856Y-74771250D03*
X192457856Y-74771250D03*
X189917856Y-74771250D03*
X187377856Y-74771250D03*
X184837856Y-74771250D03*
X184837856Y-82391250D03*
X187377856Y-82391250D03*
X189917856Y-82391250D03*
X192457856Y-82391250D03*
X194997856Y-82391250D03*
X197537856Y-82391250D03*
X200077856Y-82391250D03*
X202617856Y-82391250D03*
X205157856Y-82391250D03*
X207697856Y-82391250D03*
%TD*%
D12*
%TO.C,R19*%
X77978000Y-50292000D03*
X80518000Y-50292000D03*
%TD*%
D11*
%TO.C,R1*%
X131100981Y-57150000D03*
X131100981Y-49530000D03*
%TD*%
D25*
%TO.C,IC5*%
X224366606Y-120332500D03*
X221826606Y-120332500D03*
X219286606Y-120332500D03*
X216746606Y-120332500D03*
X214206606Y-120332500D03*
X211666606Y-120332500D03*
X209126606Y-120332500D03*
X206586606Y-120332500D03*
X206586606Y-127952500D03*
X209126606Y-127952500D03*
X211666606Y-127952500D03*
X214206606Y-127952500D03*
X216746606Y-127952500D03*
X219286606Y-127952500D03*
X221826606Y-127952500D03*
X224366606Y-127952500D03*
%TD*%
D27*
%TO.C,U$11*%
X192457856Y-122555000D03*
X189917856Y-122555000D03*
X187377856Y-122555000D03*
X184837856Y-122555000D03*
X182297856Y-122555000D03*
X179757856Y-122555000D03*
%TD*%
D25*
%TO.C,U$5*%
X234844106Y-74771250D03*
X232304106Y-74771250D03*
X229764106Y-74771250D03*
X227224106Y-74771250D03*
X224684106Y-74771250D03*
X222144106Y-74771250D03*
X219604106Y-74771250D03*
X217064106Y-74771250D03*
X214524106Y-74771250D03*
X211984106Y-74771250D03*
X211984106Y-82391250D03*
X214524106Y-82391250D03*
X217064106Y-82391250D03*
X219604106Y-82391250D03*
X222144106Y-82391250D03*
X224684106Y-82391250D03*
X227224106Y-82391250D03*
X229764106Y-82391250D03*
X232304106Y-82391250D03*
X234844106Y-82391250D03*
%TD*%
D36*
%TO.C,CN4*%
X237904806Y-44767500D03*
X233942406Y-44767500D03*
X229980006Y-44767500D03*
X226017606Y-44767500D03*
X222055206Y-44767500D03*
X218092806Y-44767500D03*
X214130406Y-44767500D03*
X210168006Y-44767500D03*
X206205606Y-44767500D03*
X202243206Y-44767500D03*
X198280806Y-44767500D03*
X194318406Y-44767500D03*
%TD*%
D21*
%TO.C,IC9*%
X178011606Y-100965000D03*
D37*
X175471606Y-103505000D03*
X178011606Y-103505000D03*
X175471606Y-106045000D03*
X178011606Y-106045000D03*
X175471606Y-108585000D03*
X178011606Y-111125000D03*
X178011606Y-108585000D03*
X180551606Y-111125000D03*
X180551606Y-108585000D03*
X183091606Y-111125000D03*
X183091606Y-108585000D03*
X185631606Y-111125000D03*
X185631606Y-108585000D03*
X188171606Y-111125000D03*
X188171606Y-108585000D03*
X190711606Y-111125000D03*
X193251606Y-108585000D03*
X190711606Y-108585000D03*
X193251606Y-106045000D03*
X190711606Y-106045000D03*
X193251606Y-103505000D03*
X190711606Y-103505000D03*
X193251606Y-100965000D03*
X190711606Y-100965000D03*
X193251606Y-98425000D03*
X190711606Y-98425000D03*
X193251606Y-95885000D03*
X190711606Y-93345000D03*
X190711606Y-95885000D03*
X188171606Y-93345000D03*
X188171606Y-95885000D03*
X185631606Y-93345000D03*
X185631606Y-95885000D03*
X183091606Y-93345000D03*
X183091606Y-95885000D03*
X180551606Y-93345000D03*
X180551606Y-95885000D03*
X178011606Y-93345000D03*
X175471606Y-95885000D03*
X178011606Y-95885000D03*
X175471606Y-98425000D03*
X178011606Y-98425000D03*
X175471606Y-100965000D03*
%TD*%
D27*
%TO.C,JP3*%
X244210356Y-89217500D03*
X246750356Y-89217500D03*
%TD*%
D10*
%TO.C,H2*%
X108796606Y-43815000D03*
%TD*%
D25*
%TO.C,RN5*%
X187219106Y-69532500D03*
X189759106Y-69532500D03*
X192299106Y-69532500D03*
X194839106Y-69532500D03*
X197379106Y-69532500D03*
X199919106Y-69532500D03*
X202459106Y-69532500D03*
X204999106Y-69532500D03*
X207539106Y-69532500D03*
%TD*%
D14*
%TO.C,C38*%
X112447856Y-51276250D03*
D15*
X114987856Y-51276250D03*
%TD*%
D12*
%TO.C,U$3*%
X146261606Y-66040000D03*
X147531606Y-64135000D03*
X148801606Y-66040000D03*
%TD*%
D27*
%TO.C,P6*%
X192457856Y-127317500D03*
X189917856Y-127317500D03*
X187377856Y-127317500D03*
X184837856Y-127317500D03*
X182297856Y-127317500D03*
X179757856Y-127317500D03*
%TD*%
D12*
%TO.C,R17*%
X196744106Y-120015000D03*
X199284106Y-120015000D03*
%TD*%
%TO.C,R29*%
X110490000Y-128270000D03*
X113030000Y-128270000D03*
%TD*%
%TO.C,LED1*%
X148166606Y-135731250D03*
X150706606Y-135731250D03*
%TD*%
D11*
%TO.C,R4*%
X120015000Y-66675000D03*
X120015000Y-59055000D03*
%TD*%
D19*
%TO.C,JP4*%
X175392231Y-127158750D03*
X175392231Y-124618750D03*
%TD*%
D17*
%TO.C,D2*%
X177800000Y-56515000D03*
X170180000Y-56515000D03*
%TD*%
D11*
%TO.C,R7*%
X162560000Y-66040000D03*
X162560000Y-63500000D03*
%TD*%
D38*
%TO.C,S1*%
X87350600Y-41300400D03*
X82829400Y-41300400D03*
D39*
X88595200Y-43789600D03*
X81584800Y-43789600D03*
%TD*%
D21*
%TO.C,IC11*%
X217381606Y-103505000D03*
D22*
X219921606Y-100965000D03*
X217381606Y-100965000D03*
X219921606Y-98425000D03*
X217381606Y-98425000D03*
X219921606Y-95885000D03*
X217381606Y-93345000D03*
X217381606Y-95885000D03*
X214841606Y-93345000D03*
X214841606Y-95885000D03*
X212301606Y-93345000D03*
X212301606Y-95885000D03*
X209761606Y-93345000D03*
X209761606Y-95885000D03*
X207221606Y-93345000D03*
X207221606Y-95885000D03*
X204681606Y-93345000D03*
X202141606Y-95885000D03*
X204681606Y-95885000D03*
X202141606Y-98425000D03*
X204681606Y-98425000D03*
X202141606Y-100965000D03*
X204681606Y-100965000D03*
X202141606Y-103505000D03*
X204681606Y-103505000D03*
X202141606Y-106045000D03*
X204681606Y-106045000D03*
X202141606Y-108585000D03*
X204681606Y-111125000D03*
X204681606Y-108585000D03*
X207221606Y-111125000D03*
X207221606Y-108585000D03*
X209761606Y-111125000D03*
X209761606Y-108585000D03*
X212301606Y-111125000D03*
X212301606Y-108585000D03*
X214841606Y-111125000D03*
X214841606Y-108585000D03*
X217381606Y-111125000D03*
X219921606Y-108585000D03*
X217381606Y-108585000D03*
X219921606Y-106045000D03*
X217381606Y-106045000D03*
X219921606Y-103505000D03*
%TD*%
D12*
%TO.C,R25*%
X90805000Y-100965000D03*
X93345000Y-100965000D03*
%TD*%
D40*
%TO.C,P3*%
X163247856Y-94297500D03*
X163247856Y-96837500D03*
X163247856Y-99377500D03*
X163247856Y-101917500D03*
X163247856Y-104457500D03*
X163247856Y-106997500D03*
X163247856Y-109537500D03*
X163247856Y-112077500D03*
X163247856Y-114617500D03*
X163247856Y-117157500D03*
X163247856Y-119697500D03*
X163247856Y-122237500D03*
X165787856Y-94297500D03*
X165787856Y-96837500D03*
X165787856Y-99377500D03*
X165787856Y-101917500D03*
X165787856Y-104457500D03*
X165787856Y-106997500D03*
X165787856Y-109537500D03*
X165787856Y-112077500D03*
X165787856Y-114617500D03*
X165787856Y-117157500D03*
X165787856Y-119697500D03*
X165787856Y-122237500D03*
%TD*%
D41*
%TO.C,J1*%
X250317856Y-62309375D03*
D42*
X253417856Y-57509375D03*
D41*
X256417856Y-62309375D03*
%TD*%
D27*
%TO.C,P7*%
X201506606Y-131921250D03*
X206586606Y-131921250D03*
X209126606Y-131921250D03*
X211666606Y-131921250D03*
X214206606Y-131921250D03*
X216746606Y-131921250D03*
X219286606Y-131921250D03*
X221826606Y-131921250D03*
X224366606Y-131921250D03*
X226906606Y-131921250D03*
X229446606Y-131921250D03*
X231986606Y-131921250D03*
X234526606Y-131921250D03*
X237066606Y-131921250D03*
X239606606Y-131921250D03*
X242146606Y-131921250D03*
X244686606Y-131921250D03*
X247226606Y-131921250D03*
X249766606Y-131921250D03*
%TD*%
D10*
%TO.C,H5*%
X196188481Y-56753125D03*
%TD*%
D19*
%TO.C,U$12*%
X78740000Y-83820000D03*
X78740000Y-71120000D03*
X78740000Y-81280000D03*
X78740000Y-78740000D03*
X78740000Y-73660000D03*
X78740000Y-86360000D03*
X78740000Y-76200000D03*
X78740000Y-88900000D03*
%TD*%
D27*
%TO.C,JP10*%
X244527856Y-64770000D03*
X241987856Y-64770000D03*
X239447856Y-64770000D03*
%TD*%
D25*
%TO.C,RN2*%
X211666606Y-65405000D03*
X214206606Y-65405000D03*
X216746606Y-65405000D03*
X219286606Y-65405000D03*
X221826606Y-65405000D03*
X224366606Y-65405000D03*
X226906606Y-65405000D03*
X229446606Y-65405000D03*
X231986606Y-65405000D03*
%TD*%
D12*
%TO.C,R24*%
X141986000Y-136398000D03*
X144526000Y-136398000D03*
%TD*%
D17*
%TO.C,U$4*%
X117475000Y-128818100D03*
X117475000Y-131358100D03*
X117475000Y-133898100D03*
X117475000Y-136438100D03*
X125095000Y-136438100D03*
X125095000Y-133898100D03*
X125095000Y-131358100D03*
X125095000Y-128818100D03*
%TD*%
D43*
%TO.C,CN3*%
X257942231Y-112855375D03*
X257942231Y-108892975D03*
X257942231Y-104930575D03*
X257942231Y-100968175D03*
X257942231Y-97005775D03*
X257942231Y-93043375D03*
%TD*%
D13*
%TO.C,R11*%
X147320000Y-70485000D03*
X147320000Y-73025000D03*
%TD*%
D17*
%TO.C,D11*%
X177800000Y-69215000D03*
X170180000Y-69215000D03*
%TD*%
D44*
%TO.C,X1*%
X96410000Y-41225000D03*
D45*
X91860000Y-44525000D03*
X101460000Y-49025000D03*
D44*
X92410000Y-52225000D03*
D45*
X99060000Y-47625000D03*
%TD*%
D12*
%TO.C,R32*%
X86995000Y-52705000D03*
X89535000Y-52705000D03*
%TD*%
D27*
%TO.C,BEEP1*%
X244708120Y-52378121D03*
X242168120Y-52378121D03*
%TD*%
D17*
%TO.C,D9*%
X177800000Y-64135000D03*
X170180000Y-64135000D03*
%TD*%
D18*
%TO.C,R20*%
X174836606Y-121443750D03*
X172296606Y-121443750D03*
%TD*%
D46*
%TO.C,C5*%
X164438481Y-130333750D03*
D47*
X164438481Y-135413750D03*
%TD*%
D21*
%TO.C,U$1*%
X124460000Y-74930000D03*
D48*
X121920000Y-72390000D03*
X121920000Y-74930000D03*
X119380000Y-72390000D03*
X119380000Y-74930000D03*
X116840000Y-72390000D03*
X114300000Y-74930000D03*
X116840000Y-74930000D03*
X114300000Y-77470000D03*
X116840000Y-77470000D03*
X114300000Y-80010000D03*
X116840000Y-80010000D03*
X114300000Y-82550000D03*
X116840000Y-82550000D03*
X114300000Y-85090000D03*
X116840000Y-85090000D03*
X114300000Y-87630000D03*
X116840000Y-90170000D03*
X116840000Y-87630000D03*
X119380000Y-90170000D03*
X119380000Y-87630000D03*
X121920000Y-90170000D03*
X121920000Y-87630000D03*
X124460000Y-90170000D03*
X124460000Y-87630000D03*
X127000000Y-90170000D03*
X127000000Y-87630000D03*
X129540000Y-90170000D03*
X132080000Y-87630000D03*
X129540000Y-87630000D03*
X132080000Y-85090000D03*
X129540000Y-85090000D03*
X132080000Y-82550000D03*
X129540000Y-82550000D03*
X132080000Y-80010000D03*
X129540000Y-80010000D03*
X132080000Y-77470000D03*
X129540000Y-77470000D03*
X132080000Y-74930000D03*
X129540000Y-72390000D03*
X129540000Y-74930000D03*
X127000000Y-72390000D03*
X127000000Y-74930000D03*
X124460000Y-72390000D03*
%TD*%
D49*
%TO.C,C55*%
X110705000Y-104140000D03*
X109005000Y-104140000D03*
%TD*%
%TO.C,C57*%
X110705000Y-111760000D03*
X109005000Y-111760000D03*
%TD*%
D50*
%TO.C,C61*%
X114935000Y-102450000D03*
X114935000Y-100750000D03*
%TD*%
%TO.C,C53*%
X120650000Y-102450000D03*
X120650000Y-100750000D03*
%TD*%
D49*
%TO.C,C62*%
X121285000Y-106680000D03*
X119585000Y-106680000D03*
%TD*%
D50*
%TO.C,C69*%
X116840000Y-111975000D03*
X116840000Y-110275000D03*
%TD*%
D51*
%TO.C,C64*%
X117475000Y-104560000D03*
X117475000Y-106260000D03*
%TD*%
D52*
%TO.C,C68*%
X112600000Y-109220000D03*
X114300000Y-109220000D03*
%TD*%
D51*
%TO.C,C47*%
X111760000Y-114085000D03*
X111760000Y-115785000D03*
%TD*%
%TO.C,C46*%
X121285000Y-114085000D03*
X121285000Y-115785000D03*
%TD*%
D50*
%TO.C,C54*%
X117633200Y-102450000D03*
X117633200Y-100750000D03*
%TD*%
D51*
%TO.C,C45*%
X114935000Y-114085000D03*
X114935000Y-115785000D03*
%TD*%
D49*
%TO.C,C63*%
X121285000Y-109220000D03*
X119585000Y-109220000D03*
%TD*%
D52*
%TO.C,C58*%
X122975000Y-110966800D03*
X124675000Y-110966800D03*
%TD*%
D49*
%TO.C,C56*%
X110705000Y-109220000D03*
X109005000Y-109220000D03*
%TD*%
D51*
%TO.C,C48*%
X118110000Y-114085000D03*
X118110000Y-115785000D03*
%TD*%
D52*
%TO.C,C67*%
X112600000Y-106680000D03*
X114300000Y-106680000D03*
%TD*%
%TO.C,C60*%
X122975000Y-104933200D03*
X124675000Y-104933200D03*
%TD*%
%TO.C,C59*%
X122975000Y-107950000D03*
X124675000Y-107950000D03*
%TD*%
M02*
