%TF.GenerationSoftware,KiCad,Pcbnew,8.0.2*%
%TF.CreationDate,2024-05-25T17:16:43+02:00*%
%TF.ProjectId,micropet_v3,6d696372-6f70-4657-945f-76332e6b6963,rev?*%
%TF.SameCoordinates,Original*%
%TF.FileFunction,Soldermask,Top*%
%TF.FilePolarity,Negative*%
%FSLAX46Y46*%
G04 Gerber Fmt 4.6, Leading zero omitted, Abs format (unit mm)*
G04 Created by KiCad (PCBNEW 8.0.2) date 2024-05-25 17:16:43*
%MOMM*%
%LPD*%
G01*
G04 APERTURE LIST*
G04 Aperture macros list*
%AMRoundRect*
0 Rectangle with rounded corners*
0 $1 Rounding radius*
0 $2 $3 $4 $5 $6 $7 $8 $9 X,Y pos of 4 corners*
0 Add a 4 corners polygon primitive as box body*
4,1,4,$2,$3,$4,$5,$6,$7,$8,$9,$2,$3,0*
0 Add four circle primitives for the rounded corners*
1,1,$1+$1,$2,$3*
1,1,$1+$1,$4,$5*
1,1,$1+$1,$6,$7*
1,1,$1+$1,$8,$9*
0 Add four rect primitives between the rounded corners*
20,1,$1+$1,$2,$3,$4,$5,0*
20,1,$1+$1,$4,$5,$6,$7,0*
20,1,$1+$1,$6,$7,$8,$9,0*
20,1,$1+$1,$8,$9,$2,$3,0*%
%AMFreePoly0*
4,1,25,0.333266,0.742596,0.345389,0.732242,0.732242,0.345389,0.760749,0.289441,0.762000,0.273547,0.762000,-0.273547,0.742596,-0.333266,0.732242,-0.345389,0.345389,-0.732242,0.289441,-0.760749,0.273547,-0.762000,-0.273547,-0.762000,-0.333266,-0.742596,-0.345389,-0.732242,-0.732242,-0.345389,-0.760749,-0.289441,-0.762000,-0.273547,-0.762000,0.273547,-0.742596,0.333266,-0.732242,0.345389,
-0.345389,0.732242,-0.289441,0.760749,-0.273547,0.762000,0.273547,0.762000,0.333266,0.742596,0.333266,0.742596,$1*%
%AMFreePoly1*
4,1,25,0.391131,0.882296,0.403254,0.871942,0.871942,0.403254,0.900449,0.347306,0.901700,0.331412,0.901700,-0.331412,0.882296,-0.391131,0.871942,-0.403254,0.403254,-0.871942,0.347306,-0.900449,0.331412,-0.901700,-0.331412,-0.901700,-0.391131,-0.882296,-0.403254,-0.871942,-0.871942,-0.403254,-0.900449,-0.347306,-0.901700,-0.331412,-0.901700,0.331412,-0.882296,0.391131,-0.871942,0.403254,
-0.403254,0.871942,-0.347306,0.900449,-0.331412,0.901700,0.331412,0.901700,0.391131,0.882296,0.391131,0.882296,$1*%
%AMFreePoly2*
4,1,25,0.349047,0.780696,0.361170,0.770342,0.770342,0.361170,0.798849,0.305222,0.800100,0.289328,0.800100,-0.289328,0.780696,-0.349047,0.770342,-0.361170,0.361170,-0.770342,0.305222,-0.798849,0.289328,-0.800100,-0.289328,-0.800100,-0.349047,-0.780696,-0.361170,-0.770342,-0.770342,-0.361170,-0.798849,-0.305222,-0.800100,-0.289328,-0.800100,0.289328,-0.780696,0.349047,-0.770342,0.361170,
-0.361170,0.770342,-0.305222,0.798849,-0.289328,0.800100,0.289328,0.800100,0.349047,0.780696,0.349047,0.780696,$1*%
%AMFreePoly3*
4,1,25,0.354308,0.793396,0.366431,0.783042,0.783042,0.366431,0.811549,0.310483,0.812800,0.294589,0.812800,-0.294589,0.793396,-0.354308,0.783042,-0.366431,0.366431,-0.783042,0.310483,-0.811549,0.294589,-0.812800,-0.294589,-0.812800,-0.354308,-0.793396,-0.366431,-0.783042,-0.783042,-0.366431,-0.811549,-0.310483,-0.812800,-0.294589,-0.812800,0.294589,-0.793396,0.354308,-0.783042,0.366431,
-0.366431,0.783042,-0.310483,0.811549,-0.294589,0.812800,0.294589,0.812800,0.354308,0.793396,0.354308,0.793396,$1*%
%AMFreePoly4*
4,1,25,0.454257,1.034696,0.466380,1.024342,1.024342,0.466380,1.052849,0.410432,1.054100,0.394538,1.054100,-0.394538,1.034696,-0.454257,1.024342,-0.466380,0.466380,-1.024342,0.410432,-1.052849,0.394538,-1.054100,-0.394538,-1.054100,-0.454257,-1.034696,-0.466380,-1.024342,-1.024342,-0.466380,-1.052849,-0.410432,-1.054100,-0.394538,-1.054100,0.394538,-1.034696,0.454257,-1.024342,0.466380,
-0.466380,1.024342,-0.410432,1.052849,-0.394538,1.054100,0.394538,1.054100,0.454257,1.034696,0.454257,1.034696,$1*%
%AMFreePoly5*
4,1,25,0.375350,0.844196,0.387473,0.833842,0.833842,0.387473,0.862349,0.331525,0.863600,0.315631,0.863600,-0.315631,0.844196,-0.375350,0.833842,-0.387473,0.387473,-0.833842,0.331525,-0.862349,0.315631,-0.863600,-0.315631,-0.863600,-0.375350,-0.844196,-0.387473,-0.833842,-0.833842,-0.387473,-0.862349,-0.331525,-0.863600,-0.315631,-0.863600,0.315631,-0.844196,0.375350,-0.833842,0.387473,
-0.387473,0.833842,-0.331525,0.862349,-0.315631,0.863600,0.315631,0.863600,0.375350,0.844196,0.375350,0.844196,$1*%
%AMFreePoly6*
4,1,25,0.585770,1.352196,0.597893,1.341842,1.341842,0.597893,1.370349,0.541945,1.371600,0.526051,1.371600,-0.526051,1.352196,-0.585770,1.341842,-0.597893,0.597893,-1.341842,0.541945,-1.370349,0.526051,-1.371600,-0.526051,-1.371600,-0.585770,-1.352196,-0.597893,-1.341842,-1.341842,-0.597893,-1.370349,-0.541945,-1.371600,-0.526051,-1.371600,0.526051,-1.352196,0.585770,-1.341842,0.597893,
-0.597893,1.341842,-0.541945,1.370349,-0.526051,1.371600,0.526051,1.371600,0.585770,1.352196,0.585770,1.352196,$1*%
G04 Aperture macros list end*
%ADD10C,3.200000*%
%ADD11RoundRect,0.101600X0.317500X-0.635000X0.317500X0.635000X-0.317500X0.635000X-0.317500X-0.635000X0*%
%ADD12RoundRect,0.101600X-0.317500X0.635000X-0.317500X-0.635000X0.317500X-0.635000X0.317500X0.635000X0*%
%ADD13FreePoly0,90.000000*%
%ADD14FreePoly0,0.000000*%
%ADD15FreePoly0,270.000000*%
%ADD16C,1.803400*%
%ADD17FreePoly1,0.000000*%
%ADD18RoundRect,0.101600X-0.330200X-1.016000X0.330200X-1.016000X0.330200X1.016000X-0.330200X1.016000X0*%
%ADD19FreePoly1,90.000000*%
%ADD20O,2.844800X1.524000*%
%ADD21RoundRect,0.101600X-0.550000X-0.500000X0.550000X-0.500000X0.550000X0.500000X-0.550000X0.500000X0*%
%ADD22RoundRect,0.101600X0.500000X-0.550000X0.500000X0.550000X-0.500000X0.550000X-0.500000X-0.550000X0*%
%ADD23RoundRect,0.101600X-0.500000X0.550000X-0.500000X-0.550000X0.500000X-0.550000X0.500000X0.550000X0*%
%ADD24RoundRect,0.101600X-0.125000X-0.500000X0.125000X-0.500000X0.125000X0.500000X-0.125000X0.500000X0*%
%ADD25RoundRect,0.101600X0.125000X0.500000X-0.125000X0.500000X-0.125000X-0.500000X0.125000X-0.500000X0*%
%ADD26RoundRect,0.101600X0.550000X0.500000X-0.550000X0.500000X-0.550000X-0.500000X0.550000X-0.500000X0*%
%ADD27FreePoly0,180.000000*%
%ADD28O,3.048000X1.625600*%
%ADD29RoundRect,0.101600X1.016000X-0.330200X1.016000X0.330200X-1.016000X0.330200X-1.016000X-0.330200X0*%
%ADD30C,1.524000*%
%ADD31C,1.600200*%
%ADD32FreePoly2,270.000000*%
%ADD33C,1.625600*%
%ADD34C,3.530600*%
%ADD35O,1.524000X2.844800*%
%ADD36RoundRect,0.101600X-0.300000X-1.100000X0.300000X-1.100000X0.300000X1.100000X-0.300000X1.100000X0*%
%ADD37FreePoly3,180.000000*%
%ADD38O,1.625600X3.048000*%
%ADD39FreePoly1,270.000000*%
%ADD40RoundRect,0.101600X0.450000X-0.400000X0.450000X0.400000X-0.450000X0.400000X-0.450000X-0.400000X0*%
%ADD41RoundRect,0.101600X1.100000X-0.300000X1.100000X0.300000X-1.100000X0.300000X-1.100000X-0.300000X0*%
%ADD42RoundRect,0.101600X0.650000X0.750000X-0.650000X0.750000X-0.650000X-0.750000X0.650000X-0.750000X0*%
%ADD43C,2.108200*%
%ADD44FreePoly4,270.000000*%
%ADD45RoundRect,0.101600X-0.955000X0.305000X-0.955000X-0.305000X0.955000X-0.305000X0.955000X0.305000X0*%
%ADD46RoundRect,0.101600X1.205000X1.550000X-1.205000X1.550000X-1.205000X-1.550000X1.205000X-1.550000X0*%
%ADD47C,2.082800*%
%ADD48R,1.700000X1.700000*%
%ADD49O,1.700000X1.700000*%
%ADD50RoundRect,0.101600X-0.650000X-0.750000X0.650000X-0.750000X0.650000X0.750000X-0.650000X0.750000X0*%
%ADD51C,3.048000*%
%ADD52C,1.727200*%
%ADD53RoundRect,0.101600X0.127000X-0.571500X0.127000X0.571500X-0.127000X0.571500X-0.127000X-0.571500X0*%
%ADD54RoundRect,0.101600X0.571500X0.127000X-0.571500X0.127000X-0.571500X-0.127000X0.571500X-0.127000X0*%
%ADD55RoundRect,0.101600X-0.127000X0.571500X-0.127000X-0.571500X0.127000X-0.571500X0.127000X0.571500X0*%
%ADD56RoundRect,0.101600X-0.571500X-0.127000X0.571500X-0.127000X0.571500X0.127000X-0.571500X0.127000X0*%
%ADD57RoundRect,0.388620X0.906780X4.792980X-0.906780X4.792980X-0.906780X-4.792980X0.906780X-4.792980X0*%
%ADD58R,1.500000X2.000000*%
%ADD59R,3.800000X2.000000*%
%ADD60FreePoly2,90.000000*%
%ADD61FreePoly5,180.000000*%
%ADD62C,2.362200*%
%ADD63RoundRect,0.101600X0.135000X0.750000X-0.135000X0.750000X-0.135000X-0.750000X0.135000X-0.750000X0*%
%ADD64RoundRect,0.101600X0.750000X0.135000X-0.750000X0.135000X-0.750000X-0.135000X0.750000X-0.135000X0*%
%ADD65FreePoly3,270.000000*%
%ADD66O,2.203200X4.203200*%
%ADD67O,4.203200X2.203200*%
%ADD68RoundRect,0.388620X4.792980X-0.906780X4.792980X0.906780X-4.792980X0.906780X-4.792980X-0.906780X0*%
%ADD69O,2.603200X1.403200*%
%ADD70O,1.403200X2.603200*%
%ADD71RoundRect,0.150000X-0.512500X-0.150000X0.512500X-0.150000X0.512500X0.150000X-0.512500X0.150000X0*%
%ADD72C,2.743200*%
%ADD73FreePoly6,270.000000*%
%ADD74FreePoly2,0.000000*%
G04 APERTURE END LIST*
D10*
%TO.C,H3*%
X258974106Y-43815000D03*
%TD*%
D11*
%TO.C,JS1*%
X130810000Y-132080000D03*
X132080000Y-132080000D03*
X133350000Y-132080000D03*
X133350000Y-129540000D03*
D12*
X132080000Y-129540000D03*
D11*
X130810000Y-129540000D03*
%TD*%
D13*
%TO.C,R2*%
X128560981Y-57150000D03*
X128560981Y-49530000D03*
%TD*%
D14*
%TO.C,R12*%
X77978000Y-47361600D03*
X80518000Y-47361600D03*
%TD*%
D13*
%TO.C,R3*%
X186742856Y-59610625D03*
X186742856Y-57070625D03*
%TD*%
D15*
%TO.C,R10*%
X151765000Y-70485000D03*
X151765000Y-73025000D03*
%TD*%
D10*
%TO.C,H1*%
X108796606Y-134302500D03*
%TD*%
D14*
%TO.C,D5*%
X149992231Y-58896250D03*
X144912231Y-58896250D03*
%TD*%
D15*
%TO.C,R9*%
X156210000Y-70485000D03*
X156210000Y-73025000D03*
%TD*%
D16*
%TO.C,C36*%
X238177856Y-120967500D03*
D17*
X240717856Y-120967500D03*
%TD*%
D18*
%TO.C,IC4*%
X240559106Y-83877150D03*
X241829106Y-83877150D03*
X243099106Y-83877150D03*
X244369106Y-83877150D03*
X245639106Y-83877150D03*
X246909106Y-83877150D03*
X248179106Y-83877150D03*
X248179106Y-77730350D03*
X246909106Y-77730350D03*
X245639106Y-77730350D03*
X244369106Y-77730350D03*
X243099106Y-77730350D03*
X241829106Y-77730350D03*
X240559106Y-77730350D03*
%TD*%
D16*
%TO.C,C28*%
X197537856Y-129063750D03*
D19*
X197537856Y-126523750D03*
%TD*%
D20*
%TO.C,U$9*%
X119380000Y-45212000D03*
X119380000Y-47752000D03*
X119380000Y-50292000D03*
X119380000Y-52832000D03*
X119380000Y-55372000D03*
X139700000Y-55372000D03*
X139700000Y-52832000D03*
X139700000Y-50292000D03*
X139700000Y-47752000D03*
X139700000Y-45212000D03*
%TD*%
D21*
%TO.C,C12*%
X87176875Y-96361250D03*
X88876875Y-96361250D03*
%TD*%
%TO.C,C29*%
X78604375Y-116998750D03*
X80304375Y-116998750D03*
%TD*%
D20*
%TO.C,D10*%
X177800000Y-66675000D03*
X170180000Y-66675000D03*
%TD*%
D22*
%TO.C,C23*%
X250929656Y-54059631D03*
X250929656Y-52359631D03*
%TD*%
D23*
%TO.C,C8*%
X86360000Y-129110000D03*
X86360000Y-130810000D03*
%TD*%
D24*
%TO.C,U$13*%
X79010000Y-102713100D03*
X79510000Y-102713100D03*
X80010000Y-102713100D03*
X80510000Y-102713100D03*
X81010000Y-102713100D03*
D25*
X81010000Y-98486900D03*
X80510000Y-98486900D03*
X80010000Y-98486900D03*
X79510000Y-98486900D03*
X79010000Y-98486900D03*
%TD*%
D13*
%TO.C,R8*%
X159385000Y-66040000D03*
X159385000Y-63500000D03*
%TD*%
D26*
%TO.C,C70*%
X141632519Y-123257232D03*
X139932519Y-123257232D03*
%TD*%
D21*
%TO.C,C42*%
X140032000Y-78740000D03*
X141732000Y-78740000D03*
%TD*%
D14*
%TO.C,R18*%
X99060000Y-55403750D03*
X101600000Y-55403750D03*
%TD*%
D27*
%TO.C,R21*%
X174836606Y-118745000D03*
X172296606Y-118745000D03*
%TD*%
D14*
%TO.C,C50*%
X80010000Y-59690000D03*
X85090000Y-59690000D03*
%TD*%
D28*
%TO.C,JP9*%
X160933591Y-71633569D03*
X160933591Y-74173569D03*
%TD*%
D13*
%TO.C,R14*%
X160655000Y-59055000D03*
X160655000Y-56515000D03*
%TD*%
D22*
%TO.C,C33*%
X106045000Y-71550000D03*
X106045000Y-69850000D03*
%TD*%
D21*
%TO.C,C7*%
X160651606Y-127000000D03*
X162351606Y-127000000D03*
%TD*%
D13*
%TO.C,R22*%
X149436606Y-131921250D03*
X149436606Y-129381250D03*
%TD*%
D29*
%TO.C,IC7*%
X151130000Y-109220000D03*
X151130000Y-107950000D03*
X151130000Y-106680000D03*
X151130000Y-105410000D03*
X151130000Y-104140000D03*
X151130000Y-102870000D03*
X151130000Y-101600000D03*
X151130000Y-100330000D03*
X144983200Y-100330000D03*
X144983200Y-101600000D03*
X144983200Y-102870000D03*
X144983200Y-104140000D03*
X144983200Y-105410000D03*
X144983200Y-106680000D03*
X144983200Y-107950000D03*
X144983200Y-109220000D03*
%TD*%
D30*
%TO.C,Q2*%
X81200625Y-106045000D03*
X78660625Y-106045000D03*
%TD*%
D31*
%TO.C,IC10*%
X241987856Y-104140000D03*
D32*
X244527856Y-101600000D03*
X241987856Y-101600000D03*
X244527856Y-99060000D03*
X241987856Y-99060000D03*
X244527856Y-96520000D03*
X241987856Y-93980000D03*
X241987856Y-96520000D03*
X239447856Y-93980000D03*
X239447856Y-96520000D03*
X236907856Y-93980000D03*
X236907856Y-96520000D03*
X234367856Y-93980000D03*
X234367856Y-96520000D03*
X231827856Y-93980000D03*
X231827856Y-96520000D03*
X229287856Y-93980000D03*
X226747856Y-96520000D03*
X229287856Y-96520000D03*
X226747856Y-99060000D03*
X229287856Y-99060000D03*
X226747856Y-101600000D03*
X229287856Y-101600000D03*
X226747856Y-104140000D03*
X229287856Y-104140000D03*
X226747856Y-106680000D03*
X229287856Y-106680000D03*
X226747856Y-109220000D03*
X229287856Y-111760000D03*
X229287856Y-109220000D03*
X231827856Y-111760000D03*
X231827856Y-109220000D03*
X234367856Y-111760000D03*
X234367856Y-109220000D03*
X236907856Y-111760000D03*
X236907856Y-109220000D03*
X239447856Y-111760000D03*
X239447856Y-109220000D03*
X241987856Y-111760000D03*
X244527856Y-109220000D03*
X241987856Y-109220000D03*
X244527856Y-106680000D03*
X241987856Y-106680000D03*
X244527856Y-104140000D03*
%TD*%
D18*
%TO.C,IC2*%
X167851606Y-84642325D03*
X169121606Y-84642325D03*
X170391606Y-84642325D03*
X171661606Y-84642325D03*
X172931606Y-84642325D03*
X174201606Y-84642325D03*
X175471606Y-84642325D03*
X176741606Y-84642325D03*
X178011606Y-84642325D03*
X179281606Y-84642325D03*
X179281606Y-74583925D03*
X178011606Y-74583925D03*
X176741606Y-74583925D03*
X175471606Y-74583925D03*
X174201606Y-74583925D03*
X172931606Y-74583925D03*
X171661606Y-74583925D03*
X170391606Y-74583925D03*
X169121606Y-74583925D03*
X167851606Y-74583925D03*
%TD*%
D33*
%TO.C,USB1*%
X128589556Y-46770925D03*
X130596156Y-46770925D03*
X126100356Y-46770925D03*
D34*
X136158756Y-44053125D03*
X123026956Y-44053125D03*
D33*
X133085356Y-46770925D03*
%TD*%
D35*
%TO.C,RN4*%
X187219106Y-65405000D03*
X189759106Y-65405000D03*
X192299106Y-65405000D03*
X194839106Y-65405000D03*
X197379106Y-65405000D03*
X199919106Y-65405000D03*
X202459106Y-65405000D03*
X204999106Y-65405000D03*
X207539106Y-65405000D03*
%TD*%
D18*
%TO.C,IC3*%
X237939731Y-73796525D03*
X239209731Y-73796525D03*
X240479731Y-73796525D03*
X241749731Y-73796525D03*
X243019731Y-73796525D03*
X244289731Y-73796525D03*
X245559731Y-73796525D03*
X245559731Y-67649725D03*
X244289731Y-67649725D03*
X243019731Y-67649725D03*
X241749731Y-67649725D03*
X240479731Y-67649725D03*
X239209731Y-67649725D03*
X237939731Y-67649725D03*
%TD*%
D36*
%TO.C,SN1*%
X94615000Y-64890000D03*
X95885000Y-64890000D03*
X97155000Y-64890000D03*
X98425000Y-64890000D03*
X98425000Y-59690000D03*
X97155000Y-59690000D03*
X95885000Y-59690000D03*
X94615000Y-59690000D03*
%TD*%
D21*
%TO.C,C39*%
X112709106Y-60960000D03*
X114409106Y-60960000D03*
%TD*%
D10*
%TO.C,H6*%
X236193481Y-56832500D03*
%TD*%
D23*
%TO.C,C22*%
X227224106Y-122260625D03*
X227224106Y-123960625D03*
%TD*%
D13*
%TO.C,R26*%
X162560000Y-59055000D03*
X162560000Y-56515000D03*
%TD*%
D16*
%TO.C,C37*%
X106891606Y-51276250D03*
D17*
X109431606Y-51276250D03*
%TD*%
D21*
%TO.C,C9*%
X136564000Y-59531250D03*
X138264000Y-59531250D03*
%TD*%
D37*
%TO.C,P2*%
X230160981Y-55483125D03*
X227620981Y-55483125D03*
X225080981Y-55483125D03*
X222540981Y-55483125D03*
X220000981Y-55483125D03*
X217460981Y-55483125D03*
X214920981Y-55483125D03*
X212380981Y-55483125D03*
X209840981Y-55483125D03*
X207300981Y-55483125D03*
X204760981Y-55483125D03*
X202220981Y-55483125D03*
X230160981Y-58023125D03*
X227620981Y-58023125D03*
X225080981Y-58023125D03*
X222540981Y-58023125D03*
X220000981Y-58023125D03*
X217460981Y-58023125D03*
X214920981Y-58023125D03*
X212380981Y-58023125D03*
X209840981Y-58023125D03*
X207300981Y-58023125D03*
X204760981Y-58023125D03*
X202220981Y-58023125D03*
%TD*%
D13*
%TO.C,D8*%
X133244106Y-51276250D03*
X133244106Y-56356250D03*
%TD*%
D38*
%TO.C,P1*%
X201506606Y-136207500D03*
X206586606Y-136207500D03*
X209126606Y-136207500D03*
X211666606Y-136207500D03*
X214206606Y-136207500D03*
X216746606Y-136207500D03*
X219286606Y-136207500D03*
X221826606Y-136207500D03*
X224366606Y-136207500D03*
X226906606Y-136207500D03*
X229446606Y-136207500D03*
X231986606Y-136207500D03*
X234526606Y-136207500D03*
X237066606Y-136207500D03*
X239606606Y-136207500D03*
X242146606Y-136207500D03*
X244686606Y-136207500D03*
X247226606Y-136207500D03*
X249766606Y-136207500D03*
%TD*%
D14*
%TO.C,C51*%
X88265000Y-56515000D03*
X93345000Y-56515000D03*
%TD*%
D21*
%TO.C,C17*%
X207800356Y-85328125D03*
X209500356Y-85328125D03*
%TD*%
D29*
%TO.C,IC6*%
X147218400Y-121285000D03*
X147218400Y-120015000D03*
X147218400Y-118745000D03*
X147218400Y-117475000D03*
X147218400Y-116205000D03*
X147218400Y-114935000D03*
X147218400Y-113665000D03*
X141071600Y-113665000D03*
X141071600Y-114935000D03*
X141071600Y-116205000D03*
X141071600Y-117475000D03*
X141071600Y-118745000D03*
X141071600Y-120015000D03*
X141071600Y-121285000D03*
%TD*%
D13*
%TO.C,R6*%
X235637856Y-65087500D03*
X235637856Y-62547500D03*
%TD*%
D16*
%TO.C,C26*%
X170232856Y-124460000D03*
D39*
X170232856Y-127000000D03*
%TD*%
D22*
%TO.C,C15*%
X181345356Y-80463125D03*
X181345356Y-78763125D03*
%TD*%
D23*
%TO.C,C19*%
X171820356Y-111227500D03*
X171820356Y-112927500D03*
%TD*%
D14*
%TO.C,R5*%
X151765000Y-117475000D03*
X156845000Y-117475000D03*
%TD*%
D30*
%TO.C,Q3*%
X107526606Y-63055500D03*
X107526606Y-58229500D03*
%TD*%
D40*
%TO.C,Q1*%
X255272330Y-54089992D03*
X255272330Y-52189992D03*
X253272330Y-53139992D03*
%TD*%
D38*
%TO.C,JP7*%
X156210000Y-76200000D03*
X153670000Y-76200000D03*
X151130000Y-76200000D03*
X148590000Y-76200000D03*
%TD*%
D20*
%TO.C,D3*%
X177800000Y-59055000D03*
X170180000Y-59055000D03*
%TD*%
D14*
%TO.C,C52*%
X80010000Y-63500000D03*
X85090000Y-63500000D03*
%TD*%
D22*
%TO.C,C3*%
X104140000Y-129755000D03*
X104140000Y-128055000D03*
%TD*%
D29*
%TO.C,IC16*%
X152984200Y-95885000D03*
X152984200Y-94615000D03*
X152984200Y-93345000D03*
X152984200Y-92075000D03*
X152984200Y-90805000D03*
X152984200Y-89535000D03*
X152984200Y-88265000D03*
X152984200Y-86995000D03*
X152984200Y-85725000D03*
X152984200Y-84455000D03*
X152984200Y-83185000D03*
X152984200Y-81915000D03*
X142925800Y-81915000D03*
X142925800Y-83185000D03*
X142925800Y-84455000D03*
X142925800Y-85725000D03*
X142925800Y-86995000D03*
X142925800Y-88265000D03*
X142925800Y-89535000D03*
X142925800Y-90805000D03*
X142925800Y-92075000D03*
X142925800Y-93345000D03*
X142925800Y-94615000D03*
X142925800Y-95885000D03*
%TD*%
D13*
%TO.C,R28*%
X154940000Y-59055000D03*
X154940000Y-56515000D03*
%TD*%
D22*
%TO.C,C18*%
X237860356Y-79748750D03*
X237860356Y-78048750D03*
%TD*%
D13*
%TO.C,R27*%
X158750000Y-59055000D03*
X158750000Y-56515000D03*
%TD*%
D35*
%TO.C,RN3*%
X211666606Y-69532500D03*
X214206606Y-69532500D03*
X216746606Y-69532500D03*
X219286606Y-69532500D03*
X221826606Y-69532500D03*
X224366606Y-69532500D03*
X226906606Y-69532500D03*
X229446606Y-69532500D03*
X231986606Y-69532500D03*
%TD*%
D14*
%TO.C,D1*%
X149992231Y-61436250D03*
X144912231Y-61436250D03*
%TD*%
D41*
%TO.C,IC13*%
X97856000Y-123190000D03*
X97856000Y-121920000D03*
X97856000Y-120650000D03*
X97856000Y-119380000D03*
X97856000Y-118110000D03*
X97856000Y-116840000D03*
X97856000Y-115570000D03*
X97856000Y-114300000D03*
X97856000Y-113030000D03*
X97856000Y-111760000D03*
X97856000Y-110490000D03*
X97856000Y-109220000D03*
X97856000Y-107950000D03*
X97856000Y-106680000D03*
X97856000Y-105410000D03*
X97856000Y-104140000D03*
X85024000Y-104140000D03*
X85024000Y-105410000D03*
X85024000Y-106680000D03*
X85024000Y-107950000D03*
X85024000Y-109220000D03*
X85024000Y-110490000D03*
X85024000Y-111760000D03*
X85024000Y-113030000D03*
X85024000Y-114300000D03*
X85024000Y-115570000D03*
X85024000Y-116840000D03*
X85024000Y-118110000D03*
X85024000Y-119380000D03*
X85024000Y-120650000D03*
X85024000Y-121920000D03*
X85024000Y-123190000D03*
%TD*%
D23*
%TO.C,C43*%
X133588125Y-110433750D03*
X133588125Y-112133750D03*
%TD*%
D14*
%TO.C,D6*%
X149992231Y-56356250D03*
X144912231Y-56356250D03*
%TD*%
D28*
%TO.C,JP5*%
X181742231Y-72072500D03*
X181742231Y-69532500D03*
%TD*%
D42*
%TO.C,C65*%
X145410000Y-133350000D03*
X143510000Y-133350000D03*
%TD*%
D14*
%TO.C,C49*%
X80010000Y-56197500D03*
X85090000Y-56197500D03*
%TD*%
D13*
%TO.C,R16*%
X258671196Y-54340353D03*
X258671196Y-51800353D03*
%TD*%
D20*
%TO.C,D4*%
X177800000Y-61595000D03*
X170180000Y-61595000D03*
%TD*%
D10*
%TO.C,H4*%
X258974106Y-134302500D03*
%TD*%
D14*
%TO.C,R30*%
X86995000Y-49530000D03*
X89535000Y-49530000D03*
%TD*%
D27*
%TO.C,R31*%
X90805000Y-62230000D03*
X88265000Y-62230000D03*
%TD*%
D43*
%TO.C,C6*%
X243869751Y-56062990D03*
D44*
X243869751Y-61142990D03*
%TD*%
D10*
%TO.C,H7*%
X194521606Y-134302500D03*
%TD*%
D13*
%TO.C,R13*%
X164465000Y-59055000D03*
X164465000Y-56515000D03*
%TD*%
D21*
%TO.C,C31*%
X222564106Y-115570000D03*
X224264106Y-115570000D03*
%TD*%
D20*
%TO.C,U$14*%
X89535000Y-128818100D03*
X89535000Y-131358100D03*
X89535000Y-133898100D03*
X89535000Y-136438100D03*
X97155000Y-136438100D03*
X97155000Y-133898100D03*
X97155000Y-131358100D03*
X97155000Y-128818100D03*
%TD*%
D28*
%TO.C,JP1*%
X202300356Y-127476250D03*
X202300356Y-124936250D03*
X202300356Y-122396250D03*
%TD*%
D26*
%TO.C,C30*%
X80304375Y-120015000D03*
X78604375Y-120015000D03*
%TD*%
D38*
%TO.C,JP8*%
X87630000Y-100330000D03*
X85090000Y-100330000D03*
%TD*%
D45*
%TO.C,U$16*%
X145655000Y-129540000D03*
X145655000Y-128270000D03*
X145655000Y-127000000D03*
X145655000Y-125730000D03*
X140095000Y-125730000D03*
X140095000Y-127000000D03*
X140095000Y-128270000D03*
X140095000Y-129540000D03*
D46*
X142875000Y-127635000D03*
%TD*%
D47*
%TO.C,U$7*%
X174042856Y-135572500D03*
X174042856Y-133032500D03*
X176582856Y-135572500D03*
X176582856Y-133032500D03*
X179122856Y-135572500D03*
X179122856Y-133032500D03*
X181662856Y-135572500D03*
X181662856Y-133032500D03*
X184202856Y-135572500D03*
X184202856Y-133032500D03*
%TD*%
D26*
%TO.C,C35*%
X240774106Y-61595000D03*
X239074106Y-61595000D03*
%TD*%
D23*
%TO.C,C10*%
X130810000Y-110433750D03*
X130810000Y-112133750D03*
%TD*%
D28*
%TO.C,JP2*%
X80089375Y-131445000D03*
X80089375Y-133985000D03*
%TD*%
D14*
%TO.C,R23*%
X151765000Y-114935000D03*
X156845000Y-114935000D03*
%TD*%
D38*
%TO.C,JP6*%
X239924106Y-89058750D03*
X237384106Y-89058750D03*
X234844106Y-89058750D03*
%TD*%
D48*
%TO.C,U$8*%
X247790762Y-54605580D03*
D49*
X247790762Y-57145580D03*
X247790762Y-59685580D03*
X247790762Y-62225580D03*
X247790762Y-64765580D03*
X247790762Y-67305580D03*
X247790762Y-69845580D03*
%TD*%
D35*
%TO.C,RN1*%
X249687231Y-127476250D03*
X247147231Y-127476250D03*
X244607231Y-127476250D03*
X242067231Y-127476250D03*
X239527231Y-127476250D03*
X236987231Y-127476250D03*
X234447231Y-127476250D03*
X231907231Y-127476250D03*
X229367231Y-127476250D03*
%TD*%
D50*
%TO.C,C66*%
X137795000Y-133350000D03*
X139695000Y-133350000D03*
%TD*%
D51*
%TO.C,X2*%
X172728406Y-50482500D03*
X147734806Y-50482500D03*
D52*
X155913606Y-53022500D03*
X158199606Y-53022500D03*
X160485606Y-53022500D03*
X162771606Y-53022500D03*
X165057606Y-53022500D03*
X154770606Y-50482500D03*
X157056606Y-50482500D03*
X159342606Y-50482500D03*
X161628606Y-50482500D03*
X163914606Y-50482500D03*
X155913606Y-47942500D03*
X158199606Y-47942500D03*
X160485606Y-47942500D03*
X162771606Y-47942500D03*
X165057606Y-47942500D03*
%TD*%
D13*
%TO.C,R15*%
X156845000Y-59055000D03*
X156845000Y-56515000D03*
%TD*%
D35*
%TO.C,U$6*%
X207697856Y-74771250D03*
X205157856Y-74771250D03*
X202617856Y-74771250D03*
X200077856Y-74771250D03*
X197537856Y-74771250D03*
X194997856Y-74771250D03*
X192457856Y-74771250D03*
X189917856Y-74771250D03*
X187377856Y-74771250D03*
X184837856Y-74771250D03*
X184837856Y-82391250D03*
X187377856Y-82391250D03*
X189917856Y-82391250D03*
X192457856Y-82391250D03*
X194997856Y-82391250D03*
X197537856Y-82391250D03*
X200077856Y-82391250D03*
X202617856Y-82391250D03*
X205157856Y-82391250D03*
X207697856Y-82391250D03*
%TD*%
D53*
%TO.C,IC8*%
X128001606Y-67000000D03*
X128501606Y-67000000D03*
X129001606Y-67000000D03*
X129501606Y-67000000D03*
X130001606Y-67000000D03*
X130501606Y-67000000D03*
X131001606Y-67000000D03*
X131501606Y-67000000D03*
D54*
X133251606Y-65250000D03*
X133251606Y-64750000D03*
X133251606Y-64250000D03*
X133251606Y-63750000D03*
X133251606Y-63250000D03*
X133251606Y-62750000D03*
X133251606Y-62250000D03*
X133251606Y-61750000D03*
D55*
X131501606Y-60000000D03*
X131001606Y-60000000D03*
X130501606Y-60000000D03*
X130001606Y-60000000D03*
X129501606Y-60000000D03*
X129001606Y-60000000D03*
X128501606Y-60000000D03*
X128001606Y-60000000D03*
D56*
X126251606Y-61750000D03*
X126251606Y-62250000D03*
X126251606Y-62750000D03*
X126251606Y-63250000D03*
X126251606Y-63750000D03*
X126251606Y-64250000D03*
X126251606Y-64750000D03*
X126251606Y-65250000D03*
%TD*%
D14*
%TO.C,R19*%
X77978000Y-50292000D03*
X80518000Y-50292000D03*
%TD*%
D13*
%TO.C,R1*%
X131100981Y-57150000D03*
X131100981Y-49530000D03*
%TD*%
D35*
%TO.C,IC5*%
X224366606Y-120332500D03*
X221826606Y-120332500D03*
X219286606Y-120332500D03*
X216746606Y-120332500D03*
X214206606Y-120332500D03*
X211666606Y-120332500D03*
X209126606Y-120332500D03*
X206586606Y-120332500D03*
X206586606Y-127952500D03*
X209126606Y-127952500D03*
X211666606Y-127952500D03*
X214206606Y-127952500D03*
X216746606Y-127952500D03*
X219286606Y-127952500D03*
X221826606Y-127952500D03*
X224366606Y-127952500D03*
%TD*%
D38*
%TO.C,U$11*%
X192457856Y-122555000D03*
X189917856Y-122555000D03*
X187377856Y-122555000D03*
X184837856Y-122555000D03*
X182297856Y-122555000D03*
X179757856Y-122555000D03*
%TD*%
D35*
%TO.C,U$5*%
X234844106Y-74771250D03*
X232304106Y-74771250D03*
X229764106Y-74771250D03*
X227224106Y-74771250D03*
X224684106Y-74771250D03*
X222144106Y-74771250D03*
X219604106Y-74771250D03*
X217064106Y-74771250D03*
X214524106Y-74771250D03*
X211984106Y-74771250D03*
X211984106Y-82391250D03*
X214524106Y-82391250D03*
X217064106Y-82391250D03*
X219604106Y-82391250D03*
X222144106Y-82391250D03*
X224684106Y-82391250D03*
X227224106Y-82391250D03*
X229764106Y-82391250D03*
X232304106Y-82391250D03*
X234844106Y-82391250D03*
%TD*%
D57*
%TO.C,CN4*%
X237904806Y-44767500D03*
X233942406Y-44767500D03*
X229980006Y-44767500D03*
X226017606Y-44767500D03*
X222055206Y-44767500D03*
X218092806Y-44767500D03*
X214130406Y-44767500D03*
X210168006Y-44767500D03*
X206205606Y-44767500D03*
X202243206Y-44767500D03*
X198280806Y-44767500D03*
X194318406Y-44767500D03*
%TD*%
D21*
%TO.C,C4*%
X127746531Y-122062078D03*
X129446531Y-122062078D03*
%TD*%
D58*
%TO.C,U1*%
X158510000Y-129565000D03*
X156210000Y-129565000D03*
X153910000Y-129565000D03*
D59*
X156210000Y-135865000D03*
%TD*%
D31*
%TO.C,IC9*%
X178011606Y-100965000D03*
D60*
X175471606Y-103505000D03*
X178011606Y-103505000D03*
X175471606Y-106045000D03*
X178011606Y-106045000D03*
X175471606Y-108585000D03*
X178011606Y-111125000D03*
X178011606Y-108585000D03*
X180551606Y-111125000D03*
X180551606Y-108585000D03*
X183091606Y-111125000D03*
X183091606Y-108585000D03*
X185631606Y-111125000D03*
X185631606Y-108585000D03*
X188171606Y-111125000D03*
X188171606Y-108585000D03*
X190711606Y-111125000D03*
X193251606Y-108585000D03*
X190711606Y-108585000D03*
X193251606Y-106045000D03*
X190711606Y-106045000D03*
X193251606Y-103505000D03*
X190711606Y-103505000D03*
X193251606Y-100965000D03*
X190711606Y-100965000D03*
X193251606Y-98425000D03*
X190711606Y-98425000D03*
X193251606Y-95885000D03*
X190711606Y-93345000D03*
X190711606Y-95885000D03*
X188171606Y-93345000D03*
X188171606Y-95885000D03*
X185631606Y-93345000D03*
X185631606Y-95885000D03*
X183091606Y-93345000D03*
X183091606Y-95885000D03*
X180551606Y-93345000D03*
X180551606Y-95885000D03*
X178011606Y-93345000D03*
X175471606Y-95885000D03*
X178011606Y-95885000D03*
X175471606Y-98425000D03*
X178011606Y-98425000D03*
X175471606Y-100965000D03*
%TD*%
D38*
%TO.C,JP3*%
X244210356Y-89217500D03*
X246750356Y-89217500D03*
%TD*%
D21*
%TO.C,C44*%
X127737500Y-124142500D03*
X129437500Y-124142500D03*
%TD*%
%TO.C,C20*%
X225104106Y-89693750D03*
X226804106Y-89693750D03*
%TD*%
D10*
%TO.C,H2*%
X108796606Y-43815000D03*
%TD*%
D35*
%TO.C,RN5*%
X187219106Y-69532500D03*
X189759106Y-69532500D03*
X192299106Y-69532500D03*
X194839106Y-69532500D03*
X197379106Y-69532500D03*
X199919106Y-69532500D03*
X202459106Y-69532500D03*
X204999106Y-69532500D03*
X207539106Y-69532500D03*
%TD*%
D16*
%TO.C,C38*%
X112447856Y-51276250D03*
D17*
X114987856Y-51276250D03*
%TD*%
D26*
%TO.C,C34*%
X203150356Y-114776250D03*
X201450356Y-114776250D03*
%TD*%
D14*
%TO.C,U$3*%
X146261606Y-66040000D03*
X147531606Y-64135000D03*
X148801606Y-66040000D03*
%TD*%
D38*
%TO.C,P6*%
X192457856Y-127317500D03*
X189917856Y-127317500D03*
X187377856Y-127317500D03*
X184837856Y-127317500D03*
X182297856Y-127317500D03*
X179757856Y-127317500D03*
%TD*%
D14*
%TO.C,R17*%
X196744106Y-120015000D03*
X199284106Y-120015000D03*
%TD*%
%TO.C,R29*%
X110490000Y-128270000D03*
X113030000Y-128270000D03*
%TD*%
%TO.C,LED1*%
X148166606Y-135731250D03*
X150706606Y-135731250D03*
%TD*%
D13*
%TO.C,R4*%
X120015000Y-66675000D03*
X120015000Y-59055000D03*
%TD*%
D28*
%TO.C,JP4*%
X175392231Y-127158750D03*
X175392231Y-124618750D03*
%TD*%
D20*
%TO.C,D2*%
X177800000Y-56515000D03*
X170180000Y-56515000D03*
%TD*%
D13*
%TO.C,R7*%
X162560000Y-66040000D03*
X162560000Y-63500000D03*
%TD*%
D21*
%TO.C,C40*%
X112709106Y-57308750D03*
X114409106Y-57308750D03*
%TD*%
D61*
%TO.C,S1*%
X87350600Y-41300400D03*
X82829400Y-41300400D03*
D62*
X88595200Y-43789600D03*
X81584800Y-43789600D03*
%TD*%
D31*
%TO.C,IC11*%
X217381606Y-103505000D03*
D32*
X219921606Y-100965000D03*
X217381606Y-100965000D03*
X219921606Y-98425000D03*
X217381606Y-98425000D03*
X219921606Y-95885000D03*
X217381606Y-93345000D03*
X217381606Y-95885000D03*
X214841606Y-93345000D03*
X214841606Y-95885000D03*
X212301606Y-93345000D03*
X212301606Y-95885000D03*
X209761606Y-93345000D03*
X209761606Y-95885000D03*
X207221606Y-93345000D03*
X207221606Y-95885000D03*
X204681606Y-93345000D03*
X202141606Y-95885000D03*
X204681606Y-95885000D03*
X202141606Y-98425000D03*
X204681606Y-98425000D03*
X202141606Y-100965000D03*
X204681606Y-100965000D03*
X202141606Y-103505000D03*
X204681606Y-103505000D03*
X202141606Y-106045000D03*
X204681606Y-106045000D03*
X202141606Y-108585000D03*
X204681606Y-111125000D03*
X204681606Y-108585000D03*
X207221606Y-111125000D03*
X207221606Y-108585000D03*
X209761606Y-111125000D03*
X209761606Y-108585000D03*
X212301606Y-111125000D03*
X212301606Y-108585000D03*
X214841606Y-111125000D03*
X214841606Y-108585000D03*
X217381606Y-111125000D03*
X219921606Y-108585000D03*
X217381606Y-108585000D03*
X219921606Y-106045000D03*
X217381606Y-106045000D03*
X219921606Y-103505000D03*
%TD*%
D63*
%TO.C,U$2*%
X125590000Y-97438125D03*
X125090000Y-97438125D03*
X124590000Y-97438125D03*
X124090000Y-97438125D03*
X123590000Y-97438125D03*
X123090000Y-97438125D03*
X122590000Y-97438125D03*
X122090000Y-97438125D03*
X121590000Y-97438125D03*
X121090000Y-97438125D03*
X120590000Y-97438125D03*
X120090000Y-97438125D03*
X119590000Y-97438125D03*
X119090000Y-97438125D03*
X118590000Y-97438125D03*
X118090000Y-97438125D03*
X117590000Y-97438125D03*
X117090000Y-97438125D03*
X116590000Y-97438125D03*
X116090000Y-97438125D03*
X115590000Y-97438125D03*
X115090000Y-97438125D03*
X114590000Y-97438125D03*
X114090000Y-97438125D03*
X113590000Y-97438125D03*
X113090000Y-97438125D03*
X112590000Y-97438125D03*
X112090000Y-97438125D03*
X111590000Y-97438125D03*
X111090000Y-97438125D03*
X110590000Y-97438125D03*
X110090000Y-97438125D03*
X109590000Y-97438125D03*
X109090000Y-97438125D03*
X108590000Y-97438125D03*
X108090000Y-97438125D03*
D64*
X106090000Y-99438125D03*
X106090000Y-99938125D03*
X106090000Y-100438125D03*
X106090000Y-100938125D03*
X106090000Y-101438125D03*
X106090000Y-101938125D03*
X106090000Y-102438125D03*
X106090000Y-102938125D03*
X106090000Y-103438125D03*
X106090000Y-103938125D03*
X106090000Y-104438125D03*
X106090000Y-104938125D03*
X106090000Y-105438125D03*
X106090000Y-105938125D03*
X106090000Y-106438125D03*
X106090000Y-106938125D03*
X106090000Y-107438125D03*
X106090000Y-107938125D03*
X106090000Y-108438125D03*
X106090000Y-108938125D03*
X106090000Y-109438125D03*
X106090000Y-109938125D03*
X106090000Y-110438125D03*
X106090000Y-110938125D03*
X106090000Y-111438125D03*
X106090000Y-111938125D03*
X106090000Y-112438125D03*
X106090000Y-112938125D03*
X106090000Y-113438125D03*
X106090000Y-113938125D03*
X106090000Y-114438125D03*
X106090000Y-114938125D03*
X106090000Y-115438125D03*
X106090000Y-115938125D03*
X106090000Y-116438125D03*
X106090000Y-116938125D03*
D63*
X108090000Y-118938125D03*
X108590000Y-118938125D03*
X109090000Y-118938125D03*
X109590000Y-118938125D03*
X110090000Y-118938125D03*
X110590000Y-118938125D03*
X111090000Y-118938125D03*
X111590000Y-118938125D03*
X112090000Y-118938125D03*
X112590000Y-118938125D03*
X113090000Y-118938125D03*
X113590000Y-118938125D03*
X114090000Y-118938125D03*
X114590000Y-118938125D03*
X115090000Y-118938125D03*
X115590000Y-118938125D03*
X116090000Y-118938125D03*
X116590000Y-118938125D03*
X117090000Y-118938125D03*
X117590000Y-118938125D03*
X118090000Y-118938125D03*
X118590000Y-118938125D03*
X119090000Y-118938125D03*
X119590000Y-118938125D03*
X120090000Y-118938125D03*
X120590000Y-118938125D03*
X121090000Y-118938125D03*
X121590000Y-118938125D03*
X122090000Y-118938125D03*
X122590000Y-118938125D03*
X123090000Y-118938125D03*
X123590000Y-118938125D03*
X124090000Y-118938125D03*
X124590000Y-118938125D03*
X125090000Y-118938125D03*
X125590000Y-118938125D03*
D64*
X127590000Y-116938125D03*
X127590000Y-116438125D03*
X127590000Y-115938125D03*
X127590000Y-115438125D03*
X127590000Y-114938125D03*
X127590000Y-114438125D03*
X127590000Y-113938125D03*
X127590000Y-113438125D03*
X127590000Y-112938125D03*
X127590000Y-112438125D03*
X127590000Y-111938125D03*
X127590000Y-111438125D03*
X127590000Y-110938125D03*
X127590000Y-110438125D03*
X127590000Y-109938125D03*
X127590000Y-109438125D03*
X127590000Y-108938125D03*
X127590000Y-108438125D03*
X127590000Y-107938125D03*
X127590000Y-107438125D03*
X127590000Y-106938125D03*
X127590000Y-106438125D03*
X127590000Y-105938125D03*
X127590000Y-105438125D03*
X127590000Y-104938125D03*
X127590000Y-104438125D03*
X127590000Y-103938125D03*
X127590000Y-103438125D03*
X127590000Y-102938125D03*
X127590000Y-102438125D03*
X127590000Y-101938125D03*
X127590000Y-101438125D03*
X127590000Y-100938125D03*
X127590000Y-100438125D03*
X127590000Y-99938125D03*
X127590000Y-99438125D03*
%TD*%
D22*
%TO.C,C32*%
X151817856Y-66096250D03*
X151817856Y-64396250D03*
%TD*%
D14*
%TO.C,R25*%
X90805000Y-100965000D03*
X93345000Y-100965000D03*
%TD*%
D65*
%TO.C,P3*%
X163247856Y-94297500D03*
X163247856Y-96837500D03*
X163247856Y-99377500D03*
X163247856Y-101917500D03*
X163247856Y-104457500D03*
X163247856Y-106997500D03*
X163247856Y-109537500D03*
X163247856Y-112077500D03*
X163247856Y-114617500D03*
X163247856Y-117157500D03*
X163247856Y-119697500D03*
X163247856Y-122237500D03*
X165787856Y-94297500D03*
X165787856Y-96837500D03*
X165787856Y-99377500D03*
X165787856Y-101917500D03*
X165787856Y-104457500D03*
X165787856Y-106997500D03*
X165787856Y-109537500D03*
X165787856Y-112077500D03*
X165787856Y-114617500D03*
X165787856Y-117157500D03*
X165787856Y-119697500D03*
X165787856Y-122237500D03*
%TD*%
D23*
%TO.C,C16*%
X79375000Y-92075000D03*
X79375000Y-93775000D03*
%TD*%
D66*
%TO.C,J1*%
X250317856Y-62309375D03*
D67*
X253417856Y-57509375D03*
D66*
X256417856Y-62309375D03*
%TD*%
D38*
%TO.C,P7*%
X201506606Y-131921250D03*
X206586606Y-131921250D03*
X209126606Y-131921250D03*
X211666606Y-131921250D03*
X214206606Y-131921250D03*
X216746606Y-131921250D03*
X219286606Y-131921250D03*
X221826606Y-131921250D03*
X224366606Y-131921250D03*
X226906606Y-131921250D03*
X229446606Y-131921250D03*
X231986606Y-131921250D03*
X234526606Y-131921250D03*
X237066606Y-131921250D03*
X239606606Y-131921250D03*
X242146606Y-131921250D03*
X244686606Y-131921250D03*
X247226606Y-131921250D03*
X249766606Y-131921250D03*
%TD*%
D41*
%TO.C,IC1*%
X97856000Y-94615000D03*
X97856000Y-93345000D03*
X97856000Y-92075000D03*
X97856000Y-90805000D03*
X97856000Y-89535000D03*
X97856000Y-88265000D03*
X97856000Y-86995000D03*
X97856000Y-85725000D03*
X97856000Y-84455000D03*
X97856000Y-83185000D03*
X97856000Y-81915000D03*
X97856000Y-80645000D03*
X97856000Y-79375000D03*
X97856000Y-78105000D03*
X97856000Y-76835000D03*
X97856000Y-75565000D03*
X85024000Y-75565000D03*
X85024000Y-76835000D03*
X85024000Y-78105000D03*
X85024000Y-79375000D03*
X85024000Y-80645000D03*
X85024000Y-81915000D03*
X85024000Y-83185000D03*
X85024000Y-84455000D03*
X85024000Y-85725000D03*
X85024000Y-86995000D03*
X85024000Y-88265000D03*
X85024000Y-89535000D03*
X85024000Y-90805000D03*
X85024000Y-92075000D03*
X85024000Y-93345000D03*
X85024000Y-94615000D03*
%TD*%
D10*
%TO.C,H5*%
X196188481Y-56753125D03*
%TD*%
D23*
%TO.C,C27*%
X76200000Y-99480000D03*
X76200000Y-101180000D03*
%TD*%
D28*
%TO.C,U$12*%
X78740000Y-83820000D03*
X78740000Y-71120000D03*
X78740000Y-81280000D03*
X78740000Y-78740000D03*
X78740000Y-73660000D03*
X78740000Y-86360000D03*
X78740000Y-76200000D03*
X78740000Y-88900000D03*
%TD*%
D21*
%TO.C,C21*%
X136564000Y-63182500D03*
X138264000Y-63182500D03*
%TD*%
D38*
%TO.C,JP10*%
X244527856Y-64770000D03*
X241987856Y-64770000D03*
X239447856Y-64770000D03*
%TD*%
D21*
%TO.C,C14*%
X85430625Y-70802500D03*
X87130625Y-70802500D03*
%TD*%
D35*
%TO.C,RN2*%
X211666606Y-65405000D03*
X214206606Y-65405000D03*
X216746606Y-65405000D03*
X219286606Y-65405000D03*
X221826606Y-65405000D03*
X224366606Y-65405000D03*
X226906606Y-65405000D03*
X229446606Y-65405000D03*
X231986606Y-65405000D03*
%TD*%
D14*
%TO.C,R24*%
X141986000Y-136398000D03*
X144526000Y-136398000D03*
%TD*%
D20*
%TO.C,U$4*%
X117475000Y-128818100D03*
X117475000Y-131358100D03*
X117475000Y-133898100D03*
X117475000Y-136438100D03*
X125095000Y-136438100D03*
X125095000Y-133898100D03*
X125095000Y-131358100D03*
X125095000Y-128818100D03*
%TD*%
D22*
%TO.C,C11*%
X100965000Y-129755000D03*
X100965000Y-128055000D03*
%TD*%
D23*
%TO.C,C71*%
X150266553Y-111384653D03*
X150266553Y-113084653D03*
%TD*%
D22*
%TO.C,C24*%
X237780981Y-84273125D03*
X237780981Y-82573125D03*
%TD*%
%TO.C,C13*%
X129540000Y-136740000D03*
X129540000Y-135040000D03*
%TD*%
D68*
%TO.C,CN3*%
X257942231Y-112855375D03*
X257942231Y-108892975D03*
X257942231Y-104930575D03*
X257942231Y-100968175D03*
X257942231Y-97005775D03*
X257942231Y-93043375D03*
%TD*%
D15*
%TO.C,R11*%
X147320000Y-70485000D03*
X147320000Y-73025000D03*
%TD*%
D20*
%TO.C,D11*%
X177800000Y-69215000D03*
X170180000Y-69215000D03*
%TD*%
D69*
%TO.C,X1*%
X96410000Y-41225000D03*
D70*
X91860000Y-44525000D03*
X101460000Y-49025000D03*
D69*
X92410000Y-52225000D03*
D70*
X99060000Y-47625000D03*
%TD*%
D14*
%TO.C,R32*%
X86995000Y-52705000D03*
X89535000Y-52705000D03*
%TD*%
D38*
%TO.C,BEEP1*%
X244708120Y-52378121D03*
X242168120Y-52378121D03*
%TD*%
D71*
%TO.C,U2*%
X135451574Y-106376938D03*
X135451574Y-107326938D03*
X135451574Y-108276938D03*
X137726574Y-108276938D03*
X137726574Y-106376938D03*
%TD*%
D21*
%TO.C,C25*%
X85589375Y-125730000D03*
X87289375Y-125730000D03*
%TD*%
%TO.C,C41*%
X102655000Y-96330335D03*
X104355000Y-96330335D03*
%TD*%
%TO.C,C2*%
X102655000Y-98425000D03*
X104355000Y-98425000D03*
%TD*%
%TO.C,C1*%
X140032000Y-75723200D03*
X141732000Y-75723200D03*
%TD*%
D20*
%TO.C,D9*%
X177800000Y-64135000D03*
X170180000Y-64135000D03*
%TD*%
D27*
%TO.C,R20*%
X174836606Y-121443750D03*
X172296606Y-121443750D03*
%TD*%
D72*
%TO.C,C5*%
X164438481Y-130333750D03*
D73*
X164438481Y-135413750D03*
%TD*%
D31*
%TO.C,U$1*%
X124460000Y-74930000D03*
D74*
X121920000Y-72390000D03*
X121920000Y-74930000D03*
X119380000Y-72390000D03*
X119380000Y-74930000D03*
X116840000Y-72390000D03*
X114300000Y-74930000D03*
X116840000Y-74930000D03*
X114300000Y-77470000D03*
X116840000Y-77470000D03*
X114300000Y-80010000D03*
X116840000Y-80010000D03*
X114300000Y-82550000D03*
X116840000Y-82550000D03*
X114300000Y-85090000D03*
X116840000Y-85090000D03*
X114300000Y-87630000D03*
X116840000Y-90170000D03*
X116840000Y-87630000D03*
X119380000Y-90170000D03*
X119380000Y-87630000D03*
X121920000Y-90170000D03*
X121920000Y-87630000D03*
X124460000Y-90170000D03*
X124460000Y-87630000D03*
X127000000Y-90170000D03*
X127000000Y-87630000D03*
X129540000Y-90170000D03*
X132080000Y-87630000D03*
X129540000Y-87630000D03*
X132080000Y-85090000D03*
X129540000Y-85090000D03*
X132080000Y-82550000D03*
X129540000Y-82550000D03*
X132080000Y-80010000D03*
X129540000Y-80010000D03*
X132080000Y-77470000D03*
X129540000Y-77470000D03*
X132080000Y-74930000D03*
X129540000Y-72390000D03*
X129540000Y-74930000D03*
X127000000Y-72390000D03*
X127000000Y-74930000D03*
X124460000Y-72390000D03*
%TD*%
M02*
