%TF.GenerationSoftware,KiCad,Pcbnew,8.0.2*%
%TF.CreationDate,2024-05-25T17:17:49+02:00*%
%TF.ProjectId,micropet_v3,6d696372-6f70-4657-945f-76332e6b6963,rev?*%
%TF.SameCoordinates,Original*%
%TF.FileFunction,Drillmap*%
%TF.FilePolarity,Positive*%
%FSLAX45Y45*%
G04 Gerber Fmt 4.5, Leading zero omitted, Abs format (unit mm)*
G04 Created by KiCad (PCBNEW 8.0.2) date 2024-05-25 17:17:49*
%MOMM*%
%LPD*%
G01*
G04 APERTURE LIST*
%ADD10C,0.254000*%
%ADD11C,0.050000*%
%ADD12C,0.127000*%
%ADD13C,0.200000*%
%ADD14C,0.304800*%
%ADD15C,0.320000*%
G04 APERTURE END LIST*
D10*
X25278286Y-7762875D02*
X25294161Y-7747000D01*
D11*
X17805400Y-3890000D02*
X17805400Y-3890000D01*
X7366000Y-13890000D02*
X26372161Y-13890000D01*
X7366000Y-3873500D02*
X7366000Y-13873500D01*
D10*
X24182911Y-4984750D02*
X25357661Y-4984750D01*
X25294161Y-11636375D02*
X25294161Y-12827000D01*
D11*
X26365723Y-3889375D02*
X25425400Y-3889375D01*
X17805400Y-3890000D02*
X7366000Y-3890000D01*
D10*
X25421161Y-3886200D02*
X25421161Y-4921250D01*
X25278286Y-8953500D02*
X25278286Y-7762875D01*
X19055286Y-4984750D02*
X17848786Y-4984750D01*
X26373661Y-7747000D02*
X25294161Y-7747000D01*
X25357661Y-4984750D02*
X25421161Y-4921250D01*
X17801161Y-3886200D02*
X17801161Y-4937125D01*
D11*
X26372161Y-13898562D02*
X26372161Y-12827000D01*
X26372161Y-7747000D02*
X26372161Y-3890000D01*
D10*
X17848786Y-4984750D02*
X17801161Y-4937125D01*
X26389536Y-12827000D02*
X25310036Y-12827000D01*
D12*
X19071161Y-4032250D02*
X19071161Y-4984750D01*
X20358941Y-3905250D02*
X19198161Y-3905250D01*
X20358941Y-3905250D02*
X20358941Y-4857750D01*
X20485941Y-3905250D02*
X20485941Y-4857750D01*
X23132621Y-3905250D02*
X20485941Y-3905250D01*
X23132621Y-3905250D02*
X23132621Y-4857750D01*
X23259621Y-3905250D02*
X23259621Y-4857750D01*
X24024161Y-3905250D02*
X23259621Y-3905250D01*
X24151161Y-4984750D02*
X24151161Y-4032250D01*
X19071161Y-4032250D02*
G75*
G02*
X19198161Y-3905250I127000J0D01*
G01*
X20422441Y-4921250D02*
G75*
G02*
X20358941Y-4857750I0J63500D01*
G01*
X20485941Y-4857750D02*
G75*
G02*
X20422441Y-4921250I-63500J0D01*
G01*
X23196121Y-4921250D02*
G75*
G02*
X23132621Y-4857750I0J63500D01*
G01*
X23259621Y-4857750D02*
G75*
G02*
X23196121Y-4921250I-63500J0D01*
G01*
X24024161Y-3905250D02*
G75*
G02*
X24151161Y-4032250I0J-127000D01*
G01*
X25286223Y-11641137D02*
X26238723Y-11641137D01*
X26238723Y-8948738D02*
X25286223Y-8948738D01*
X26365723Y-10627678D02*
X25413223Y-10627678D01*
X26365723Y-10627678D02*
X26365723Y-9075738D01*
X26365723Y-10754678D02*
X25413223Y-10754678D01*
X26365723Y-11514137D02*
X26365723Y-10754678D01*
X25349723Y-10691178D02*
G75*
G02*
X25413223Y-10627678I63500J0D01*
G01*
X25413223Y-10754678D02*
G75*
G02*
X25349723Y-10691178I0J63500D01*
G01*
X26238723Y-8948738D02*
G75*
G02*
X26365723Y-9075738I0J-127000D01*
G01*
X26365723Y-11514137D02*
G75*
G02*
X26238723Y-11641137I-127000J0D01*
G01*
D13*
D14*
X14621081Y-4895850D02*
X14925881Y-5200650D01*
X14925881Y-4895850D02*
X14621081Y-5200650D01*
X17120441Y-4895850D02*
X17425241Y-5200650D01*
X17425241Y-4895850D02*
X17120441Y-5200650D01*
D15*
X11039661Y-4381500D02*
G75*
G02*
X10719661Y-4381500I-160000J0D01*
G01*
X10719661Y-4381500D02*
G75*
G02*
X11039661Y-4381500I160000J0D01*
G01*
X11039661Y-13430250D02*
G75*
G02*
X10719661Y-13430250I-160000J0D01*
G01*
X10719661Y-13430250D02*
G75*
G02*
X11039661Y-13430250I160000J0D01*
G01*
X19612161Y-13430250D02*
G75*
G02*
X19292161Y-13430250I-160000J0D01*
G01*
X19292161Y-13430250D02*
G75*
G02*
X19612161Y-13430250I160000J0D01*
G01*
X19778848Y-5675312D02*
G75*
G02*
X19458848Y-5675312I-160000J0D01*
G01*
X19458848Y-5675312D02*
G75*
G02*
X19778848Y-5675312I160000J0D01*
G01*
X23779348Y-5683250D02*
G75*
G02*
X23459348Y-5683250I-160000J0D01*
G01*
X23459348Y-5683250D02*
G75*
G02*
X23779348Y-5683250I160000J0D01*
G01*
X26057411Y-4381500D02*
G75*
G02*
X25737411Y-4381500I-160000J0D01*
G01*
X25737411Y-4381500D02*
G75*
G02*
X26057411Y-4381500I160000J0D01*
G01*
X26057411Y-13430250D02*
G75*
G02*
X25737411Y-13430250I-160000J0D01*
G01*
X25737411Y-13430250D02*
G75*
G02*
X26057411Y-13430250I160000J0D01*
G01*
D13*
X7624277Y-14212546D02*
X7624277Y-14012546D01*
X7624277Y-14012546D02*
X7671896Y-14012546D01*
X7671896Y-14012546D02*
X7700467Y-14022070D01*
X7700467Y-14022070D02*
X7719515Y-14041118D01*
X7719515Y-14041118D02*
X7729039Y-14060165D01*
X7729039Y-14060165D02*
X7738562Y-14098260D01*
X7738562Y-14098260D02*
X7738562Y-14126832D01*
X7738562Y-14126832D02*
X7729039Y-14164927D01*
X7729039Y-14164927D02*
X7719515Y-14183975D01*
X7719515Y-14183975D02*
X7700467Y-14203022D01*
X7700467Y-14203022D02*
X7671896Y-14212546D01*
X7671896Y-14212546D02*
X7624277Y-14212546D01*
X7824277Y-14212546D02*
X7824277Y-14079213D01*
X7824277Y-14117308D02*
X7833801Y-14098260D01*
X7833801Y-14098260D02*
X7843324Y-14088737D01*
X7843324Y-14088737D02*
X7862372Y-14079213D01*
X7862372Y-14079213D02*
X7881420Y-14079213D01*
X7948086Y-14212546D02*
X7948086Y-14079213D01*
X7948086Y-14012546D02*
X7938562Y-14022070D01*
X7938562Y-14022070D02*
X7948086Y-14031594D01*
X7948086Y-14031594D02*
X7957610Y-14022070D01*
X7957610Y-14022070D02*
X7948086Y-14012546D01*
X7948086Y-14012546D02*
X7948086Y-14031594D01*
X8071896Y-14212546D02*
X8052848Y-14203022D01*
X8052848Y-14203022D02*
X8043324Y-14183975D01*
X8043324Y-14183975D02*
X8043324Y-14012546D01*
X8176658Y-14212546D02*
X8157610Y-14203022D01*
X8157610Y-14203022D02*
X8148086Y-14183975D01*
X8148086Y-14183975D02*
X8148086Y-14012546D01*
X8405229Y-14212546D02*
X8405229Y-14012546D01*
X8405229Y-14012546D02*
X8471896Y-14155403D01*
X8471896Y-14155403D02*
X8538563Y-14012546D01*
X8538563Y-14012546D02*
X8538563Y-14212546D01*
X8719515Y-14212546D02*
X8719515Y-14107784D01*
X8719515Y-14107784D02*
X8709991Y-14088737D01*
X8709991Y-14088737D02*
X8690944Y-14079213D01*
X8690944Y-14079213D02*
X8652848Y-14079213D01*
X8652848Y-14079213D02*
X8633801Y-14088737D01*
X8719515Y-14203022D02*
X8700467Y-14212546D01*
X8700467Y-14212546D02*
X8652848Y-14212546D01*
X8652848Y-14212546D02*
X8633801Y-14203022D01*
X8633801Y-14203022D02*
X8624277Y-14183975D01*
X8624277Y-14183975D02*
X8624277Y-14164927D01*
X8624277Y-14164927D02*
X8633801Y-14145880D01*
X8633801Y-14145880D02*
X8652848Y-14136356D01*
X8652848Y-14136356D02*
X8700467Y-14136356D01*
X8700467Y-14136356D02*
X8719515Y-14126832D01*
X8814753Y-14079213D02*
X8814753Y-14279213D01*
X8814753Y-14088737D02*
X8833801Y-14079213D01*
X8833801Y-14079213D02*
X8871896Y-14079213D01*
X8871896Y-14079213D02*
X8890944Y-14088737D01*
X8890944Y-14088737D02*
X8900467Y-14098260D01*
X8900467Y-14098260D02*
X8909991Y-14117308D01*
X8909991Y-14117308D02*
X8909991Y-14174451D01*
X8909991Y-14174451D02*
X8900467Y-14193499D01*
X8900467Y-14193499D02*
X8890944Y-14203022D01*
X8890944Y-14203022D02*
X8871896Y-14212546D01*
X8871896Y-14212546D02*
X8833801Y-14212546D01*
X8833801Y-14212546D02*
X8814753Y-14203022D01*
X8995705Y-14193499D02*
X9005229Y-14203022D01*
X9005229Y-14203022D02*
X8995705Y-14212546D01*
X8995705Y-14212546D02*
X8986182Y-14203022D01*
X8986182Y-14203022D02*
X8995705Y-14193499D01*
X8995705Y-14193499D02*
X8995705Y-14212546D01*
X8995705Y-14088737D02*
X9005229Y-14098260D01*
X9005229Y-14098260D02*
X8995705Y-14107784D01*
X8995705Y-14107784D02*
X8986182Y-14098260D01*
X8986182Y-14098260D02*
X8995705Y-14088737D01*
X8995705Y-14088737D02*
X8995705Y-14107784D01*
X7163500Y-14441062D02*
X7363500Y-14641062D01*
X7363500Y-14441062D02*
X7163500Y-14641062D01*
X7605229Y-14432546D02*
X7729039Y-14432546D01*
X7729039Y-14432546D02*
X7662372Y-14508737D01*
X7662372Y-14508737D02*
X7690943Y-14508737D01*
X7690943Y-14508737D02*
X7709991Y-14518260D01*
X7709991Y-14518260D02*
X7719515Y-14527784D01*
X7719515Y-14527784D02*
X7729039Y-14546832D01*
X7729039Y-14546832D02*
X7729039Y-14594451D01*
X7729039Y-14594451D02*
X7719515Y-14613499D01*
X7719515Y-14613499D02*
X7709991Y-14623022D01*
X7709991Y-14623022D02*
X7690943Y-14632546D01*
X7690943Y-14632546D02*
X7633801Y-14632546D01*
X7633801Y-14632546D02*
X7614753Y-14623022D01*
X7614753Y-14623022D02*
X7605229Y-14613499D01*
X7814753Y-14613499D02*
X7824277Y-14623022D01*
X7824277Y-14623022D02*
X7814753Y-14632546D01*
X7814753Y-14632546D02*
X7805229Y-14623022D01*
X7805229Y-14623022D02*
X7814753Y-14613499D01*
X7814753Y-14613499D02*
X7814753Y-14632546D01*
X7948086Y-14432546D02*
X7967134Y-14432546D01*
X7967134Y-14432546D02*
X7986182Y-14442070D01*
X7986182Y-14442070D02*
X7995705Y-14451594D01*
X7995705Y-14451594D02*
X8005229Y-14470641D01*
X8005229Y-14470641D02*
X8014753Y-14508737D01*
X8014753Y-14508737D02*
X8014753Y-14556356D01*
X8014753Y-14556356D02*
X8005229Y-14594451D01*
X8005229Y-14594451D02*
X7995705Y-14613499D01*
X7995705Y-14613499D02*
X7986182Y-14623022D01*
X7986182Y-14623022D02*
X7967134Y-14632546D01*
X7967134Y-14632546D02*
X7948086Y-14632546D01*
X7948086Y-14632546D02*
X7929039Y-14623022D01*
X7929039Y-14623022D02*
X7919515Y-14613499D01*
X7919515Y-14613499D02*
X7909991Y-14594451D01*
X7909991Y-14594451D02*
X7900467Y-14556356D01*
X7900467Y-14556356D02*
X7900467Y-14508737D01*
X7900467Y-14508737D02*
X7909991Y-14470641D01*
X7909991Y-14470641D02*
X7919515Y-14451594D01*
X7919515Y-14451594D02*
X7929039Y-14442070D01*
X7929039Y-14442070D02*
X7948086Y-14432546D01*
X8186182Y-14499213D02*
X8186182Y-14632546D01*
X8138562Y-14423022D02*
X8090943Y-14565880D01*
X8090943Y-14565880D02*
X8214753Y-14565880D01*
X8319515Y-14518260D02*
X8300467Y-14508737D01*
X8300467Y-14508737D02*
X8290943Y-14499213D01*
X8290943Y-14499213D02*
X8281420Y-14480165D01*
X8281420Y-14480165D02*
X8281420Y-14470641D01*
X8281420Y-14470641D02*
X8290943Y-14451594D01*
X8290943Y-14451594D02*
X8300467Y-14442070D01*
X8300467Y-14442070D02*
X8319515Y-14432546D01*
X8319515Y-14432546D02*
X8357610Y-14432546D01*
X8357610Y-14432546D02*
X8376658Y-14442070D01*
X8376658Y-14442070D02*
X8386182Y-14451594D01*
X8386182Y-14451594D02*
X8395705Y-14470641D01*
X8395705Y-14470641D02*
X8395705Y-14480165D01*
X8395705Y-14480165D02*
X8386182Y-14499213D01*
X8386182Y-14499213D02*
X8376658Y-14508737D01*
X8376658Y-14508737D02*
X8357610Y-14518260D01*
X8357610Y-14518260D02*
X8319515Y-14518260D01*
X8319515Y-14518260D02*
X8300467Y-14527784D01*
X8300467Y-14527784D02*
X8290943Y-14537308D01*
X8290943Y-14537308D02*
X8281420Y-14556356D01*
X8281420Y-14556356D02*
X8281420Y-14594451D01*
X8281420Y-14594451D02*
X8290943Y-14613499D01*
X8290943Y-14613499D02*
X8300467Y-14623022D01*
X8300467Y-14623022D02*
X8319515Y-14632546D01*
X8319515Y-14632546D02*
X8357610Y-14632546D01*
X8357610Y-14632546D02*
X8376658Y-14623022D01*
X8376658Y-14623022D02*
X8386182Y-14613499D01*
X8386182Y-14613499D02*
X8395705Y-14594451D01*
X8395705Y-14594451D02*
X8395705Y-14556356D01*
X8395705Y-14556356D02*
X8386182Y-14537308D01*
X8386182Y-14537308D02*
X8376658Y-14527784D01*
X8376658Y-14527784D02*
X8357610Y-14518260D01*
X8481420Y-14632546D02*
X8481420Y-14499213D01*
X8481420Y-14518260D02*
X8490944Y-14508737D01*
X8490944Y-14508737D02*
X8509991Y-14499213D01*
X8509991Y-14499213D02*
X8538563Y-14499213D01*
X8538563Y-14499213D02*
X8557610Y-14508737D01*
X8557610Y-14508737D02*
X8567134Y-14527784D01*
X8567134Y-14527784D02*
X8567134Y-14632546D01*
X8567134Y-14527784D02*
X8576658Y-14508737D01*
X8576658Y-14508737D02*
X8595705Y-14499213D01*
X8595705Y-14499213D02*
X8624277Y-14499213D01*
X8624277Y-14499213D02*
X8643325Y-14508737D01*
X8643325Y-14508737D02*
X8652848Y-14527784D01*
X8652848Y-14527784D02*
X8652848Y-14632546D01*
X8748086Y-14632546D02*
X8748086Y-14499213D01*
X8748086Y-14518260D02*
X8757610Y-14508737D01*
X8757610Y-14508737D02*
X8776658Y-14499213D01*
X8776658Y-14499213D02*
X8805229Y-14499213D01*
X8805229Y-14499213D02*
X8824277Y-14508737D01*
X8824277Y-14508737D02*
X8833801Y-14527784D01*
X8833801Y-14527784D02*
X8833801Y-14632546D01*
X8833801Y-14527784D02*
X8843325Y-14508737D01*
X8843325Y-14508737D02*
X8862372Y-14499213D01*
X8862372Y-14499213D02*
X8890944Y-14499213D01*
X8890944Y-14499213D02*
X8909991Y-14508737D01*
X8909991Y-14508737D02*
X8919515Y-14527784D01*
X8919515Y-14527784D02*
X8919515Y-14632546D01*
X9309991Y-14423022D02*
X9138563Y-14680165D01*
X9567134Y-14432546D02*
X9586182Y-14432546D01*
X9586182Y-14432546D02*
X9605229Y-14442070D01*
X9605229Y-14442070D02*
X9614753Y-14451594D01*
X9614753Y-14451594D02*
X9624277Y-14470641D01*
X9624277Y-14470641D02*
X9633801Y-14508737D01*
X9633801Y-14508737D02*
X9633801Y-14556356D01*
X9633801Y-14556356D02*
X9624277Y-14594451D01*
X9624277Y-14594451D02*
X9614753Y-14613499D01*
X9614753Y-14613499D02*
X9605229Y-14623022D01*
X9605229Y-14623022D02*
X9586182Y-14632546D01*
X9586182Y-14632546D02*
X9567134Y-14632546D01*
X9567134Y-14632546D02*
X9548087Y-14623022D01*
X9548087Y-14623022D02*
X9538563Y-14613499D01*
X9538563Y-14613499D02*
X9529039Y-14594451D01*
X9529039Y-14594451D02*
X9519515Y-14556356D01*
X9519515Y-14556356D02*
X9519515Y-14508737D01*
X9519515Y-14508737D02*
X9529039Y-14470641D01*
X9529039Y-14470641D02*
X9538563Y-14451594D01*
X9538563Y-14451594D02*
X9548087Y-14442070D01*
X9548087Y-14442070D02*
X9567134Y-14432546D01*
X9719515Y-14613499D02*
X9729039Y-14623022D01*
X9729039Y-14623022D02*
X9719515Y-14632546D01*
X9719515Y-14632546D02*
X9709991Y-14623022D01*
X9709991Y-14623022D02*
X9719515Y-14613499D01*
X9719515Y-14613499D02*
X9719515Y-14632546D01*
X9919515Y-14632546D02*
X9805229Y-14632546D01*
X9862372Y-14632546D02*
X9862372Y-14432546D01*
X9862372Y-14432546D02*
X9843325Y-14461118D01*
X9843325Y-14461118D02*
X9824277Y-14480165D01*
X9824277Y-14480165D02*
X9805229Y-14489689D01*
X9995706Y-14451594D02*
X10005229Y-14442070D01*
X10005229Y-14442070D02*
X10024277Y-14432546D01*
X10024277Y-14432546D02*
X10071896Y-14432546D01*
X10071896Y-14432546D02*
X10090944Y-14442070D01*
X10090944Y-14442070D02*
X10100468Y-14451594D01*
X10100468Y-14451594D02*
X10109991Y-14470641D01*
X10109991Y-14470641D02*
X10109991Y-14489689D01*
X10109991Y-14489689D02*
X10100468Y-14518260D01*
X10100468Y-14518260D02*
X9986182Y-14632546D01*
X9986182Y-14632546D02*
X10109991Y-14632546D01*
X10233801Y-14432546D02*
X10252849Y-14432546D01*
X10252849Y-14432546D02*
X10271896Y-14442070D01*
X10271896Y-14442070D02*
X10281420Y-14451594D01*
X10281420Y-14451594D02*
X10290944Y-14470641D01*
X10290944Y-14470641D02*
X10300468Y-14508737D01*
X10300468Y-14508737D02*
X10300468Y-14556356D01*
X10300468Y-14556356D02*
X10290944Y-14594451D01*
X10290944Y-14594451D02*
X10281420Y-14613499D01*
X10281420Y-14613499D02*
X10271896Y-14623022D01*
X10271896Y-14623022D02*
X10252849Y-14632546D01*
X10252849Y-14632546D02*
X10233801Y-14632546D01*
X10233801Y-14632546D02*
X10214753Y-14623022D01*
X10214753Y-14623022D02*
X10205229Y-14613499D01*
X10205229Y-14613499D02*
X10195706Y-14594451D01*
X10195706Y-14594451D02*
X10186182Y-14556356D01*
X10186182Y-14556356D02*
X10186182Y-14508737D01*
X10186182Y-14508737D02*
X10195706Y-14470641D01*
X10195706Y-14470641D02*
X10205229Y-14451594D01*
X10205229Y-14451594D02*
X10214753Y-14442070D01*
X10214753Y-14442070D02*
X10233801Y-14432546D01*
X10424277Y-14432546D02*
X10443325Y-14432546D01*
X10443325Y-14432546D02*
X10462372Y-14442070D01*
X10462372Y-14442070D02*
X10471896Y-14451594D01*
X10471896Y-14451594D02*
X10481420Y-14470641D01*
X10481420Y-14470641D02*
X10490944Y-14508737D01*
X10490944Y-14508737D02*
X10490944Y-14556356D01*
X10490944Y-14556356D02*
X10481420Y-14594451D01*
X10481420Y-14594451D02*
X10471896Y-14613499D01*
X10471896Y-14613499D02*
X10462372Y-14623022D01*
X10462372Y-14623022D02*
X10443325Y-14632546D01*
X10443325Y-14632546D02*
X10424277Y-14632546D01*
X10424277Y-14632546D02*
X10405229Y-14623022D01*
X10405229Y-14623022D02*
X10395706Y-14613499D01*
X10395706Y-14613499D02*
X10386182Y-14594451D01*
X10386182Y-14594451D02*
X10376658Y-14556356D01*
X10376658Y-14556356D02*
X10376658Y-14508737D01*
X10376658Y-14508737D02*
X10386182Y-14470641D01*
X10386182Y-14470641D02*
X10395706Y-14451594D01*
X10395706Y-14451594D02*
X10405229Y-14442070D01*
X10405229Y-14442070D02*
X10424277Y-14432546D01*
X10567134Y-14432546D02*
X10567134Y-14470641D01*
X10643325Y-14432546D02*
X10643325Y-14470641D01*
X10938563Y-14708737D02*
X10929039Y-14699213D01*
X10929039Y-14699213D02*
X10909991Y-14670641D01*
X10909991Y-14670641D02*
X10900468Y-14651594D01*
X10900468Y-14651594D02*
X10890944Y-14623022D01*
X10890944Y-14623022D02*
X10881420Y-14575403D01*
X10881420Y-14575403D02*
X10881420Y-14537308D01*
X10881420Y-14537308D02*
X10890944Y-14489689D01*
X10890944Y-14489689D02*
X10900468Y-14461118D01*
X10900468Y-14461118D02*
X10909991Y-14442070D01*
X10909991Y-14442070D02*
X10929039Y-14413499D01*
X10929039Y-14413499D02*
X10938563Y-14403975D01*
X11005230Y-14451594D02*
X11014753Y-14442070D01*
X11014753Y-14442070D02*
X11033801Y-14432546D01*
X11033801Y-14432546D02*
X11081420Y-14432546D01*
X11081420Y-14432546D02*
X11100468Y-14442070D01*
X11100468Y-14442070D02*
X11109991Y-14451594D01*
X11109991Y-14451594D02*
X11119515Y-14470641D01*
X11119515Y-14470641D02*
X11119515Y-14489689D01*
X11119515Y-14489689D02*
X11109991Y-14518260D01*
X11109991Y-14518260D02*
X10995706Y-14632546D01*
X10995706Y-14632546D02*
X11119515Y-14632546D01*
X11357610Y-14632546D02*
X11357610Y-14432546D01*
X11443325Y-14632546D02*
X11443325Y-14527784D01*
X11443325Y-14527784D02*
X11433801Y-14508737D01*
X11433801Y-14508737D02*
X11414753Y-14499213D01*
X11414753Y-14499213D02*
X11386182Y-14499213D01*
X11386182Y-14499213D02*
X11367134Y-14508737D01*
X11367134Y-14508737D02*
X11357610Y-14518260D01*
X11567134Y-14632546D02*
X11548087Y-14623022D01*
X11548087Y-14623022D02*
X11538563Y-14613499D01*
X11538563Y-14613499D02*
X11529039Y-14594451D01*
X11529039Y-14594451D02*
X11529039Y-14537308D01*
X11529039Y-14537308D02*
X11538563Y-14518260D01*
X11538563Y-14518260D02*
X11548087Y-14508737D01*
X11548087Y-14508737D02*
X11567134Y-14499213D01*
X11567134Y-14499213D02*
X11595706Y-14499213D01*
X11595706Y-14499213D02*
X11614753Y-14508737D01*
X11614753Y-14508737D02*
X11624277Y-14518260D01*
X11624277Y-14518260D02*
X11633801Y-14537308D01*
X11633801Y-14537308D02*
X11633801Y-14594451D01*
X11633801Y-14594451D02*
X11624277Y-14613499D01*
X11624277Y-14613499D02*
X11614753Y-14623022D01*
X11614753Y-14623022D02*
X11595706Y-14632546D01*
X11595706Y-14632546D02*
X11567134Y-14632546D01*
X11748087Y-14632546D02*
X11729039Y-14623022D01*
X11729039Y-14623022D02*
X11719515Y-14603975D01*
X11719515Y-14603975D02*
X11719515Y-14432546D01*
X11900468Y-14623022D02*
X11881420Y-14632546D01*
X11881420Y-14632546D02*
X11843325Y-14632546D01*
X11843325Y-14632546D02*
X11824277Y-14623022D01*
X11824277Y-14623022D02*
X11814753Y-14603975D01*
X11814753Y-14603975D02*
X11814753Y-14527784D01*
X11814753Y-14527784D02*
X11824277Y-14508737D01*
X11824277Y-14508737D02*
X11843325Y-14499213D01*
X11843325Y-14499213D02*
X11881420Y-14499213D01*
X11881420Y-14499213D02*
X11900468Y-14508737D01*
X11900468Y-14508737D02*
X11909991Y-14527784D01*
X11909991Y-14527784D02*
X11909991Y-14546832D01*
X11909991Y-14546832D02*
X11814753Y-14565880D01*
X11986182Y-14623022D02*
X12005230Y-14632546D01*
X12005230Y-14632546D02*
X12043325Y-14632546D01*
X12043325Y-14632546D02*
X12062372Y-14623022D01*
X12062372Y-14623022D02*
X12071896Y-14603975D01*
X12071896Y-14603975D02*
X12071896Y-14594451D01*
X12071896Y-14594451D02*
X12062372Y-14575403D01*
X12062372Y-14575403D02*
X12043325Y-14565880D01*
X12043325Y-14565880D02*
X12014753Y-14565880D01*
X12014753Y-14565880D02*
X11995706Y-14556356D01*
X11995706Y-14556356D02*
X11986182Y-14537308D01*
X11986182Y-14537308D02*
X11986182Y-14527784D01*
X11986182Y-14527784D02*
X11995706Y-14508737D01*
X11995706Y-14508737D02*
X12014753Y-14499213D01*
X12014753Y-14499213D02*
X12043325Y-14499213D01*
X12043325Y-14499213D02*
X12062372Y-14508737D01*
X12138563Y-14708737D02*
X12148087Y-14699213D01*
X12148087Y-14699213D02*
X12167134Y-14670641D01*
X12167134Y-14670641D02*
X12176658Y-14651594D01*
X12176658Y-14651594D02*
X12186182Y-14623022D01*
X12186182Y-14623022D02*
X12195706Y-14575403D01*
X12195706Y-14575403D02*
X12195706Y-14537308D01*
X12195706Y-14537308D02*
X12186182Y-14489689D01*
X12186182Y-14489689D02*
X12176658Y-14461118D01*
X12176658Y-14461118D02*
X12167134Y-14442070D01*
X12167134Y-14442070D02*
X12148087Y-14413499D01*
X12148087Y-14413499D02*
X12138563Y-14403975D01*
X12500468Y-14708737D02*
X12490944Y-14699213D01*
X12490944Y-14699213D02*
X12471896Y-14670641D01*
X12471896Y-14670641D02*
X12462372Y-14651594D01*
X12462372Y-14651594D02*
X12452849Y-14623022D01*
X12452849Y-14623022D02*
X12443325Y-14575403D01*
X12443325Y-14575403D02*
X12443325Y-14537308D01*
X12443325Y-14537308D02*
X12452849Y-14489689D01*
X12452849Y-14489689D02*
X12462372Y-14461118D01*
X12462372Y-14461118D02*
X12471896Y-14442070D01*
X12471896Y-14442070D02*
X12490944Y-14413499D01*
X12490944Y-14413499D02*
X12500468Y-14403975D01*
X12576658Y-14499213D02*
X12576658Y-14632546D01*
X12576658Y-14518260D02*
X12586182Y-14508737D01*
X12586182Y-14508737D02*
X12605230Y-14499213D01*
X12605230Y-14499213D02*
X12633801Y-14499213D01*
X12633801Y-14499213D02*
X12652849Y-14508737D01*
X12652849Y-14508737D02*
X12662372Y-14527784D01*
X12662372Y-14527784D02*
X12662372Y-14632546D01*
X12786182Y-14632546D02*
X12767134Y-14623022D01*
X12767134Y-14623022D02*
X12757611Y-14613499D01*
X12757611Y-14613499D02*
X12748087Y-14594451D01*
X12748087Y-14594451D02*
X12748087Y-14537308D01*
X12748087Y-14537308D02*
X12757611Y-14518260D01*
X12757611Y-14518260D02*
X12767134Y-14508737D01*
X12767134Y-14508737D02*
X12786182Y-14499213D01*
X12786182Y-14499213D02*
X12814753Y-14499213D01*
X12814753Y-14499213D02*
X12833801Y-14508737D01*
X12833801Y-14508737D02*
X12843325Y-14518260D01*
X12843325Y-14518260D02*
X12852849Y-14537308D01*
X12852849Y-14537308D02*
X12852849Y-14594451D01*
X12852849Y-14594451D02*
X12843325Y-14613499D01*
X12843325Y-14613499D02*
X12833801Y-14623022D01*
X12833801Y-14623022D02*
X12814753Y-14632546D01*
X12814753Y-14632546D02*
X12786182Y-14632546D01*
X12909992Y-14499213D02*
X12986182Y-14499213D01*
X12938563Y-14432546D02*
X12938563Y-14603975D01*
X12938563Y-14603975D02*
X12948087Y-14623022D01*
X12948087Y-14623022D02*
X12967134Y-14632546D01*
X12967134Y-14632546D02*
X12986182Y-14632546D01*
X13205230Y-14499213D02*
X13205230Y-14699213D01*
X13205230Y-14508737D02*
X13224277Y-14499213D01*
X13224277Y-14499213D02*
X13262373Y-14499213D01*
X13262373Y-14499213D02*
X13281420Y-14508737D01*
X13281420Y-14508737D02*
X13290944Y-14518260D01*
X13290944Y-14518260D02*
X13300468Y-14537308D01*
X13300468Y-14537308D02*
X13300468Y-14594451D01*
X13300468Y-14594451D02*
X13290944Y-14613499D01*
X13290944Y-14613499D02*
X13281420Y-14623022D01*
X13281420Y-14623022D02*
X13262373Y-14632546D01*
X13262373Y-14632546D02*
X13224277Y-14632546D01*
X13224277Y-14632546D02*
X13205230Y-14623022D01*
X13414753Y-14632546D02*
X13395706Y-14623022D01*
X13395706Y-14623022D02*
X13386182Y-14603975D01*
X13386182Y-14603975D02*
X13386182Y-14432546D01*
X13576658Y-14632546D02*
X13576658Y-14527784D01*
X13576658Y-14527784D02*
X13567134Y-14508737D01*
X13567134Y-14508737D02*
X13548087Y-14499213D01*
X13548087Y-14499213D02*
X13509992Y-14499213D01*
X13509992Y-14499213D02*
X13490944Y-14508737D01*
X13576658Y-14623022D02*
X13557611Y-14632546D01*
X13557611Y-14632546D02*
X13509992Y-14632546D01*
X13509992Y-14632546D02*
X13490944Y-14623022D01*
X13490944Y-14623022D02*
X13481420Y-14603975D01*
X13481420Y-14603975D02*
X13481420Y-14584927D01*
X13481420Y-14584927D02*
X13490944Y-14565880D01*
X13490944Y-14565880D02*
X13509992Y-14556356D01*
X13509992Y-14556356D02*
X13557611Y-14556356D01*
X13557611Y-14556356D02*
X13576658Y-14546832D01*
X13643325Y-14499213D02*
X13719515Y-14499213D01*
X13671896Y-14432546D02*
X13671896Y-14603975D01*
X13671896Y-14603975D02*
X13681420Y-14623022D01*
X13681420Y-14623022D02*
X13700468Y-14632546D01*
X13700468Y-14632546D02*
X13719515Y-14632546D01*
X13862373Y-14623022D02*
X13843325Y-14632546D01*
X13843325Y-14632546D02*
X13805230Y-14632546D01*
X13805230Y-14632546D02*
X13786182Y-14623022D01*
X13786182Y-14623022D02*
X13776658Y-14603975D01*
X13776658Y-14603975D02*
X13776658Y-14527784D01*
X13776658Y-14527784D02*
X13786182Y-14508737D01*
X13786182Y-14508737D02*
X13805230Y-14499213D01*
X13805230Y-14499213D02*
X13843325Y-14499213D01*
X13843325Y-14499213D02*
X13862373Y-14508737D01*
X13862373Y-14508737D02*
X13871896Y-14527784D01*
X13871896Y-14527784D02*
X13871896Y-14546832D01*
X13871896Y-14546832D02*
X13776658Y-14565880D01*
X14043325Y-14632546D02*
X14043325Y-14432546D01*
X14043325Y-14623022D02*
X14024277Y-14632546D01*
X14024277Y-14632546D02*
X13986182Y-14632546D01*
X13986182Y-14632546D02*
X13967134Y-14623022D01*
X13967134Y-14623022D02*
X13957611Y-14613499D01*
X13957611Y-14613499D02*
X13948087Y-14594451D01*
X13948087Y-14594451D02*
X13948087Y-14537308D01*
X13948087Y-14537308D02*
X13957611Y-14518260D01*
X13957611Y-14518260D02*
X13967134Y-14508737D01*
X13967134Y-14508737D02*
X13986182Y-14499213D01*
X13986182Y-14499213D02*
X14024277Y-14499213D01*
X14024277Y-14499213D02*
X14043325Y-14508737D01*
X14119515Y-14708737D02*
X14129039Y-14699213D01*
X14129039Y-14699213D02*
X14148087Y-14670641D01*
X14148087Y-14670641D02*
X14157611Y-14651594D01*
X14157611Y-14651594D02*
X14167134Y-14623022D01*
X14167134Y-14623022D02*
X14176658Y-14575403D01*
X14176658Y-14575403D02*
X14176658Y-14537308D01*
X14176658Y-14537308D02*
X14167134Y-14489689D01*
X14167134Y-14489689D02*
X14157611Y-14461118D01*
X14157611Y-14461118D02*
X14148087Y-14442070D01*
X14148087Y-14442070D02*
X14129039Y-14413499D01*
X14129039Y-14413499D02*
X14119515Y-14403975D01*
X7363500Y-14861062D02*
G75*
G02*
X7163500Y-14861062I-100000J0D01*
G01*
X7163500Y-14861062D02*
G75*
G02*
X7363500Y-14861062I100000J0D01*
G01*
X7605229Y-14752546D02*
X7729039Y-14752546D01*
X7729039Y-14752546D02*
X7662372Y-14828737D01*
X7662372Y-14828737D02*
X7690943Y-14828737D01*
X7690943Y-14828737D02*
X7709991Y-14838260D01*
X7709991Y-14838260D02*
X7719515Y-14847784D01*
X7719515Y-14847784D02*
X7729039Y-14866832D01*
X7729039Y-14866832D02*
X7729039Y-14914451D01*
X7729039Y-14914451D02*
X7719515Y-14933499D01*
X7719515Y-14933499D02*
X7709991Y-14943022D01*
X7709991Y-14943022D02*
X7690943Y-14952546D01*
X7690943Y-14952546D02*
X7633801Y-14952546D01*
X7633801Y-14952546D02*
X7614753Y-14943022D01*
X7614753Y-14943022D02*
X7605229Y-14933499D01*
X7814753Y-14933499D02*
X7824277Y-14943022D01*
X7824277Y-14943022D02*
X7814753Y-14952546D01*
X7814753Y-14952546D02*
X7805229Y-14943022D01*
X7805229Y-14943022D02*
X7814753Y-14933499D01*
X7814753Y-14933499D02*
X7814753Y-14952546D01*
X7900467Y-14771594D02*
X7909991Y-14762070D01*
X7909991Y-14762070D02*
X7929039Y-14752546D01*
X7929039Y-14752546D02*
X7976658Y-14752546D01*
X7976658Y-14752546D02*
X7995705Y-14762070D01*
X7995705Y-14762070D02*
X8005229Y-14771594D01*
X8005229Y-14771594D02*
X8014753Y-14790641D01*
X8014753Y-14790641D02*
X8014753Y-14809689D01*
X8014753Y-14809689D02*
X8005229Y-14838260D01*
X8005229Y-14838260D02*
X7890943Y-14952546D01*
X7890943Y-14952546D02*
X8014753Y-14952546D01*
X8138562Y-14752546D02*
X8157610Y-14752546D01*
X8157610Y-14752546D02*
X8176658Y-14762070D01*
X8176658Y-14762070D02*
X8186182Y-14771594D01*
X8186182Y-14771594D02*
X8195705Y-14790641D01*
X8195705Y-14790641D02*
X8205229Y-14828737D01*
X8205229Y-14828737D02*
X8205229Y-14876356D01*
X8205229Y-14876356D02*
X8195705Y-14914451D01*
X8195705Y-14914451D02*
X8186182Y-14933499D01*
X8186182Y-14933499D02*
X8176658Y-14943022D01*
X8176658Y-14943022D02*
X8157610Y-14952546D01*
X8157610Y-14952546D02*
X8138562Y-14952546D01*
X8138562Y-14952546D02*
X8119515Y-14943022D01*
X8119515Y-14943022D02*
X8109991Y-14933499D01*
X8109991Y-14933499D02*
X8100467Y-14914451D01*
X8100467Y-14914451D02*
X8090943Y-14876356D01*
X8090943Y-14876356D02*
X8090943Y-14828737D01*
X8090943Y-14828737D02*
X8100467Y-14790641D01*
X8100467Y-14790641D02*
X8109991Y-14771594D01*
X8109991Y-14771594D02*
X8119515Y-14762070D01*
X8119515Y-14762070D02*
X8138562Y-14752546D01*
X8329039Y-14752546D02*
X8348086Y-14752546D01*
X8348086Y-14752546D02*
X8367134Y-14762070D01*
X8367134Y-14762070D02*
X8376658Y-14771594D01*
X8376658Y-14771594D02*
X8386182Y-14790641D01*
X8386182Y-14790641D02*
X8395705Y-14828737D01*
X8395705Y-14828737D02*
X8395705Y-14876356D01*
X8395705Y-14876356D02*
X8386182Y-14914451D01*
X8386182Y-14914451D02*
X8376658Y-14933499D01*
X8376658Y-14933499D02*
X8367134Y-14943022D01*
X8367134Y-14943022D02*
X8348086Y-14952546D01*
X8348086Y-14952546D02*
X8329039Y-14952546D01*
X8329039Y-14952546D02*
X8309991Y-14943022D01*
X8309991Y-14943022D02*
X8300467Y-14933499D01*
X8300467Y-14933499D02*
X8290943Y-14914451D01*
X8290943Y-14914451D02*
X8281420Y-14876356D01*
X8281420Y-14876356D02*
X8281420Y-14828737D01*
X8281420Y-14828737D02*
X8290943Y-14790641D01*
X8290943Y-14790641D02*
X8300467Y-14771594D01*
X8300467Y-14771594D02*
X8309991Y-14762070D01*
X8309991Y-14762070D02*
X8329039Y-14752546D01*
X8481420Y-14952546D02*
X8481420Y-14819213D01*
X8481420Y-14838260D02*
X8490944Y-14828737D01*
X8490944Y-14828737D02*
X8509991Y-14819213D01*
X8509991Y-14819213D02*
X8538563Y-14819213D01*
X8538563Y-14819213D02*
X8557610Y-14828737D01*
X8557610Y-14828737D02*
X8567134Y-14847784D01*
X8567134Y-14847784D02*
X8567134Y-14952546D01*
X8567134Y-14847784D02*
X8576658Y-14828737D01*
X8576658Y-14828737D02*
X8595705Y-14819213D01*
X8595705Y-14819213D02*
X8624277Y-14819213D01*
X8624277Y-14819213D02*
X8643325Y-14828737D01*
X8643325Y-14828737D02*
X8652848Y-14847784D01*
X8652848Y-14847784D02*
X8652848Y-14952546D01*
X8748086Y-14952546D02*
X8748086Y-14819213D01*
X8748086Y-14838260D02*
X8757610Y-14828737D01*
X8757610Y-14828737D02*
X8776658Y-14819213D01*
X8776658Y-14819213D02*
X8805229Y-14819213D01*
X8805229Y-14819213D02*
X8824277Y-14828737D01*
X8824277Y-14828737D02*
X8833801Y-14847784D01*
X8833801Y-14847784D02*
X8833801Y-14952546D01*
X8833801Y-14847784D02*
X8843325Y-14828737D01*
X8843325Y-14828737D02*
X8862372Y-14819213D01*
X8862372Y-14819213D02*
X8890944Y-14819213D01*
X8890944Y-14819213D02*
X8909991Y-14828737D01*
X8909991Y-14828737D02*
X8919515Y-14847784D01*
X8919515Y-14847784D02*
X8919515Y-14952546D01*
X9309991Y-14743022D02*
X9138563Y-15000165D01*
X9567134Y-14752546D02*
X9586182Y-14752546D01*
X9586182Y-14752546D02*
X9605229Y-14762070D01*
X9605229Y-14762070D02*
X9614753Y-14771594D01*
X9614753Y-14771594D02*
X9624277Y-14790641D01*
X9624277Y-14790641D02*
X9633801Y-14828737D01*
X9633801Y-14828737D02*
X9633801Y-14876356D01*
X9633801Y-14876356D02*
X9624277Y-14914451D01*
X9624277Y-14914451D02*
X9614753Y-14933499D01*
X9614753Y-14933499D02*
X9605229Y-14943022D01*
X9605229Y-14943022D02*
X9586182Y-14952546D01*
X9586182Y-14952546D02*
X9567134Y-14952546D01*
X9567134Y-14952546D02*
X9548087Y-14943022D01*
X9548087Y-14943022D02*
X9538563Y-14933499D01*
X9538563Y-14933499D02*
X9529039Y-14914451D01*
X9529039Y-14914451D02*
X9519515Y-14876356D01*
X9519515Y-14876356D02*
X9519515Y-14828737D01*
X9519515Y-14828737D02*
X9529039Y-14790641D01*
X9529039Y-14790641D02*
X9538563Y-14771594D01*
X9538563Y-14771594D02*
X9548087Y-14762070D01*
X9548087Y-14762070D02*
X9567134Y-14752546D01*
X9719515Y-14933499D02*
X9729039Y-14943022D01*
X9729039Y-14943022D02*
X9719515Y-14952546D01*
X9719515Y-14952546D02*
X9709991Y-14943022D01*
X9709991Y-14943022D02*
X9719515Y-14933499D01*
X9719515Y-14933499D02*
X9719515Y-14952546D01*
X9919515Y-14952546D02*
X9805229Y-14952546D01*
X9862372Y-14952546D02*
X9862372Y-14752546D01*
X9862372Y-14752546D02*
X9843325Y-14781118D01*
X9843325Y-14781118D02*
X9824277Y-14800165D01*
X9824277Y-14800165D02*
X9805229Y-14809689D01*
X9995706Y-14771594D02*
X10005229Y-14762070D01*
X10005229Y-14762070D02*
X10024277Y-14752546D01*
X10024277Y-14752546D02*
X10071896Y-14752546D01*
X10071896Y-14752546D02*
X10090944Y-14762070D01*
X10090944Y-14762070D02*
X10100468Y-14771594D01*
X10100468Y-14771594D02*
X10109991Y-14790641D01*
X10109991Y-14790641D02*
X10109991Y-14809689D01*
X10109991Y-14809689D02*
X10100468Y-14838260D01*
X10100468Y-14838260D02*
X9986182Y-14952546D01*
X9986182Y-14952546D02*
X10109991Y-14952546D01*
X10281420Y-14752546D02*
X10243325Y-14752546D01*
X10243325Y-14752546D02*
X10224277Y-14762070D01*
X10224277Y-14762070D02*
X10214753Y-14771594D01*
X10214753Y-14771594D02*
X10195706Y-14800165D01*
X10195706Y-14800165D02*
X10186182Y-14838260D01*
X10186182Y-14838260D02*
X10186182Y-14914451D01*
X10186182Y-14914451D02*
X10195706Y-14933499D01*
X10195706Y-14933499D02*
X10205229Y-14943022D01*
X10205229Y-14943022D02*
X10224277Y-14952546D01*
X10224277Y-14952546D02*
X10262372Y-14952546D01*
X10262372Y-14952546D02*
X10281420Y-14943022D01*
X10281420Y-14943022D02*
X10290944Y-14933499D01*
X10290944Y-14933499D02*
X10300468Y-14914451D01*
X10300468Y-14914451D02*
X10300468Y-14866832D01*
X10300468Y-14866832D02*
X10290944Y-14847784D01*
X10290944Y-14847784D02*
X10281420Y-14838260D01*
X10281420Y-14838260D02*
X10262372Y-14828737D01*
X10262372Y-14828737D02*
X10224277Y-14828737D01*
X10224277Y-14828737D02*
X10205229Y-14838260D01*
X10205229Y-14838260D02*
X10195706Y-14847784D01*
X10195706Y-14847784D02*
X10186182Y-14866832D01*
X10424277Y-14752546D02*
X10443325Y-14752546D01*
X10443325Y-14752546D02*
X10462372Y-14762070D01*
X10462372Y-14762070D02*
X10471896Y-14771594D01*
X10471896Y-14771594D02*
X10481420Y-14790641D01*
X10481420Y-14790641D02*
X10490944Y-14828737D01*
X10490944Y-14828737D02*
X10490944Y-14876356D01*
X10490944Y-14876356D02*
X10481420Y-14914451D01*
X10481420Y-14914451D02*
X10471896Y-14933499D01*
X10471896Y-14933499D02*
X10462372Y-14943022D01*
X10462372Y-14943022D02*
X10443325Y-14952546D01*
X10443325Y-14952546D02*
X10424277Y-14952546D01*
X10424277Y-14952546D02*
X10405229Y-14943022D01*
X10405229Y-14943022D02*
X10395706Y-14933499D01*
X10395706Y-14933499D02*
X10386182Y-14914451D01*
X10386182Y-14914451D02*
X10376658Y-14876356D01*
X10376658Y-14876356D02*
X10376658Y-14828737D01*
X10376658Y-14828737D02*
X10386182Y-14790641D01*
X10386182Y-14790641D02*
X10395706Y-14771594D01*
X10395706Y-14771594D02*
X10405229Y-14762070D01*
X10405229Y-14762070D02*
X10424277Y-14752546D01*
X10567134Y-14752546D02*
X10567134Y-14790641D01*
X10643325Y-14752546D02*
X10643325Y-14790641D01*
X10938563Y-15028737D02*
X10929039Y-15019213D01*
X10929039Y-15019213D02*
X10909991Y-14990641D01*
X10909991Y-14990641D02*
X10900468Y-14971594D01*
X10900468Y-14971594D02*
X10890944Y-14943022D01*
X10890944Y-14943022D02*
X10881420Y-14895403D01*
X10881420Y-14895403D02*
X10881420Y-14857308D01*
X10881420Y-14857308D02*
X10890944Y-14809689D01*
X10890944Y-14809689D02*
X10900468Y-14781118D01*
X10900468Y-14781118D02*
X10909991Y-14762070D01*
X10909991Y-14762070D02*
X10929039Y-14733499D01*
X10929039Y-14733499D02*
X10938563Y-14723975D01*
X10995706Y-14752546D02*
X11129039Y-14752546D01*
X11129039Y-14752546D02*
X11043325Y-14952546D01*
X11357610Y-14952546D02*
X11357610Y-14752546D01*
X11443325Y-14952546D02*
X11443325Y-14847784D01*
X11443325Y-14847784D02*
X11433801Y-14828737D01*
X11433801Y-14828737D02*
X11414753Y-14819213D01*
X11414753Y-14819213D02*
X11386182Y-14819213D01*
X11386182Y-14819213D02*
X11367134Y-14828737D01*
X11367134Y-14828737D02*
X11357610Y-14838260D01*
X11567134Y-14952546D02*
X11548087Y-14943022D01*
X11548087Y-14943022D02*
X11538563Y-14933499D01*
X11538563Y-14933499D02*
X11529039Y-14914451D01*
X11529039Y-14914451D02*
X11529039Y-14857308D01*
X11529039Y-14857308D02*
X11538563Y-14838260D01*
X11538563Y-14838260D02*
X11548087Y-14828737D01*
X11548087Y-14828737D02*
X11567134Y-14819213D01*
X11567134Y-14819213D02*
X11595706Y-14819213D01*
X11595706Y-14819213D02*
X11614753Y-14828737D01*
X11614753Y-14828737D02*
X11624277Y-14838260D01*
X11624277Y-14838260D02*
X11633801Y-14857308D01*
X11633801Y-14857308D02*
X11633801Y-14914451D01*
X11633801Y-14914451D02*
X11624277Y-14933499D01*
X11624277Y-14933499D02*
X11614753Y-14943022D01*
X11614753Y-14943022D02*
X11595706Y-14952546D01*
X11595706Y-14952546D02*
X11567134Y-14952546D01*
X11748087Y-14952546D02*
X11729039Y-14943022D01*
X11729039Y-14943022D02*
X11719515Y-14923975D01*
X11719515Y-14923975D02*
X11719515Y-14752546D01*
X11900468Y-14943022D02*
X11881420Y-14952546D01*
X11881420Y-14952546D02*
X11843325Y-14952546D01*
X11843325Y-14952546D02*
X11824277Y-14943022D01*
X11824277Y-14943022D02*
X11814753Y-14923975D01*
X11814753Y-14923975D02*
X11814753Y-14847784D01*
X11814753Y-14847784D02*
X11824277Y-14828737D01*
X11824277Y-14828737D02*
X11843325Y-14819213D01*
X11843325Y-14819213D02*
X11881420Y-14819213D01*
X11881420Y-14819213D02*
X11900468Y-14828737D01*
X11900468Y-14828737D02*
X11909991Y-14847784D01*
X11909991Y-14847784D02*
X11909991Y-14866832D01*
X11909991Y-14866832D02*
X11814753Y-14885880D01*
X11986182Y-14943022D02*
X12005230Y-14952546D01*
X12005230Y-14952546D02*
X12043325Y-14952546D01*
X12043325Y-14952546D02*
X12062372Y-14943022D01*
X12062372Y-14943022D02*
X12071896Y-14923975D01*
X12071896Y-14923975D02*
X12071896Y-14914451D01*
X12071896Y-14914451D02*
X12062372Y-14895403D01*
X12062372Y-14895403D02*
X12043325Y-14885880D01*
X12043325Y-14885880D02*
X12014753Y-14885880D01*
X12014753Y-14885880D02*
X11995706Y-14876356D01*
X11995706Y-14876356D02*
X11986182Y-14857308D01*
X11986182Y-14857308D02*
X11986182Y-14847784D01*
X11986182Y-14847784D02*
X11995706Y-14828737D01*
X11995706Y-14828737D02*
X12014753Y-14819213D01*
X12014753Y-14819213D02*
X12043325Y-14819213D01*
X12043325Y-14819213D02*
X12062372Y-14828737D01*
X12138563Y-15028737D02*
X12148087Y-15019213D01*
X12148087Y-15019213D02*
X12167134Y-14990641D01*
X12167134Y-14990641D02*
X12176658Y-14971594D01*
X12176658Y-14971594D02*
X12186182Y-14943022D01*
X12186182Y-14943022D02*
X12195706Y-14895403D01*
X12195706Y-14895403D02*
X12195706Y-14857308D01*
X12195706Y-14857308D02*
X12186182Y-14809689D01*
X12186182Y-14809689D02*
X12176658Y-14781118D01*
X12176658Y-14781118D02*
X12167134Y-14762070D01*
X12167134Y-14762070D02*
X12148087Y-14733499D01*
X12148087Y-14733499D02*
X12138563Y-14723975D01*
X12500468Y-15028737D02*
X12490944Y-15019213D01*
X12490944Y-15019213D02*
X12471896Y-14990641D01*
X12471896Y-14990641D02*
X12462372Y-14971594D01*
X12462372Y-14971594D02*
X12452849Y-14943022D01*
X12452849Y-14943022D02*
X12443325Y-14895403D01*
X12443325Y-14895403D02*
X12443325Y-14857308D01*
X12443325Y-14857308D02*
X12452849Y-14809689D01*
X12452849Y-14809689D02*
X12462372Y-14781118D01*
X12462372Y-14781118D02*
X12471896Y-14762070D01*
X12471896Y-14762070D02*
X12490944Y-14733499D01*
X12490944Y-14733499D02*
X12500468Y-14723975D01*
X12576658Y-14819213D02*
X12576658Y-14952546D01*
X12576658Y-14838260D02*
X12586182Y-14828737D01*
X12586182Y-14828737D02*
X12605230Y-14819213D01*
X12605230Y-14819213D02*
X12633801Y-14819213D01*
X12633801Y-14819213D02*
X12652849Y-14828737D01*
X12652849Y-14828737D02*
X12662372Y-14847784D01*
X12662372Y-14847784D02*
X12662372Y-14952546D01*
X12786182Y-14952546D02*
X12767134Y-14943022D01*
X12767134Y-14943022D02*
X12757611Y-14933499D01*
X12757611Y-14933499D02*
X12748087Y-14914451D01*
X12748087Y-14914451D02*
X12748087Y-14857308D01*
X12748087Y-14857308D02*
X12757611Y-14838260D01*
X12757611Y-14838260D02*
X12767134Y-14828737D01*
X12767134Y-14828737D02*
X12786182Y-14819213D01*
X12786182Y-14819213D02*
X12814753Y-14819213D01*
X12814753Y-14819213D02*
X12833801Y-14828737D01*
X12833801Y-14828737D02*
X12843325Y-14838260D01*
X12843325Y-14838260D02*
X12852849Y-14857308D01*
X12852849Y-14857308D02*
X12852849Y-14914451D01*
X12852849Y-14914451D02*
X12843325Y-14933499D01*
X12843325Y-14933499D02*
X12833801Y-14943022D01*
X12833801Y-14943022D02*
X12814753Y-14952546D01*
X12814753Y-14952546D02*
X12786182Y-14952546D01*
X12909992Y-14819213D02*
X12986182Y-14819213D01*
X12938563Y-14752546D02*
X12938563Y-14923975D01*
X12938563Y-14923975D02*
X12948087Y-14943022D01*
X12948087Y-14943022D02*
X12967134Y-14952546D01*
X12967134Y-14952546D02*
X12986182Y-14952546D01*
X13205230Y-14819213D02*
X13205230Y-15019213D01*
X13205230Y-14828737D02*
X13224277Y-14819213D01*
X13224277Y-14819213D02*
X13262373Y-14819213D01*
X13262373Y-14819213D02*
X13281420Y-14828737D01*
X13281420Y-14828737D02*
X13290944Y-14838260D01*
X13290944Y-14838260D02*
X13300468Y-14857308D01*
X13300468Y-14857308D02*
X13300468Y-14914451D01*
X13300468Y-14914451D02*
X13290944Y-14933499D01*
X13290944Y-14933499D02*
X13281420Y-14943022D01*
X13281420Y-14943022D02*
X13262373Y-14952546D01*
X13262373Y-14952546D02*
X13224277Y-14952546D01*
X13224277Y-14952546D02*
X13205230Y-14943022D01*
X13414753Y-14952546D02*
X13395706Y-14943022D01*
X13395706Y-14943022D02*
X13386182Y-14923975D01*
X13386182Y-14923975D02*
X13386182Y-14752546D01*
X13576658Y-14952546D02*
X13576658Y-14847784D01*
X13576658Y-14847784D02*
X13567134Y-14828737D01*
X13567134Y-14828737D02*
X13548087Y-14819213D01*
X13548087Y-14819213D02*
X13509992Y-14819213D01*
X13509992Y-14819213D02*
X13490944Y-14828737D01*
X13576658Y-14943022D02*
X13557611Y-14952546D01*
X13557611Y-14952546D02*
X13509992Y-14952546D01*
X13509992Y-14952546D02*
X13490944Y-14943022D01*
X13490944Y-14943022D02*
X13481420Y-14923975D01*
X13481420Y-14923975D02*
X13481420Y-14904927D01*
X13481420Y-14904927D02*
X13490944Y-14885880D01*
X13490944Y-14885880D02*
X13509992Y-14876356D01*
X13509992Y-14876356D02*
X13557611Y-14876356D01*
X13557611Y-14876356D02*
X13576658Y-14866832D01*
X13643325Y-14819213D02*
X13719515Y-14819213D01*
X13671896Y-14752546D02*
X13671896Y-14923975D01*
X13671896Y-14923975D02*
X13681420Y-14943022D01*
X13681420Y-14943022D02*
X13700468Y-14952546D01*
X13700468Y-14952546D02*
X13719515Y-14952546D01*
X13862373Y-14943022D02*
X13843325Y-14952546D01*
X13843325Y-14952546D02*
X13805230Y-14952546D01*
X13805230Y-14952546D02*
X13786182Y-14943022D01*
X13786182Y-14943022D02*
X13776658Y-14923975D01*
X13776658Y-14923975D02*
X13776658Y-14847784D01*
X13776658Y-14847784D02*
X13786182Y-14828737D01*
X13786182Y-14828737D02*
X13805230Y-14819213D01*
X13805230Y-14819213D02*
X13843325Y-14819213D01*
X13843325Y-14819213D02*
X13862373Y-14828737D01*
X13862373Y-14828737D02*
X13871896Y-14847784D01*
X13871896Y-14847784D02*
X13871896Y-14866832D01*
X13871896Y-14866832D02*
X13776658Y-14885880D01*
X14043325Y-14952546D02*
X14043325Y-14752546D01*
X14043325Y-14943022D02*
X14024277Y-14952546D01*
X14024277Y-14952546D02*
X13986182Y-14952546D01*
X13986182Y-14952546D02*
X13967134Y-14943022D01*
X13967134Y-14943022D02*
X13957611Y-14933499D01*
X13957611Y-14933499D02*
X13948087Y-14914451D01*
X13948087Y-14914451D02*
X13948087Y-14857308D01*
X13948087Y-14857308D02*
X13957611Y-14838260D01*
X13957611Y-14838260D02*
X13967134Y-14828737D01*
X13967134Y-14828737D02*
X13986182Y-14819213D01*
X13986182Y-14819213D02*
X14024277Y-14819213D01*
X14024277Y-14819213D02*
X14043325Y-14828737D01*
X14119515Y-15028737D02*
X14129039Y-15019213D01*
X14129039Y-15019213D02*
X14148087Y-14990641D01*
X14148087Y-14990641D02*
X14157611Y-14971594D01*
X14157611Y-14971594D02*
X14167134Y-14943022D01*
X14167134Y-14943022D02*
X14176658Y-14895403D01*
X14176658Y-14895403D02*
X14176658Y-14857308D01*
X14176658Y-14857308D02*
X14167134Y-14809689D01*
X14167134Y-14809689D02*
X14157611Y-14781118D01*
X14157611Y-14781118D02*
X14148087Y-14762070D01*
X14148087Y-14762070D02*
X14129039Y-14733499D01*
X14129039Y-14733499D02*
X14119515Y-14723975D01*
M02*
